SourceSerif_3.ufo
<glyph name="numbersign" format="2">
	<unicode hex="0023"/>
	<advance width="583"/>
	<outline>
		<contour>
			<point x="107" y="0" type="line"/>
			<point x="162" y="0" type="line"/>
			<point x="258" y="640" type="line"/>
			<point x="203" y="640" type="line"/>
		</contour>
		<contour>
			<point x="16" y="271" type="line"/>
			<point x="16" y="151" type="line"/>
			<point x="534" y="151" type="line"/>
			<point x="534" y="271" type="line"/>
		</contour>
		<contour>
			<point x="568" y="367" type="line"/>
			<point x="568" y="487" type="line"/>
			<point x="50" y="487" type="line"/>
			<point x="50" y="367" type="line"/>
		</contour>
		<contour>
			<point x="332" y="0" type="line"/>
			<point x="388" y="0" type="line"/>
			<point x="484" y="640" type="line"/>
			<point x="429" y="640" type="line"/>
		</contour>
	</outline>
</glyph>
<glyph name="dollar" format="2">
	<unicode hex="0024"/>
	<advance width="560"/>
	<outline>
		<contour>
			<point x="261" y="-16" type="curve" smooth="yes"/>
			<point x="424" y="-16"/>
			<point x="523" y="70"/>
			<point x="523" y="178" type="curve" smooth="yes"/>
			<point x="523" y="285"/>
			<point x="468" y="341"/>
			<point x="329" y="393" type="curve" smooth="yes"/>
			<point x="297" y="405" type="line" smooth="yes"/>
			<point x="223" y="433"/>
			<point x="194" y="452"/>
			<point x="194" y="510" type="curve" smooth="yes"/>
			<point x="194" y="564"/>
			<point x="239" y="605"/>
			<point x="308" y="605" type="curve" smooth="yes"/>
			<point x="350" y="605"/>
			<point x="377" y="601"/>
			<point x="429" y="577" type="curve"/>
			<point x="341" y="629" type="line"/>
			<point x="354" y="537" type="line" smooth="yes"/>
			<point x="364" y="463"/>
			<point x="402" y="448"/>
			<point x="440" y="448" type="curve" smooth="yes"/>
			<point x="467" y="448"/>
			<point x="494" y="464"/>
			<point x="501" y="504" type="curve"/>
			<point x="501" y="588"/>
			<point x="425" y="640"/>
			<point x="296" y="640" type="curve" smooth="yes"/>
			<point x="138" y="640"/>
			<point x="53" y="560"/>
			<point x="53" y="457" type="curve" smooth="yes"/>
			<point x="53" y="352"/>
			<point x="116" y="294"/>
			<point x="234" y="248" type="curve" smooth="yes"/>
			<point x="265" y="236" type="line" smooth="yes"/>
			<point x="351" y="203"/>
			<point x="375" y="184"/>
			<point x="375" y="113" type="curve" smooth="yes"/>
			<point x="375" y="65"/>
			<point x="338" y="19"/>
			<point x="266" y="19" type="curve" smooth="yes"/>
			<point x="195" y="19"/>
			<point x="167" y="30"/>
			<point x="118" y="54" type="curve"/>
			<point x="196" y="4" type="line"/>
			<point x="188" y="104" type="line" smooth="yes"/>
			<point x="184" y="156"/>
			<point x="161" y="176"/>
			<point x="118" y="176" type="curve" smooth="yes"/>
			<point x="92" y="176"/>
			<point x="65" y="162"/>
			<point x="51" y="124" type="curve"/>
			<point x="51" y="34"/>
			<point x="122" y="-16"/>
		</contour>
		<contour>
			<point x="256" y="-115" type="line"/>
			<point x="307" y="-115" type="line"/>
			<point x="307" y="314" type="line"/>
			<point x="256" y="314" type="line"/>
		</contour>
		<contour>
			<point x="264" y="314" type="line"/>
			<point x="315" y="314" type="line"/>
			<point x="315" y="731" type="line"/>
			<point x="264" y="731" type="line"/>
		</contour>
	</outline>
</glyph>
<glyph name="ampersand" format="2">
	<unicode hex="0026"/>
	<advance width="721"/>
	<outline>
		<contour>
			<point x="22" y="65"/>
			<point x="86" y="-16"/>
			<point x="224" y="-16" type="curve" smooth="yes"/>
			<point x="318" y="-16"/>
			<point x="383" y="36"/>
			<point x="415" y="87" type="curve"/>
			<point x="427" y="87" type="line"/>
			<point x="401" y="99" type="line"/>
			<point x="375" y="84"/>
			<point x="351" y="76"/>
			<point x="315" y="76" type="curve" smooth="yes"/>
			<point x="239" y="76"/>
			<point x="178" y="123"/>
			<point x="178" y="217" type="curve" smooth="yes"/>
			<point x="178" y="257"/>
			<point x="186" y="293"/>
			<point x="209" y="332" type="curve"/>
			<point x="203" y="347" type="line"/>
			<point x="203" y="341" type="line"/>
			<point x="69" y="295"/>
			<point x="22" y="232"/>
			<point x="22" y="157" type="curve" smooth="yes"/>
		</contour>
		<contour>
			<point x="507" y="160" type="line"/>
			<point x="578" y="244"/>
			<point x="603" y="295"/>
			<point x="637" y="395" type="curve"/>
			<point x="557" y="395" type="line"/>
			<point x="549" y="316"/>
			<point x="528" y="240"/>
			<point x="490" y="174" type="curve"/>
			<point x="481" y="174" type="line"/>
		</contour>
		<contour>
			<point x="583" y="381" type="line"/>
			<point x="605" y="381" type="line"/>
			<point x="704" y="398" type="line"/>
			<point x="704" y="425" type="line"/>
			<point x="476" y="425" type="line"/>
			<point x="476" y="398" type="line"/>
		</contour>
		<contour>
			<point x="477" y="-3"/>
			<point x="524" y="-16"/>
			<point x="585" y="-16" type="curve" smooth="yes"/>
			<point x="616" y="-16"/>
			<point x="639" y="-12"/>
			<point x="692" y="0" type="curve"/>
			<point x="693" y="34" type="line"/>
			<point x="613" y="47" type="line"/>
			<point x="677" y="32" type="line"/>
			<point x="578" y="130"/>
			<point x="534" y="174"/>
			<point x="417" y="303" type="curve" smooth="yes"/>
			<point x="319" y="410"/>
			<point x="297" y="435"/>
			<point x="283" y="457" type="curve" smooth="yes"/>
			<point x="259" y="495"/>
			<point x="251" y="525"/>
			<point x="251" y="551" type="curve" smooth="yes"/>
			<point x="251" y="591"/>
			<point x="273" y="620"/>
			<point x="309" y="620" type="curve" smooth="yes"/>
			<point x="347" y="620"/>
			<point x="367" y="594"/>
			<point x="367" y="543" type="curve" smooth="yes"/>
			<point x="367" y="494"/>
			<point x="353" y="440"/>
			<point x="319" y="390" type="curve"/>
			<point x="334" y="371" type="line"/>
			<point x="334" y="378" type="line"/>
			<point x="444" y="419"/>
			<point x="493" y="465"/>
			<point x="493" y="534" type="curve" smooth="yes"/>
			<point x="493" y="613"/>
			<point x="427" y="664"/>
			<point x="311" y="664" type="curve" smooth="yes"/>
			<point x="189" y="664"/>
			<point x="112" y="600"/>
			<point x="112" y="498" type="curve" smooth="yes"/>
			<point x="112" y="450"/>
			<point x="126" y="401"/>
			<point x="169" y="342" type="curve" smooth="yes"/>
			<point x="187" y="320"/>
			<point x="219" y="279"/>
			<point x="292" y="188" type="curve" smooth="yes"/>
			<point x="328" y="143"/>
			<point x="373" y="82"/>
			<point x="426" y="39" type="curve" smooth="yes"/>
		</contour>
	</outline>
</glyph>
<glyph name="quotesingle" format="2">
	<unicode hex="0027"/>
	<advance width="257"/>
	<outline>
		<contour>
			<point x="128" y="726" type="curve" smooth="yes"/>
			<point x="73" y="726"/>
			<point x="40" y="695"/>
			<point x="40" y="635" type="curve" smooth="yes"/>
			<point x="40" y="589"/>
			<point x="64" y="529"/>
			<point x="73" y="500" type="curve" smooth="yes"/>
			<point x="111" y="381" type="line"/>
			<point x="146" y="381" type="line"/>
			<point x="184" y="500" type="line" smooth="yes"/>
			<point x="193" y="529"/>
			<point x="216" y="587"/>
			<point x="216" y="635" type="curve" smooth="yes"/>
			<point x="216" y="695"/>
			<point x="182" y="726"/>
		</contour>
	</outline>
</glyph>
<glyph name="asterisk" format="2">
	<unicode hex="002A"/>
	<advance width="427"/>
	<outline>
		<contour>
			<point x="209" y="520" type="line"/>
			<point x="217" y="520" type="line"/>
			<point x="242" y="579" type="line" smooth="yes"/>
			<point x="259" y="620"/>
			<point x="270" y="645"/>
			<point x="270" y="669" type="curve" smooth="yes"/>
			<point x="270" y="701"/>
			<point x="252" y="731"/>
			<point x="213" y="731" type="curve" smooth="yes"/>
			<point x="175" y="731"/>
			<point x="157" y="701"/>
			<point x="157" y="669" type="curve" smooth="yes"/>
			<point x="157" y="651"/>
			<point x="165" y="623"/>
			<point x="184" y="579" type="curve" smooth="yes"/>
		</contour>
		<contour>
			<point x="212" y="516" type="line"/>
			<point x="214" y="524" type="line"/>
			<point x="166" y="566" type="line" smooth="yes"/>
			<point x="132" y="595"/>
			<point x="112" y="613"/>
			<point x="89" y="620" type="curve" smooth="yes"/>
			<point x="58" y="630"/>
			<point x="24" y="622"/>
			<point x="12" y="585" type="curve" smooth="yes"/>
			<point x="1" y="549"/>
			<point x="24" y="523"/>
			<point x="54" y="513" type="curve" smooth="yes"/>
			<point x="71" y="507"/>
			<point x="100" y="506"/>
			<point x="148" y="511" type="curve" smooth="yes"/>
		</contour>
		<contour>
			<point x="216" y="518" type="line"/>
			<point x="210" y="522" type="line"/>
			<point x="155" y="489" type="line" smooth="yes"/>
			<point x="117" y="466"/>
			<point x="93" y="452"/>
			<point x="79" y="433" type="curve" smooth="yes"/>
			<point x="60" y="407"/>
			<point x="57" y="372"/>
			<point x="89" y="349" type="curve" smooth="yes"/>
			<point x="120" y="327"/>
			<point x="152" y="341"/>
			<point x="171" y="367" type="curve" smooth="yes"/>
			<point x="181" y="381"/>
			<point x="191" y="408"/>
			<point x="202" y="455" type="curve" smooth="yes"/>
		</contour>
		<contour>
			<point x="216" y="522" type="line"/>
			<point x="210" y="518" type="line"/>
			<point x="224" y="455" type="line" smooth="yes"/>
			<point x="235" y="412"/>
			<point x="240" y="385"/>
			<point x="254" y="366" type="curve" smooth="yes"/>
			<point x="273" y="340"/>
			<point x="305" y="326"/>
			<point x="337" y="349" type="curve" smooth="yes"/>
			<point x="368" y="372"/>
			<point x="365" y="406"/>
			<point x="346" y="432" type="curve" smooth="yes"/>
			<point x="335" y="447"/>
			<point x="312" y="465"/>
			<point x="271" y="489" type="curve" smooth="yes"/>
		</contour>
		<contour>
			<point x="212" y="524" type="line"/>
			<point x="214" y="516" type="line"/>
			<point x="278" y="511" type="line" smooth="yes"/>
			<point x="322" y="507"/>
			<point x="349" y="504"/>
			<point x="372" y="512" type="curve" smooth="yes"/>
			<point x="403" y="522"/>
			<point x="426" y="548"/>
			<point x="414" y="585" type="curve" smooth="yes"/>
			<point x="402" y="621"/>
			<point x="368" y="629"/>
			<point x="337" y="619" type="curve" smooth="yes"/>
			<point x="320" y="614"/>
			<point x="296" y="597"/>
			<point x="260" y="566" type="curve" smooth="yes"/>
		</contour>
	</outline>
</glyph>
<glyph name="comma" format="2">
	<unicode hex="002C"/>
	<advance width="300"/>
	<outline>
		<contour>
			<point x="69" y="-171" type="line"/>
			<point x="178" y="-147"/>
			<point x="248" y="-61"/>
			<point x="248" y="62" type="curve" smooth="yes"/>
			<point x="248" y="94"/>
			<point x="245" y="114"/>
			<point x="232" y="146" type="curve"/>
			<point x="208" y="167"/>
			<point x="184" y="174"/>
			<point x="152" y="174" type="curve" smooth="yes"/>
			<point x="96" y="174"/>
			<point x="52" y="132"/>
			<point x="52" y="77" type="curve" smooth="yes"/>
			<point x="52" y="46"/>
			<point x="68" y="12"/>
			<point x="116" y="-11" type="curve" smooth="yes"/>
			<point x="192" y="-47" type="line"/>
			<point x="179" y="-13" type="line"/>
			<point x="161" y="-79"/>
			<point x="122" y="-112"/>
			<point x="58" y="-142" type="curve"/>
		</contour>
	</outline>
</glyph>
<glyph name="hyphen" format="2">
	<unicode hex="002D"/>
	<unicode hex="00AD"/>
	<unicode hex="2010"/>
	<advance width="350"/>
	<outline>
		<contour>
			<point x="40" y="220" type="line"/>
			<point x="310" y="220" type="line"/>
			<point x="310" y="300" type="line"/>
			<point x="40" y="300" type="line"/>
		</contour>
	</outline>
</glyph>
<glyph name="slash" format="2">
	<unicode hex="002F"/>
	<advance width="410"/>
	<outline>
		<contour>
			<point x="32" y="-160" type="line"/>
			<point x="112" y="-160" type="line"/>
			<point x="379" y="710" type="line"/>
			<point x="299" y="710" type="line"/>
		</contour>
	</outline>
</glyph>
<glyph name="zero" format="2">
	<unicode hex="0030"/>
	<advance width="560"/>
	<outline>
		<contour>
			<point x="279" y="-16" type="curve" smooth="yes"/>
			<point x="411" y="-16"/>
			<point x="527" y="88"/>
			<point x="527" y="312" type="curve" smooth="yes"/>
			<point x="527" y="537"/>
			<point x="411" y="640"/>
			<point x="279" y="640" type="curve" smooth="yes"/>
			<point x="147" y="640"/>
			<point x="34" y="537"/>
			<point x="34" y="312" type="curve" smooth="yes"/>
			<point x="34" y="88"/>
			<point x="147" y="-16"/>
		</contour>
		<contour>
			<point x="279" y="19" type="curve" smooth="yes"/>
			<point x="237" y="19"/>
			<point x="209" y="75"/>
			<point x="209" y="312" type="curve" smooth="yes"/>
			<point x="209" y="550"/>
			<point x="237" y="606"/>
			<point x="279" y="606" type="curve" smooth="yes"/>
			<point x="321" y="606"/>
			<point x="352" y="549"/>
			<point x="352" y="312" type="curve" smooth="yes"/>
			<point x="352" y="76"/>
			<point x="321" y="19"/>
		</contour>
	</outline>
</glyph>
<glyph name="question" format="2">
	<unicode hex="003F"/>
	<advance width="462"/>
	<outline>
		<contour>
			<point x="181" y="-16" type="curve" smooth="yes"/>
			<point x="241" y="-16"/>
			<point x="286" y="29"/>
			<point x="286" y="87" type="curve" smooth="yes"/>
			<point x="286" y="145"/>
			<point x="241" y="191"/>
			<point x="181" y="191" type="curve" smooth="yes"/>
			<point x="123" y="191"/>
			<point x="75" y="145"/>
			<point x="75" y="87" type="curve" smooth="yes"/>
			<point x="75" y="29"/>
			<point x="123" y="-16"/>
		</contour>
		<contour>
			<point x="405" y="447" type="curve" smooth="yes"/>
			<point x="405" y="561"/>
			<point x="244" y="647"/>
			<point x="151" y="672" type="curve"/>
			<point x="105" y="659"/>
			<point x="81" y="636"/>
			<point x="81" y="591" type="curve" smooth="yes"/>
			<point x="81" y="549"/>
			<point x="107" y="519"/>
			<point x="173" y="510" type="curve" smooth="yes"/>
			<point x="383" y="482" type="line"/>
			<point x="315" y="545" type="line"/>
			<point x="338" y="519"/>
			<point x="344" y="506"/>
			<point x="345" y="492" type="curve" smooth="yes"/>
			<point x="346" y="465"/>
			<point x="330" y="460"/>
			<point x="280" y="447" type="curve" smooth="yes"/>
			<point x="205" y="427" type="line" smooth="yes"/>
			<point x="152" y="413"/>
			<point x="127" y="389"/>
			<point x="127" y="344" type="curve" smooth="yes"/>
			<point x="127" y="323"/>
			<point x="135" y="301"/>
			<point x="147" y="269" type="curve" smooth="yes"/>
			<point x="160" y="235" type="line"/>
			<point x="195" y="235" type="line"/>
			<point x="199" y="250" type="line" smooth="yes"/>
			<point x="205" y="271"/>
			<point x="215" y="278"/>
			<point x="251" y="290" type="curve" smooth="yes"/>
			<point x="303" y="307" type="line" smooth="yes"/>
			<point x="376" y="331"/>
			<point x="405" y="366"/>
		</contour>
	</outline>
</glyph>
<glyph name="at" format="2">
	<unicode hex="0040"/>
	<advance width="913"/>
	<outline>
		<contour>
			<point x="237" y="83"/>
			<point x="287" y="37"/>
			<point x="359" y="37" type="curve" smooth="yes"/>
			<point x="416" y="37"/>
			<point x="480" y="63"/>
			<point x="506" y="153" type="curve"/>
			<point x="509" y="153" type="line"/>
			<point x="497" y="167" type="line"/>
			<point x="478" y="127"/>
			<point x="460" y="116"/>
			<point x="440" y="116" type="curve" smooth="yes"/>
			<point x="408" y="116"/>
			<point x="381" y="144"/>
			<point x="381" y="205" type="curve" smooth="yes"/>
			<point x="381" y="324"/>
			<point x="443" y="428"/>
			<point x="499" y="428" type="curve" smooth="yes"/>
			<point x="517" y="428"/>
			<point x="533" y="418"/>
			<point x="541" y="386" type="curve"/>
			<point x="558" y="403" type="line"/>
			<point x="554" y="454"/>
			<point x="526" y="487"/>
			<point x="479" y="487" type="curve" smooth="yes"/>
			<point x="365" y="487"/>
			<point x="237" y="354"/>
			<point x="237" y="188" type="curve" smooth="yes"/>
		</contour>
		<contour>
			<point x="504" y="72"/>
			<point x="552" y="37"/>
			<point x="633" y="37" type="curve" smooth="yes"/>
			<point x="740" y="37"/>
			<point x="859" y="139"/>
			<point x="859" y="325" type="curve" smooth="yes"/>
			<point x="859" y="526"/>
			<point x="721" y="652"/>
			<point x="523" y="652" type="curve" smooth="yes"/>
			<point x="249" y="652"/>
			<point x="54" y="452"/>
			<point x="54" y="195" type="curve" smooth="yes"/>
			<point x="54" y="-33"/>
			<point x="206" y="-152"/>
			<point x="409" y="-152" type="curve" smooth="yes"/>
			<point x="508" y="-152"/>
			<point x="590" y="-125"/>
			<point x="657" y="-85" type="curve"/>
			<point x="639" y="-56" type="line"/>
			<point x="577" y="-90"/>
			<point x="497" y="-111"/>
			<point x="416" y="-111" type="curve" smooth="yes"/>
			<point x="236" y="-111"/>
			<point x="106" y="3"/>
			<point x="106" y="201" type="curve" smooth="yes"/>
			<point x="106" y="425"/>
			<point x="274" y="612"/>
			<point x="515" y="612" type="curve" smooth="yes"/>
			<point x="688" y="612"/>
			<point x="816" y="498"/>
			<point x="816" y="326" type="curve" smooth="yes"/>
			<point x="816" y="173"/>
			<point x="731" y="79"/>
			<point x="666" y="79" type="curve" smooth="yes"/>
			<point x="631" y="79"/>
			<point x="622" y="98"/>
			<point x="637" y="190" type="curve" smooth="yes"/>
			<point x="683" y="478" type="line"/>
			<point x="671" y="487" type="line"/>
			<point x="531" y="413" type="line"/>
			<point x="490" y="147" type="line"/>
			<point x="498" y="147" type="line"/>
		</contour>
	</outline>
</glyph>
<glyph name="A" format="2">
	<unicode hex="0041"/>
	<advance width="680"/>
	<outline>
		<contour>
			<point x="15" y="0" type="line"/>
			<point x="215" y="0" type="line"/>
			<point x="215" y="35" type="line"/>
			<point x="121" y="50" type="line"/>
			<point x="104" y="50" type="line"/>
			<point x="15" y="35" type="line"/>
		</contour>
		<contour>
			<point x="70" y="0" type="line"/>
			<point x="124" y="0" type="line"/>
			<point x="271" y="523" type="line"/>
			<point x="274" y="534" type="line"/>
			<point x="255" y="534" type="line"/>
			<point x="421" y="0" type="line"/>
			<point x="622" y="0" type="line"/>
			<point x="399" y="652" type="line"/>
			<point x="279" y="652" type="line"/>
		</contour>
		<contour>
			<point x="167" y="193" type="line"/>
			<point x="478" y="193" type="line"/>
			<point x="468" y="229" type="line"/>
			<point x="177" y="229" type="line"/>
		</contour>
		<contour>
			<point x="342" y="0" type="line"/>
			<point x="665" y="0" type="line"/>
			<point x="665" y="35" type="line"/>
			<point x="535" y="50" type="line"/>
			<point x="460" y="50" type="line"/>
			<point x="342" y="35" type="line"/>
		</contour>
	</outline>
	<anchor name="aboveUC" x="347" y="672"/>
	<anchor name="belowLC" x="287" y="-20"/>
	<anchor name="ogonek" x="526" y="0"/>
</glyph>
<glyph name="B" format="2">
	<unicode hex="0042"/>
	<advance width="660"/>
	<outline>
		<contour>
			<point x="28" y="0" type="line"/>
			<point x="197" y="0" type="line"/>
			<point x="197" y="50" type="line"/>
			<point x="179" y="50" type="line"/>
			<point x="28" y="35" type="line"/>
		</contour>
		<contour>
			<point x="95" y="0" type="curve"/>
			<point x="295" y="0" type="line"/>
			<point x="292" y="108"/>
			<point x="292" y="217"/>
			<point x="292" y="326" type="curve" smooth="yes"/>
			<point x="292" y="346" type="line" smooth="yes"/>
			<point x="292" y="450"/>
			<point x="292" y="552"/>
			<point x="295" y="652" type="curve"/>
			<point x="95" y="652" type="line"/>
			<point x="98" y="550"/>
			<point x="98" y="448"/>
			<point x="98" y="346" type="curve" smooth="yes"/>
			<point x="98" y="325" type="line" smooth="yes"/>
			<point x="98" y="215"/>
			<point x="98" y="106"/>
		</contour>
		<contour>
			<point x="197" y="0" type="line"/>
			<point x="317" y="0" type="line" smooth="yes"/>
			<point x="589" y="0"/>
			<point x="645" y="104"/>
			<point x="645" y="185" type="curve" smooth="yes"/>
			<point x="645" y="286"/>
			<point x="567" y="344"/>
			<point x="368" y="356" type="curve"/>
			<point x="368" y="347" type="line"/>
			<point x="557" y="369"/>
			<point x="604" y="432"/>
			<point x="604" y="501" type="curve" smooth="yes"/>
			<point x="604" y="586"/>
			<point x="547" y="652"/>
			<point x="365" y="652" type="curve" smooth="yes"/>
			<point x="197" y="652" type="line"/>
			<point x="197" y="614" type="line"/>
			<point x="315" y="614" type="line" smooth="yes"/>
			<point x="384" y="614"/>
			<point x="414" y="570"/>
			<point x="414" y="492" type="curve" smooth="yes"/>
			<point x="414" y="408"/>
			<point x="380" y="360"/>
			<point x="310" y="360" type="curve" smooth="yes"/>
			<point x="197" y="360" type="line"/>
			<point x="197" y="324" type="line"/>
			<point x="317" y="324" type="line" smooth="yes"/>
			<point x="401" y="324"/>
			<point x="443" y="283"/>
			<point x="443" y="182" type="curve" smooth="yes"/>
			<point x="443" y="86"/>
			<point x="393" y="38"/>
			<point x="315" y="38" type="curve" smooth="yes"/>
			<point x="197" y="38" type="line"/>
		</contour>
		<contour>
			<point x="28" y="617" type="line"/>
			<point x="179" y="602" type="line"/>
			<point x="197" y="602" type="line"/>
			<point x="197" y="652" type="line"/>
			<point x="28" y="652" type="line"/>
		</contour>
	</outline>
	<anchor name="aboveUC" x="325" y="672"/>
	<anchor name="belowLC" x="338" y="-20"/>
</glyph>
<glyph name="C" format="2">
	<unicode hex="0043"/>
	<advance width="618"/>
	<outline>
		<contour>
			<point x="389" y="-20" type="curve" smooth="yes"/>
			<point x="477" y="-20"/>
			<point x="544" y="5"/>
			<point x="592" y="32" type="curve"/>
			<point x="586" y="199" type="line"/>
			<point x="524" y="199" type="line"/>
			<point x="458" y="-3" type="line"/>
			<point x="546" y="28" type="line"/>
			<point x="546" y="63" type="line"/>
			<point x="502" y="32"/>
			<point x="472" y="19"/>
			<point x="431" y="19" type="curve" smooth="yes"/>
			<point x="320" y="19"/>
			<point x="233" y="101"/>
			<point x="233" y="325" type="curve" smooth="yes"/>
			<point x="233" y="549"/>
			<point x="321" y="634"/>
			<point x="424" y="634" type="curve" smooth="yes"/>
			<point x="467" y="634"/>
			<point x="501" y="622"/>
			<point x="539" y="597" type="curve"/>
			<point x="539" y="626" type="line"/>
			<point x="451" y="656" type="line"/>
			<point x="518" y="453" type="line"/>
			<point x="580" y="453" type="line"/>
			<point x="586" y="622" type="line"/>
			<point x="532" y="651"/>
			<point x="479" y="672"/>
			<point x="391" y="672" type="curve" smooth="yes"/>
			<point x="197" y="672"/>
			<point x="28" y="570"/>
			<point x="28" y="316" type="curve" smooth="yes"/>
			<point x="28" y="72"/>
			<point x="193" y="-20"/>
		</contour>
	</outline>
	<anchor name="aboveUC" x="363" y="682"/>
	<anchor name="belowLC" x="377" y="-22"/>
	<anchor name="baseLC" x="378" y="0"/>
</glyph>
<glyph name="D" format="2">
	<unicode hex="0044"/>
	<advance width="703"/>
	<outline>
		<contour>
			<point x="28" y="0" type="line"/>
			<point x="197" y="0" type="line"/>
			<point x="197" y="50" type="line"/>
			<point x="179" y="50" type="line"/>
			<point x="28" y="35" type="line"/>
		</contour>
		<contour>
			<point x="95" y="0" type="curve"/>
			<point x="299" y="0" type="line"/>
			<point x="296" y="103"/>
			<point x="296" y="207"/>
			<point x="296" y="311" type="curve" smooth="yes"/>
			<point x="296" y="342" type="line" smooth="yes"/>
			<point x="296" y="447"/>
			<point x="296" y="551"/>
			<point x="299" y="652" type="curve"/>
			<point x="95" y="652" type="line"/>
			<point x="98" y="549"/>
			<point x="98" y="445"/>
			<point x="98" y="342" type="curve" smooth="yes"/>
			<point x="98" y="310" type="line" smooth="yes"/>
			<point x="98" y="205"/>
			<point x="98" y="101"/>
		</contour>
		<contour>
			<point x="197" y="0" type="line"/>
			<point x="309" y="0" type="line" smooth="yes"/>
			<point x="537" y="0"/>
			<point x="675" y="123"/>
			<point x="675" y="329" type="curve" smooth="yes"/>
			<point x="675" y="525"/>
			<point x="548" y="652"/>
			<point x="326" y="652" type="curve" smooth="yes"/>
			<point x="197" y="652" type="line"/>
			<point x="197" y="614" type="line"/>
			<point x="311" y="614" type="line" smooth="yes"/>
			<point x="410" y="614"/>
			<point x="475" y="514"/>
			<point x="475" y="327" type="curve" smooth="yes"/>
			<point x="475" y="142"/>
			<point x="410" y="38"/>
			<point x="312" y="38" type="curve" smooth="yes"/>
			<point x="197" y="38" type="line"/>
		</contour>
		<contour>
			<point x="28" y="617" type="line"/>
			<point x="179" y="602" type="line"/>
			<point x="197" y="602" type="line"/>
			<point x="197" y="652" type="line"/>
			<point x="28" y="652" type="line"/>
		</contour>
	</outline>
	<anchor name="aboveUC" x="318" y="682"/>
	<anchor name="belowLC" x="320" y="-22"/>
</glyph>
<glyph name="I" format="2">
	<unicode hex="0049"/>
	<advance width="395"/>
	<outline>
		<contour>
			<point x="28" y="0" type="line"/>
			<point x="367" y="0" type="line"/>
			<point x="367" y="35" type="line"/>
			<point x="213" y="50" type="line"/>
			<point x="180" y="50" type="line"/>
			<point x="28" y="35" type="line"/>
		</contour>
		<contour>
			<point x="96" y="0" type="curve"/>
			<point x="300" y="0" type="line"/>
			<point x="297" y="103"/>
			<point x="297" y="207"/>
			<point x="297" y="311" type="curve" smooth="yes"/>
			<point x="297" y="342" type="line" smooth="yes"/>
			<point x="297" y="447"/>
			<point x="297" y="551"/>
			<point x="300" y="652" type="curve"/>
			<point x="96" y="652" type="line"/>
			<point x="99" y="549"/>
			<point x="99" y="445"/>
			<point x="99" y="342" type="curve" smooth="yes"/>
			<point x="99" y="310" type="line" smooth="yes"/>
			<point x="99" y="205"/>
			<point x="99" y="101"/>
		</contour>
		<contour>
			<point x="28" y="617" type="line"/>
			<point x="180" y="602" type="line"/>
			<point x="213" y="602" type="line"/>
			<point x="367" y="617" type="line"/>
			<point x="367" y="652" type="line"/>
			<point x="28" y="652" type="line"/>
		</contour>
	</outline>
	<anchor name="aboveUC" x="198" y="672"/>
	<anchor name="belowLC" x="198" y="-20"/>
	<anchor name="ogonek" x="249" y="0"/>
</glyph>
<glyph name="J" format="2">
	<unicode hex="004A"/>
	<advance width="404"/>
	<outline>
		<contour>
			<point x="66" y="-152" type="curve" smooth="yes"/>
			<point x="122" y="-152"/>
			<point x="186" y="-132"/>
			<point x="242" y="-63" type="curve" smooth="yes"/>
			<point x="286" y="-9"/>
			<point x="308" y="53"/>
			<point x="308" y="185" type="curve" smooth="yes"/>
			<point x="308" y="355" type="line" smooth="yes"/>
			<point x="308" y="455"/>
			<point x="308" y="555"/>
			<point x="311" y="652" type="curve"/>
			<point x="115" y="652" type="line"/>
			<point x="119" y="373"/>
			<point x="120" y="261"/>
			<point x="120" y="212" type="curve" smooth="yes"/>
			<point x="120" y="84"/>
			<point x="135" y="-21"/>
			<point x="135" y="-125" type="curve" smooth="yes"/>
			<point x="135" y="-132" type="line"/>
			<point x="147" y="-132" type="line"/>
			<point x="147" y="-126" type="line"/>
			<point x="94" y="-61" type="line" smooth="yes"/>
			<point x="60" y="-20"/>
			<point x="44" y="-13"/>
			<point x="8" y="-13" type="curve" smooth="yes"/>
			<point x="-28" y="-13"/>
			<point x="-56" y="-29"/>
			<point x="-66" y="-78" type="curve"/>
			<point x="-59" y="-129"/>
			<point x="-16" y="-152"/>
		</contour>
		<contour>
			<point x="30" y="617" type="line"/>
			<point x="177" y="602" type="line"/>
			<point x="223" y="602" type="line"/>
			<point x="379" y="617" type="line"/>
			<point x="379" y="652" type="line"/>
			<point x="30" y="652" type="line"/>
		</contour>
	</outline>
	<anchor name="aboveUC" x="203" y="672"/>
	<anchor name="belowLC" x="117" y="-162"/>
</glyph>
<glyph name="K" format="2">
	<unicode hex="004B"/>
	<advance width="708"/>
	<outline>
		<contour>
			<point x="95" y="0" type="curve"/>
			<point x="290" y="0" type="line"/>
			<point x="287" y="103"/>
			<point x="287" y="207"/>
			<point x="287" y="311" type="curve" smooth="yes"/>
			<point x="287" y="342" type="line" smooth="yes"/>
			<point x="287" y="447"/>
			<point x="287" y="551"/>
			<point x="290" y="652" type="curve"/>
			<point x="95" y="652" type="line"/>
			<point x="98" y="549"/>
			<point x="98" y="445"/>
			<point x="98" y="342" type="curve" smooth="yes"/>
			<point x="98" y="310" type="line" smooth="yes"/>
			<point x="98" y="205"/>
			<point x="98" y="101"/>
		</contour>
		<contour>
			<point x="28" y="0" type="line"/>
			<point x="342" y="0" type="line"/>
			<point x="342" y="35" type="line"/>
			<point x="212" y="50" type="line"/>
			<point x="179" y="50" type="line"/>
			<point x="28" y="35" type="line"/>
		</contour>
		<contour>
			<point x="28" y="617" type="line"/>
			<point x="179" y="602" type="line"/>
			<point x="212" y="602" type="line"/>
			<point x="357" y="617" type="line"/>
			<point x="357" y="652" type="line"/>
			<point x="28" y="652" type="line"/>
		</contour>
		<contour>
			<point x="401" y="0" type="line"/>
			<point x="703" y="0" type="line"/>
			<point x="703" y="35" type="line"/>
			<point x="567" y="50" type="line"/>
			<point x="541" y="50" type="line"/>
			<point x="401" y="35" type="line"/>
		</contour>
		<contour>
			<point x="433" y="617" type="line"/>
			<point x="527" y="602" type="line"/>
			<point x="560" y="602" type="line"/>
			<point x="665" y="617" type="line"/>
			<point x="665" y="652" type="line"/>
			<point x="433" y="652" type="line"/>
		</contour>
		<contour>
			<point x="187" y="152" type="line"/>
			<point x="609" y="652" type="line"/>
			<point x="554" y="652" type="line"/>
			<point x="240" y="260" type="line"/>
			<point x="211" y="222" type="line"/>
			<point x="187" y="222" type="line"/>
		</contour>
		<contour>
			<point x="465" y="0" type="line"/>
			<point x="682" y="0" type="line"/>
			<point x="438" y="463" type="line"/>
			<point x="314" y="318" type="line"/>
		</contour>
	</outline>
	<anchor name="aboveUC" x="368" y="682"/>
	<anchor name="belowLC" x="376" y="-22"/>
</glyph>
<glyph name="L" format="2">
	<unicode hex="004C"/>
	<advance width="574"/>
	<outline>
		<contour>
			<point x="28" y="0" type="line"/>
			<point x="197" y="0" type="line"/>
			<point x="198" y="50" type="line"/>
			<point x="180" y="50" type="line"/>
			<point x="29" y="35" type="line"/>
		</contour>
		<contour>
			<point x="95" y="0" type="curve"/>
			<point x="299" y="0" type="line"/>
			<point x="296" y="103"/>
			<point x="296" y="207"/>
			<point x="296" y="311" type="curve" smooth="yes"/>
			<point x="296" y="370" type="line" smooth="yes"/>
			<point x="296" y="447"/>
			<point x="296" y="551"/>
			<point x="299" y="652" type="curve"/>
			<point x="95" y="652" type="line"/>
			<point x="98" y="549"/>
			<point x="98" y="445"/>
			<point x="98" y="342" type="curve" smooth="yes"/>
			<point x="98" y="275" type="line" smooth="yes"/>
			<point x="98" y="205"/>
			<point x="98" y="101"/>
		</contour>
		<contour>
			<point x="197" y="0" type="line"/>
			<point x="554" y="0" type="line"/>
			<point x="549" y="209" type="line"/>
			<point x="491" y="209" type="line"/>
			<point x="428" y="0" type="line"/>
			<point x="522" y="38" type="line"/>
			<point x="198" y="38" type="line"/>
		</contour>
		<contour>
			<point x="28" y="617" type="line"/>
			<point x="179" y="602" type="line"/>
			<point x="222" y="602" type="line"/>
			<point x="377" y="617" type="line"/>
			<point x="377" y="652" type="line"/>
			<point x="28" y="652" type="line"/>
		</contour>
	</outline>
	<anchor name="aboveUC" x="202" y="672"/>
	<anchor name="belowLC" x="300" y="-20"/>
</glyph>
<glyph name="M" format="2">
	<unicode hex="004D"/>
	<advance width="893"/>
	<outline>
		<contour>
			<point x="10" y="0" type="line"/>
			<point x="259" y="0" type="line"/>
			<point x="259" y="35" type="line"/>
			<point x="150" y="50" type="line"/>
			<point x="125" y="50" type="line"/>
			<point x="10" y="35" type="line"/>
		</contour>
		<contour>
			<point x="32" y="617" type="line"/>
			<point x="163" y="602" type="line"/>
			<point x="181" y="602" type="line"/>
			<point x="181" y="652" type="line"/>
			<point x="32" y="652" type="line"/>
		</contour>
		<contour>
			<point x="108" y="0" type="line"/>
			<point x="160" y="0" type="line"/>
			<point x="160" y="272" type="line"/>
			<point x="154" y="652" type="line"/>
			<point x="113" y="652" type="line"/>
		</contour>
		<contour>
			<point x="351" y="0" type="line"/>
			<point x="412" y="0" type="line"/>
			<point x="608" y="566" type="line"/>
			<point x="621" y="602" type="line"/>
			<point x="658" y="602" type="line"/>
			<point x="658" y="652" type="line"/>
			<point x="596" y="652" type="line"/>
			<point x="450" y="231" type="line"/>
			<point x="443" y="211" type="line"/>
			<point x="471" y="211" type="line"/>
			<point x="313" y="652" type="line"/>
			<point x="127" y="652" type="line"/>
			<point x="127" y="602" type="line"/>
			<point x="135" y="602" type="line"/>
		</contour>
		<contour>
			<point x="528" y="0" type="line"/>
			<point x="866" y="0" type="line"/>
			<point x="866" y="35" type="line"/>
			<point x="712" y="50" type="line"/>
			<point x="679" y="50" type="line"/>
			<point x="528" y="35" type="line"/>
		</contour>
		<contour>
			<point x="594" y="0" type="curve"/>
			<point x="798" y="0" type="line"/>
			<point x="795" y="101"/>
			<point x="795" y="205"/>
			<point x="795" y="310" type="curve" smooth="yes"/>
			<point x="795" y="342" type="line" smooth="yes"/>
			<point x="795" y="445"/>
			<point x="795" y="549"/>
			<point x="798" y="652" type="curve"/>
			<point x="603" y="652" type="line"/>
			<point x="597" y="281" type="line" smooth="yes"/>
			<point x="596" y="207"/>
			<point x="597" y="103"/>
		</contour>
		<contour>
			<point x="696" y="602" type="line"/>
			<point x="714" y="602" type="line"/>
			<point x="861" y="617" type="line"/>
			<point x="861" y="652" type="line"/>
			<point x="696" y="652" type="line"/>
		</contour>
	</outline>
	<anchor name="aboveUC" x="447" y="672"/>
	<anchor name="belowLC" x="396" y="-20"/>
</glyph>
<glyph name="N" format="2">
	<unicode hex="004E"/>
	<advance width="725"/>
	<outline>
		<contour>
			<point x="24" y="0" type="line"/>
			<point x="277" y="0" type="line"/>
			<point x="277" y="35" type="line"/>
			<point x="148" y="50" type="line"/>
			<point x="116" y="50" type="line"/>
			<point x="24" y="35" type="line"/>
		</contour>
		<contour>
			<point x="109" y="0" type="line"/>
			<point x="163" y="0" type="line"/>
			<point x="163" y="160" type="line"/>
			<point x="147" y="624" type="line"/>
			<point x="109" y="624" type="line"/>
		</contour>
		<contour>
			<point x="448" y="617" type="line"/>
			<point x="578" y="602" type="line"/>
			<point x="609" y="602" type="line"/>
			<point x="701" y="617" type="line"/>
			<point x="701" y="652" type="line"/>
			<point x="448" y="652" type="line"/>
		</contour>
		<contour>
			<point x="511" y="0" type="line"/>
			<point x="616" y="0" type="line"/>
			<point x="616" y="652" type="line"/>
			<point x="570" y="652" type="line"/>
			<point x="570" y="455" type="line"/>
			<point x="575" y="215" type="line"/>
			<point x="593" y="221" type="line"/>
			<point x="289" y="652" type="line"/>
			<point x="34" y="652" type="line"/>
			<point x="34" y="617" type="line"/>
			<point x="86" y="609" type="line"/>
			<point x="132" y="543" type="line"/>
			<point x="135" y="538" type="line"/>
		</contour>
	</outline>
	<anchor name="aboveUC" x="357" y="672"/>
	<anchor name="belowLC" x="383" y="-20"/>
</glyph>
<glyph name="P" format="2">
	<unicode hex="0050"/>
	<advance width="622"/>
	<outline>
		<contour>
			<point x="28" y="0" type="line"/>
			<point x="386" y="0" type="line"/>
			<point x="386" y="35" type="line"/>
			<point x="235" y="50" type="line"/>
			<point x="179" y="50" type="line"/>
			<point x="28" y="35" type="line"/>
		</contour>
		<contour>
			<point x="95" y="0" type="curve"/>
			<point x="299" y="0" type="line"/>
			<point x="296" y="103"/>
			<point x="296" y="207"/>
			<point x="296" y="281" type="curve" smooth="yes"/>
			<point x="296" y="342" type="line" smooth="yes"/>
			<point x="296" y="447"/>
			<point x="296" y="551"/>
			<point x="299" y="652" type="curve"/>
			<point x="95" y="652" type="line"/>
			<point x="98" y="549"/>
			<point x="98" y="445"/>
			<point x="98" y="342" type="curve" smooth="yes"/>
			<point x="98" y="310" type="line" smooth="yes"/>
			<point x="98" y="205"/>
			<point x="98" y="101"/>
		</contour>
		<contour>
			<point x="196" y="256" type="line"/>
			<point x="314" y="256" type="line" smooth="yes"/>
			<point x="536" y="256"/>
			<point x="608" y="346"/>
			<point x="608" y="455" type="curve" smooth="yes"/>
			<point x="608" y="582"/>
			<point x="526" y="652"/>
			<point x="301" y="652" type="curve" smooth="yes"/>
			<point x="197" y="652" type="line"/>
			<point x="197" y="614" type="line"/>
			<point x="306" y="614" type="line" smooth="yes"/>
			<point x="380" y="614"/>
			<point x="427" y="562"/>
			<point x="427" y="456" type="curve" smooth="yes"/>
			<point x="427" y="359"/>
			<point x="385" y="294"/>
			<point x="310" y="294" type="curve" smooth="yes"/>
			<point x="196" y="294" type="line"/>
		</contour>
		<contour>
			<point x="28" y="617" type="line"/>
			<point x="179" y="602" type="line"/>
			<point x="197" y="602" type="line"/>
			<point x="197" y="652" type="line"/>
			<point x="28" y="652" type="line"/>
		</contour>
	</outline>
	<anchor name="aboveUC" x="330" y="672"/>
	<anchor name="belowLC" x="200" y="-20"/>
</glyph>
<glyph name="Q" format="2">
	<unicode hex="0051"/>
	<advance width="700"/>
	<outline>
		<contour>
			<point x="493" y="-202" type="curve" smooth="yes"/>
			<point x="548" y="-202"/>
			<point x="597" y="-189"/>
			<point x="632" y="-167" type="curve"/>
			<point x="618" y="-137" type="line"/>
			<point x="598" y="-147"/>
			<point x="580" y="-149"/>
			<point x="559" y="-149" type="curve" smooth="yes"/>
			<point x="475" y="-149"/>
			<point x="425" y="-88"/>
			<point x="441" y="7" type="curve"/>
			<point x="253" y="7" type="line"/>
			<point x="253" y="2" type="line" smooth="yes"/>
			<point x="253" y="-111"/>
			<point x="332" y="-202"/>
		</contour>
		<component base="O"/>
	</outline>
	<anchor name="aboveUC" x="350" y="672"/>
</glyph>
<glyph name="U" format="2">
	<unicode hex="0055"/>
	<advance width="732"/>
	<outline>
		<contour>
			<point x="366" y="-20" type="curve" smooth="yes"/>
			<point x="528" y="-20"/>
			<point x="617" y="74"/>
			<point x="620" y="287" type="curve" smooth="yes"/>
			<point x="625" y="652" type="line"/>
			<point x="571" y="652" type="line"/>
			<point x="576" y="277" type="line" smooth="yes"/>
			<point x="578" y="130"/>
			<point x="520" y="69"/>
			<point x="434" y="69" type="curve" smooth="yes"/>
			<point x="337" y="69"/>
			<point x="293" y="127"/>
			<point x="293" y="280" type="curve" smooth="yes"/>
			<point x="293" y="356" type="line" smooth="yes"/>
			<point x="293" y="455"/>
			<point x="293" y="555"/>
			<point x="296" y="652" type="curve"/>
			<point x="92" y="652" type="line"/>
			<point x="95" y="553"/>
			<point x="95" y="453"/>
			<point x="95" y="356" type="curve" smooth="yes"/>
			<point x="95" y="265" type="line" smooth="yes"/>
			<point x="95" y="50"/>
			<point x="209" y="-20"/>
		</contour>
		<contour>
			<point x="25" y="617" type="line"/>
			<point x="181" y="602" type="line"/>
			<point x="213" y="602" type="line"/>
			<point x="369" y="617" type="line"/>
			<point x="369" y="652" type="line"/>
			<point x="25" y="652" type="line"/>
		</contour>
		<contour>
			<point x="478" y="617" type="line"/>
			<point x="583" y="602" type="line"/>
			<point x="616" y="602" type="line"/>
			<point x="716" y="617" type="line"/>
			<point x="716" y="652" type="line"/>
			<point x="478" y="652" type="line"/>
		</contour>
	</outline>
	<anchor name="aboveUC" x="422" y="672"/>
	<anchor name="belowLC" x="386" y="-20"/>
	<anchor name="hornLC" x="618" y="574"/>
	<anchor name="ogonek" x="455" y="0"/>
</glyph>
<glyph name="V" format="2">
	<unicode hex="0056"/>
	<advance width="656"/>
	<outline>
		<contour>
			<point x="263" y="0" type="line"/>
			<point x="373" y="0" type="line"/>
			<point x="608" y="652" type="line"/>
			<point x="548" y="652" type="line"/>
			<point x="394" y="173" type="line"/>
			<point x="391" y="162" type="line"/>
			<point x="403" y="162" type="line"/>
			<point x="246" y="652" type="line"/>
			<point x="33" y="652" type="line"/>
		</contour>
		<contour>
			<point x="5" y="617" type="line"/>
			<point x="156" y="602" type="line"/>
			<point x="197" y="602" type="line"/>
			<point x="348" y="622" type="line"/>
			<point x="348" y="652" type="line"/>
			<point x="5" y="652" type="line"/>
		</contour>
		<contour>
			<point x="445" y="622" type="line"/>
			<point x="554" y="602" type="line"/>
			<point x="567" y="602" type="line"/>
			<point x="656" y="622" type="line"/>
			<point x="656" y="652" type="line"/>
			<point x="445" y="652" type="line"/>
		</contour>
	</outline>
	<anchor name="aboveUC" x="394" y="672"/>
	<anchor name="belowLC" x="331" y="-20"/>
</glyph>
<glyph name="W" format="2">
	<unicode hex="0057"/>
	<advance width="989"/>
	<outline>
		<contour>
			<point x="236" y="0" type="line"/>
			<point x="346" y="0" type="line"/>
			<point x="484" y="464" type="line"/>
			<point x="488" y="477" type="line"/>
			<point x="470" y="477" type="line"/>
			<point x="613" y="0" type="line"/>
			<point x="723" y="0" type="line"/>
			<point x="930" y="652" type="line"/>
			<point x="870" y="652" type="line"/>
			<point x="735" y="174" type="line"/>
			<point x="731" y="159" type="line"/>
			<point x="747" y="159" type="line"/>
			<point x="614" y="652" type="line"/>
			<point x="490" y="652" type="line"/>
			<point x="359" y="177" type="line"/>
			<point x="355" y="164" type="line"/>
			<point x="370" y="164" type="line"/>
			<point x="248" y="652" type="line"/>
			<point x="38" y="652" type="line"/>
		</contour>
		<contour>
			<point x="5" y="617" type="line"/>
			<point x="150" y="602" type="line"/>
			<point x="189" y="602" type="line"/>
			<point x="331" y="617" type="line"/>
			<point x="331" y="652" type="line"/>
			<point x="5" y="652" type="line"/>
		</contour>
		<contour>
			<point x="404" y="617" type="line"/>
			<point x="514" y="602" type="line"/>
			<point x="590" y="602" type="line"/>
			<point x="715" y="617" type="line"/>
			<point x="715" y="652" type="line"/>
			<point x="404" y="652" type="line"/>
		</contour>
		<contour>
			<point x="784" y="617" type="line"/>
			<point x="873" y="602" type="line"/>
			<point x="902" y="602" type="line"/>
			<point x="989" y="617" type="line"/>
			<point x="989" y="652" type="line"/>
			<point x="784" y="652" type="line"/>
		</contour>
	</outline>
	<anchor name="aboveUC" x="553" y="682"/>
	<anchor name="belowLC" x="492" y="-22"/>
</glyph>
<glyph name="X" format="2">
	<unicode hex="0058"/>
	<advance width="657"/>
	<outline>
		<contour>
			<point x="5" y="0" type="line"/>
			<point x="212" y="0" type="line"/>
			<point x="212" y="34" type="line"/>
			<point x="127" y="49" type="line"/>
			<point x="101" y="50" type="line"/>
			<point x="5" y="35" type="line"/>
		</contour>
		<contour>
			<point x="56" y="0" type="line"/>
			<point x="118" y="0" type="line"/>
			<point x="292" y="299" type="line"/>
			<point x="316" y="341" type="line"/>
			<point x="322" y="341" type="line"/>
			<point x="291" y="355" type="line"/>
		</contour>
		<contour>
			<point x="302" y="0" type="line"/>
			<point x="651" y="0" type="line"/>
			<point x="651" y="35" type="line"/>
			<point x="508" y="50" type="line"/>
			<point x="453" y="50" type="line"/>
			<point x="302" y="35" type="line"/>
		</contour>
		<contour>
			<point x="365" y="349" type="line"/>
			<point x="560" y="652" type="line"/>
			<point x="502" y="652" type="line"/>
			<point x="360" y="401" type="line"/>
			<point x="337" y="359" type="line"/>
			<point x="331" y="359" type="line"/>
		</contour>
		<contour>
			<point x="404" y="0" type="line"/>
			<point x="617" y="0" type="line"/>
			<point x="249" y="652" type="line"/>
			<point x="36" y="652" type="line"/>
		</contour>
		<contour>
			<point x="11" y="617" type="line"/>
			<point x="150" y="602" type="line"/>
			<point x="212" y="602" type="line"/>
			<point x="348" y="617" type="line"/>
			<point x="348" y="652" type="line"/>
			<point x="11" y="652" type="line"/>
		</contour>
		<contour>
			<point x="412" y="617" type="line"/>
			<point x="494" y="605" type="line"/>
			<point x="521" y="605" type="line"/>
			<point x="613" y="617" type="line"/>
			<point x="613" y="652" type="line"/>
			<point x="412" y="652" type="line"/>
		</contour>
	</outline>
	<anchor name="aboveUC" x="372" y="672"/>
	<anchor name="belowLC" x="275" y="-20"/>
</glyph>
<glyph name="Y" format="2">
	<unicode hex="0059"/>
	<advance width="621"/>
	<outline>
		<contour>
			<point x="285" y="50" type="line"/>
			<point x="134" y="35" type="line"/>
			<point x="134" y="0" type="line"/>
			<point x="493" y="0" type="line"/>
			<point x="493" y="35" type="line"/>
			<point x="338" y="50" type="line"/>
		</contour>
		<contour>
			<point x="165" y="602" type="line"/>
			<point x="218" y="602" type="line"/>
			<point x="344" y="617" type="line"/>
			<point x="344" y="652" type="line"/>
			<point x="5" y="652" type="line"/>
			<point x="5" y="617" type="line"/>
		</contour>
		<contour>
			<point x="546" y="602" type="line"/>
			<point x="631" y="617" type="line"/>
			<point x="631" y="652" type="line"/>
			<point x="433" y="652" type="line"/>
			<point x="433" y="617" type="line"/>
			<point x="521" y="602" type="line"/>
		</contour>
		<contour>
			<point x="211" y="0" type="curve"/>
			<point x="415" y="0" type="line"/>
			<point x="412" y="93"/>
			<point x="412" y="148"/>
			<point x="412" y="313" type="curve"/>
			<point x="214" y="313" type="line"/>
			<point x="214" y="146"/>
			<point x="214" y="91"/>
		</contour>
		<contour>
			<point x="371" y="211" type="line"/>
			<point x="589" y="652" type="line"/>
			<point x="529" y="652" type="line"/>
			<point x="375" y="299" type="line"/>
			<point x="403" y="299" type="line"/>
			<point x="247" y="652" type="line"/>
			<point x="21" y="652" type="line"/>
			<point x="236" y="211" type="line"/>
		</contour>
	</outline>
	<anchor name="aboveUC" x="357" y="682"/>
	<anchor name="belowLC" x="310" y="-22"/>
</glyph>
<glyph name="Z" format="2">
	<unicode hex="005A"/>
	<advance width="568"/>
	<outline>
		<contour>
			<point x="20" y="0" type="line"/>
			<point x="540" y="0" type="line"/>
			<point x="542" y="209" type="line"/>
			<point x="484" y="209" type="line"/>
			<point x="416" y="10" type="line"/>
			<point x="456" y="38" type="line"/>
			<point x="347" y="38" type="line"/>
			<point x="225" y="38" type="line"/>
			<point x="225" y="69" type="line"/>
			<point x="218" y="12" type="line"/>
			<point x="542" y="602" type="line"/>
			<point x="542" y="652" type="line"/>
			<point x="43" y="652" type="line"/>
			<point x="32" y="453" type="line"/>
			<point x="98" y="453" type="line"/>
			<point x="160" y="642" type="line"/>
			<point x="121" y="614" type="line"/>
			<point x="222" y="614" type="line"/>
			<point x="334" y="614" type="line"/>
			<point x="334" y="597" type="line"/>
			<point x="343" y="638" type="line"/>
			<point x="20" y="50" type="line"/>
		</contour>
	</outline>
	<anchor name="aboveUC" x="289" y="672"/>
	<anchor name="belowLC" x="292" y="-20"/>
</glyph>
<glyph name="underscore" format="2">
	<unicode hex="005F"/>
	<advance width="550"/>
	<outline>
		<contour>
			<point x="-5" y="-95" type="line"/>
			<point x="555" y="-95" type="line"/>
			<point x="555" y="5" type="line"/>
			<point x="-5" y="5" type="line"/>
		</contour>
	</outline>
</glyph>
<glyph name="b" format="2">
	<unicode hex="0062"/>
	<advance width="623"/>
	<outline>
		<contour>
			<point x="28" y="0" type="line"/>
			<point x="233" y="-16" type="line"/>
			<point x="264" y="63" type="line"/>
			<point x="264" y="66" type="line"/>
			<point x="264" y="428" type="line"/>
			<point x="261" y="437" type="line"/>
			<point x="261" y="571" type="line"/>
			<point x="264" y="712" type="line"/>
			<point x="252" y="721" type="line"/>
			<point x="20" y="676" type="line"/>
			<point x="20" y="651" type="line"/>
			<point x="74" y="644" type="line"/>
			<point x="74" y="210" type="line" smooth="yes"/>
			<point x="74" y="161"/>
			<point x="73" y="86"/>
			<point x="72" y="35" type="curve"/>
			<point x="28" y="30" type="line"/>
		</contour>
		<contour>
			<point x="270" y="20"/>
			<point x="322" y="-16"/>
			<point x="392" y="-16" type="curve" smooth="yes"/>
			<point x="512" y="-16"/>
			<point x="601" y="101"/>
			<point x="601" y="244" type="curve" smooth="yes"/>
			<point x="601" y="419"/>
			<point x="513" y="503"/>
			<point x="403" y="503" type="curve" smooth="yes"/>
			<point x="331" y="503"/>
			<point x="272" y="471"/>
			<point x="226" y="407" type="curve"/>
			<point x="196" y="407" type="line"/>
			<point x="209" y="373" type="line"/>
			<point x="254" y="421"/>
			<point x="276" y="427"/>
			<point x="306" y="427" type="curve" smooth="yes"/>
			<point x="360" y="427"/>
			<point x="399" y="385"/>
			<point x="399" y="249" type="curve" smooth="yes"/>
			<point x="399" y="89"/>
			<point x="355" y="63"/>
			<point x="303" y="63" type="curve" smooth="yes"/>
			<point x="279" y="63"/>
			<point x="263" y="71"/>
			<point x="244" y="93" type="curve"/>
			<point x="221" y="81" type="line"/>
			<point x="233" y="81" type="line"/>
		</contour>
	</outline>
	<anchor name="aboveLC" x="170" y="721"/>
	<anchor name="belowLC" x="290" y="-20"/>
</glyph>
<glyph name="c" format="2">
	<unicode hex="0063"/>
	<advance width="523"/>
	<outline>
		<contour>
			<point x="281" y="-16" type="curve" smooth="yes"/>
			<point x="388" y="-16"/>
			<point x="452" y="21"/>
			<point x="497" y="112" type="curve"/>
			<point x="476" y="126" type="line"/>
			<point x="453" y="88"/>
			<point x="416" y="63"/>
			<point x="368" y="63" type="curve" smooth="yes"/>
			<point x="278" y="63"/>
			<point x="222" y="136"/>
			<point x="222" y="262" type="curve" smooth="yes"/>
			<point x="222" y="398"/>
			<point x="271" y="469"/>
			<point x="337" y="469" type="curve" smooth="yes"/>
			<point x="364" y="469"/>
			<point x="387" y="462"/>
			<point x="417" y="449" type="curve"/>
			<point x="334" y="492" type="line"/>
			<point x="337" y="407" type="line" smooth="yes"/>
			<point x="340" y="319"/>
			<point x="381" y="293"/>
			<point x="426" y="293" type="curve" smooth="yes"/>
			<point x="463" y="293"/>
			<point x="486" y="311"/>
			<point x="499" y="351" type="curve"/>
			<point x="494" y="432"/>
			<point x="415" y="503"/>
			<point x="308" y="503" type="curve" smooth="yes"/>
			<point x="147" y="503"/>
			<point x="22" y="413"/>
			<point x="22" y="235" type="curve" smooth="yes"/>
			<point x="22" y="70"/>
			<point x="145" y="-16"/>
		</contour>
	</outline>
	<anchor name="aboveLC" x="296" y="507"/>
	<anchor name="baseLC" x="288" y="0"/>
	<anchor name="belowLC" x="286" y="-20"/>
</glyph>
<glyph name="d" format="2">
	<unicode hex="0064"/>
	<advance width="605"/>
	<outline>
		<contour>
			<point x="22" y="72"/>
			<point x="116" y="-16"/>
			<point x="230" y="-16" type="curve" smooth="yes"/>
			<point x="297" y="-16"/>
			<point x="351" y="19"/>
			<point x="388" y="71" type="curve"/>
			<point x="402" y="71" type="line"/>
			<point x="379" y="84" type="line"/>
			<point x="363" y="70"/>
			<point x="343" y="63"/>
			<point x="322" y="63" type="curve" smooth="yes"/>
			<point x="265" y="63"/>
			<point x="224" y="107"/>
			<point x="224" y="249" type="curve" smooth="yes"/>
			<point x="224" y="391"/>
			<point x="269" y="427"/>
			<point x="324" y="427" type="curve" smooth="yes"/>
			<point x="344" y="427"/>
			<point x="363" y="420"/>
			<point x="380" y="402" type="curve"/>
			<point x="400" y="412" type="line"/>
			<point x="390" y="412" type="line"/>
			<point x="355" y="471"/>
			<point x="314" y="503"/>
			<point x="244" y="503" type="curve" smooth="yes"/>
			<point x="124" y="503"/>
			<point x="22" y="411"/>
			<point x="22" y="240" type="curve" smooth="yes"/>
		</contour>
		<contour>
			<point x="581" y="0" type="line"/>
			<point x="581" y="30" type="line"/>
			<point x="457" y="40" type="line"/>
			<point x="545" y="0" type="line"/>
			<point x="545" y="571" type="line"/>
			<point x="548" y="712" type="line"/>
			<point x="536" y="721" type="line"/>
			<point x="298" y="676" type="line"/>
			<point x="298" y="651" type="line"/>
			<point x="362" y="643" type="line"/>
			<point x="362" y="439" type="line"/>
			<point x="355" y="429" type="line"/>
			<point x="355" y="59" type="line"/>
			<point x="369" y="-12" type="line"/>
		</contour>
	</outline>
	<anchor name="aboveLC" x="434" y="721"/>
	<anchor name="belowLC" x="319" y="-20"/>
</glyph>
<glyph name="e" format="2">
	<unicode hex="0065"/>
	<advance width="526"/>
	<outline>
		<contour>
			<point x="289" y="-16" type="curve" smooth="yes"/>
			<point x="388" y="-16"/>
			<point x="462" y="29"/>
			<point x="498" y="114" type="curve"/>
			<point x="477" y="128" type="line"/>
			<point x="453" y="89"/>
			<point x="420" y="63"/>
			<point x="360" y="63" type="curve" smooth="yes"/>
			<point x="283" y="63"/>
			<point x="222" y="119"/>
			<point x="222" y="262" type="curve" smooth="yes"/>
			<point x="222" y="423"/>
			<point x="246" y="469"/>
			<point x="278" y="469" type="curve" smooth="yes"/>
			<point x="305" y="469"/>
			<point x="330" y="442"/>
			<point x="330" y="365" type="curve" smooth="yes"/>
			<point x="330" y="299"/>
			<point x="317" y="278"/>
			<point x="269" y="278" type="curve" smooth="yes"/>
			<point x="101" y="278" type="line"/>
			<point x="101" y="241" type="line"/>
			<point x="501" y="241" type="line"/>
			<point x="505" y="259"/>
			<point x="506" y="273"/>
			<point x="506" y="294" type="curve" smooth="yes"/>
			<point x="506" y="409"/>
			<point x="434" y="503"/>
			<point x="291" y="503" type="curve" smooth="yes"/>
			<point x="160" y="503"/>
			<point x="22" y="419"/>
			<point x="22" y="247" type="curve" smooth="yes"/>
			<point x="22" y="82"/>
			<point x="132" y="-16"/>
		</contour>
	</outline>
	<anchor name="aboveLC" x="281" y="507"/>
	<anchor name="belowLC" x="289" y="-20"/>
	<anchor name="ogonek" x="369" y="0"/>
</glyph>
<glyph name="f" format="2">
	<unicode hex="0066"/>
	<advance width="365"/>
	<outline>
		<contour>
			<point x="27" y="0" type="line"/>
			<point x="337" y="0" type="line"/>
			<point x="337" y="30" type="line"/>
			<point x="254" y="40" type="line"/>
			<point x="120" y="40" type="line"/>
			<point x="27" y="30" type="line"/>
		</contour>
		<contour>
			<point x="74" y="140"/>
			<point x="73" y="70"/>
			<point x="71" y="0" type="curve"/>
			<point x="267" y="0" type="line"/>
			<point x="265" y="70"/>
			<point x="264" y="140"/>
			<point x="264" y="210" type="curve" smooth="yes"/>
			<point x="264" y="462" type="line"/>
			<point x="256" y="561"/>
			<point x="257" y="636"/>
			<point x="289" y="688" type="curve" smooth="yes"/>
			<point x="294" y="696"/>
			<point x="310" y="707"/>
			<point x="331" y="712" type="curve"/>
			<point x="331" y="718" type="line"/>
			<point x="284" y="718" type="line"/>
			<point x="284" y="710" type="line"/>
			<point x="301" y="663" type="line" smooth="yes"/>
			<point x="324" y="598"/>
			<point x="354" y="577"/>
			<point x="396" y="577" type="curve" smooth="yes"/>
			<point x="444" y="577"/>
			<point x="472" y="609"/>
			<point x="472" y="652" type="curve"/>
			<point x="459" y="712"/>
			<point x="402" y="731"/>
			<point x="343" y="731" type="curve" smooth="yes"/>
			<point x="281" y="731"/>
			<point x="221" y="712"/>
			<point x="165" y="663" type="curve" smooth="yes"/>
			<point x="127" y="630"/>
			<point x="88" y="579"/>
			<point x="76" y="474" type="curve"/>
			<point x="74" y="459" type="line"/>
			<point x="138" y="493" type="line"/>
			<point x="17" y="478" type="line"/>
			<point x="17" y="446" type="line"/>
			<point x="74" y="446" type="line"/>
			<point x="74" y="210" type="line" smooth="yes"/>
		</contour>
		<contour>
			<point x="170" y="446" type="line"/>
			<point x="356" y="446" type="line"/>
			<point x="356" y="487" type="line"/>
			<point x="170" y="487" type="line"/>
		</contour>
	</outline>
	<anchor name="aboveLC" x="293" y="740"/>
	<anchor name="belowLC" x="172" y="-22"/>
</glyph>
<glyph name="g" format="2">
	<unicode hex="0067"/>
	<advance width="553"/>
	<outline>
		<contour>
			<point x="7" y="-167"/>
			<point x="45" y="-222"/>
			<point x="224" y="-222" type="curve" smooth="yes"/>
			<point x="419" y="-222"/>
			<point x="536" y="-123"/>
			<point x="536" y="-20" type="curve" smooth="yes"/>
			<point x="536" y="59"/>
			<point x="482" y="123"/>
			<point x="313" y="123" type="curve" smooth="yes"/>
			<point x="190" y="123" type="line" smooth="yes"/>
			<point x="146" y="123"/>
			<point x="127" y="135"/>
			<point x="127" y="161" type="curve" smooth="yes"/>
			<point x="127" y="183"/>
			<point x="131" y="199"/>
			<point x="143" y="221" type="curve"/>
			<point x="128" y="229" type="line"/>
			<point x="128" y="221" type="line"/>
			<point x="51" y="177"/>
			<point x="30" y="130"/>
			<point x="30" y="83" type="curve" smooth="yes"/>
			<point x="30" y="38"/>
			<point x="58" y="5"/>
			<point x="107" y="-12" type="curve"/>
			<point x="107" y="-16" type="line"/>
			<point x="141" y="-29"/>
			<point x="168" y="-29"/>
			<point x="240" y="-29" type="curve" smooth="yes"/>
			<point x="327" y="-29" type="line" smooth="yes"/>
			<point x="374" y="-29"/>
			<point x="390" y="-60"/>
			<point x="390" y="-82" type="curve" smooth="yes"/>
			<point x="390" y="-145"/>
			<point x="338" y="-177"/>
			<point x="225" y="-177" type="curve" smooth="yes"/>
			<point x="151" y="-177"/>
			<point x="108" y="-142"/>
			<point x="108" y="-80" type="curve" smooth="yes"/>
			<point x="108" y="-47"/>
			<point x="120" y="-30"/>
			<point x="134" y="-3" type="curve"/>
			<point x="131" y="-1" type="line"/>
			<point x="47" y="-22"/>
			<point x="7" y="-66"/>
			<point x="7" y="-111" type="curve" smooth="yes"/>
		</contour>
		<contour>
			<point x="28" y="258"/>
			<point x="91" y="186"/>
			<point x="249" y="186" type="curve" smooth="yes"/>
			<point x="407" y="186"/>
			<point x="470" y="258"/>
			<point x="470" y="341" type="curve" smooth="yes"/>
			<point x="470" y="377"/>
			<point x="460" y="410"/>
			<point x="438" y="437" type="curve"/>
			<point x="434" y="442" type="line"/>
			<point x="400" y="479"/>
			<point x="340" y="503"/>
			<point x="249" y="503" type="curve" smooth="yes"/>
			<point x="91" y="503"/>
			<point x="28" y="431"/>
			<point x="28" y="341" type="curve" smooth="yes"/>
		</contour>
		<contour>
			<point x="305" y="261"/>
			<point x="289" y="216"/>
			<point x="249" y="216" type="curve" smooth="yes"/>
			<point x="209" y="216"/>
			<point x="195" y="261"/>
			<point x="195" y="341" type="curve" smooth="yes"/>
			<point x="195" y="427"/>
			<point x="212" y="473"/>
			<point x="249" y="473" type="curve" smooth="yes"/>
			<point x="286" y="473"/>
			<point x="305" y="427"/>
			<point x="305" y="341" type="curve" smooth="yes"/>
		</contour>
		<contour>
			<point x="400" y="433" type="line"/>
			<point x="548" y="413" type="line"/>
			<point x="548" y="496" type="line"/>
			<point x="532" y="506" type="line"/>
			<point x="406" y="448" type="line"/>
			<point x="400" y="448" type="line"/>
		</contour>
	</outline>
	<anchor name="aboveLC" x="267" y="507"/>
	<anchor name="belowLC" x="258" y="-232"/>
</glyph>
<glyph name="h" format="2">
	<unicode hex="0068"/>
	<advance width="624"/>
	<outline>
		<contour>
			<point x="410" y="503" type="curve" smooth="yes"/>
			<point x="325" y="503"/>
			<point x="287" y="464"/>
			<point x="214" y="361" type="curve"/>
			<point x="250" y="393" type="line"/>
			<point x="179" y="393" type="line"/>
			<point x="179" y="341" type="line"/>
			<point x="214" y="341" type="line"/>
			<point x="249" y="389"/>
			<point x="292" y="422"/>
			<point x="326" y="422" type="curve" smooth="yes"/>
			<point x="355" y="422"/>
			<point x="374" y="403"/>
			<point x="374" y="349" type="curve" smooth="yes"/>
			<point x="374" y="210" type="line" smooth="yes"/>
			<point x="374" y="146"/>
			<point x="373" y="45"/>
			<point x="371" y="0" type="curve"/>
			<point x="567" y="0" type="line"/>
			<point x="565" y="45"/>
			<point x="564" y="146"/>
			<point x="564" y="210" type="curve" smooth="yes"/>
			<point x="564" y="333" type="line" smooth="yes"/>
			<point x="564" y="449"/>
			<point x="500" y="503"/>
		</contour>
		<contour>
			<point x="413" y="40" type="line"/>
			<point x="330" y="30" type="line"/>
			<point x="330" y="0" type="line"/>
			<point x="607" y="0" type="line"/>
			<point x="607" y="30" type="line"/>
			<point x="510" y="40" type="line"/>
		</contour>
		<contour>
			<point x="211" y="40" type="line"/>
			<point x="113" y="40" type="line"/>
			<point x="27" y="30" type="line"/>
			<point x="27" y="0" type="line"/>
			<point x="303" y="0" type="line"/>
			<point x="303" y="30" type="line"/>
		</contour>
		<contour>
			<point x="74" y="210" type="line" smooth="yes"/>
			<point x="74" y="148"/>
			<point x="73" y="45"/>
			<point x="71" y="0" type="curve"/>
			<point x="267" y="0" type="line"/>
			<point x="265" y="45"/>
			<point x="264" y="148"/>
			<point x="264" y="210" type="curve" smooth="yes"/>
			<point x="264" y="406" type="line"/>
			<point x="261" y="419" type="line"/>
			<point x="261" y="571" type="line"/>
			<point x="264" y="712" type="line"/>
			<point x="252" y="721" type="line"/>
			<point x="20" y="676" type="line"/>
			<point x="20" y="651" type="line"/>
			<point x="74" y="644" type="line"/>
		</contour>
	</outline>
	<anchor name="aboveLC" x="152" y="710"/>
	<anchor name="belowLC" x="326" y="-22"/>
</glyph>
<glyph name="k" format="2">
	<unicode hex="006B"/>
	<advance width="619"/>
	<outline>
		<contour>
			<point x="27" y="0" type="line"/>
			<point x="308" y="0" type="line"/>
			<point x="308" y="30" type="line"/>
			<point x="211" y="40" type="line"/>
			<point x="113" y="40" type="line"/>
			<point x="27" y="30" type="line"/>
		</contour>
		<contour>
			<point x="74" y="155"/>
			<point x="73" y="32"/>
			<point x="71" y="0" type="curve"/>
			<point x="267" y="0" type="line"/>
			<point x="265" y="32"/>
			<point x="264" y="155"/>
			<point x="264" y="220" type="curve" smooth="yes"/>
			<point x="264" y="571" type="line"/>
			<point x="267" y="712" type="line"/>
			<point x="255" y="721" type="line"/>
			<point x="20" y="676" type="line"/>
			<point x="20" y="651" type="line"/>
			<point x="74" y="644" type="line"/>
			<point x="74" y="210" type="line" smooth="yes"/>
		</contour>
		<contour>
			<point x="165" y="149" type="line"/>
			<point x="550" y="487" type="line"/>
			<point x="485" y="487" type="line"/>
			<point x="327" y="338" type="line"/>
			<point x="172" y="191" type="line"/>
			<point x="165" y="191" type="line"/>
		</contour>
		<contour>
			<point x="385" y="0" type="line"/>
			<point x="617" y="0" type="line"/>
			<point x="617" y="30" type="line"/>
			<point x="568" y="37" type="line"/>
			<point x="413" y="376" type="line"/>
			<point x="280" y="259" type="line"/>
		</contour>
		<contour>
			<point x="356" y="457" type="line"/>
			<point x="469" y="444" type="line"/>
			<point x="489" y="447" type="line"/>
			<point x="590" y="457" type="line"/>
			<point x="590" y="487" type="line"/>
			<point x="356" y="487" type="line"/>
		</contour>
	</outline>
	<anchor name="aboveLC" x="170" y="721"/>
	<anchor name="belowLC" x="327" y="-20"/>
</glyph>
<glyph name="m" format="2">
	<unicode hex="006D"/>
	<advance width="910"/>
	<outline>
		<contour>
			<point x="23" y="0" type="line"/>
			<point x="299" y="0" type="line"/>
			<point x="299" y="30" type="line"/>
			<point x="207" y="40" type="line"/>
			<point x="109" y="40" type="line"/>
			<point x="23" y="30" type="line"/>
		</contour>
		<contour>
			<point x="70" y="148"/>
			<point x="69" y="45"/>
			<point x="67" y="0" type="curve"/>
			<point x="263" y="0" type="line"/>
			<point x="261" y="45"/>
			<point x="260" y="148"/>
			<point x="260" y="210" type="curve" smooth="yes"/>
			<point x="260" y="399" type="line"/>
			<point x="260" y="403" type="line"/>
			<point x="252" y="494" type="line"/>
			<point x="240" y="503" type="line"/>
			<point x="13" y="434" type="line"/>
			<point x="13" y="414" type="line"/>
			<point x="67" y="405" type="line"/>
			<point x="70" y="365"/>
			<point x="70" y="348"/>
			<point x="70" y="293" type="curve" smooth="yes"/>
			<point x="70" y="210" type="line" smooth="yes"/>
		</contour>
		<contour>
			<point x="326" y="0" type="line"/>
			<point x="595" y="0" type="line"/>
			<point x="595" y="30" type="line"/>
			<point x="506" y="40" type="line"/>
			<point x="406" y="40" type="line"/>
			<point x="326" y="30" type="line"/>
		</contour>
		<contour>
			<point x="370" y="146"/>
			<point x="369" y="45"/>
			<point x="367" y="0" type="curve"/>
			<point x="559" y="0" type="line"/>
			<point x="557" y="45"/>
			<point x="556" y="146"/>
			<point x="556" y="210" type="curve" smooth="yes"/>
			<point x="556" y="336" type="line" smooth="yes"/>
			<point x="556" y="445"/>
			<point x="504" y="503"/>
			<point x="406" y="503" type="curve" smooth="yes"/>
			<point x="328" y="503"/>
			<point x="278" y="461"/>
			<point x="234" y="393" type="curve"/>
			<point x="213" y="393" type="line"/>
			<point x="213" y="336" type="line"/>
			<point x="235" y="373"/>
			<point x="281" y="421"/>
			<point x="322" y="421" type="curve" smooth="yes"/>
			<point x="360" y="421"/>
			<point x="370" y="397"/>
			<point x="370" y="336" type="curve" smooth="yes"/>
			<point x="370" y="210" type="line" smooth="yes"/>
		</contour>
		<contour>
			<point x="625" y="0" type="line"/>
			<point x="893" y="0" type="line"/>
			<point x="893" y="30" type="line"/>
			<point x="801" y="40" type="line"/>
			<point x="698" y="40" type="line"/>
			<point x="625" y="30" type="line"/>
		</contour>
		<contour>
			<point x="664" y="146"/>
			<point x="663" y="45"/>
			<point x="661" y="0" type="curve"/>
			<point x="853" y="0" type="line"/>
			<point x="851" y="45"/>
			<point x="850" y="146"/>
			<point x="850" y="210" type="curve" smooth="yes"/>
			<point x="850" y="325" type="line" smooth="yes"/>
			<point x="850" y="442"/>
			<point x="806" y="503"/>
			<point x="697" y="503" type="curve" smooth="yes"/>
			<point x="630" y="503"/>
			<point x="581" y="476"/>
			<point x="531" y="400" type="curve"/>
			<point x="505" y="400" type="line"/>
			<point x="505" y="336" type="line"/>
			<point x="539" y="384"/>
			<point x="576" y="421"/>
			<point x="618" y="421" type="curve" smooth="yes"/>
			<point x="652" y="421"/>
			<point x="664" y="404"/>
			<point x="664" y="336" type="curve" smooth="yes"/>
			<point x="664" y="210" type="line" smooth="yes"/>
		</contour>
	</outline>
	<anchor name="aboveLC" x="460" y="507"/>
	<anchor name="belowLC" x="463" y="-20"/>
</glyph>
<glyph name="n" format="2">
	<unicode hex="006E"/>
	<advance width="620"/>
	<outline>
		<contour>
			<point x="23" y="0" type="line"/>
			<point x="299" y="0" type="line"/>
			<point x="299" y="30" type="line"/>
			<point x="207" y="40" type="line"/>
			<point x="109" y="40" type="line"/>
			<point x="23" y="30" type="line"/>
		</contour>
		<contour>
			<point x="70" y="148"/>
			<point x="69" y="45"/>
			<point x="67" y="0" type="curve"/>
			<point x="263" y="0" type="line"/>
			<point x="261" y="45"/>
			<point x="260" y="148"/>
			<point x="260" y="210" type="curve" smooth="yes"/>
			<point x="260" y="397" type="line"/>
			<point x="260" y="399" type="line"/>
			<point x="252" y="494" type="line"/>
			<point x="240" y="503" type="line"/>
			<point x="13" y="434" type="line"/>
			<point x="13" y="413" type="line"/>
			<point x="67" y="404" type="line"/>
			<point x="69" y="364"/>
			<point x="70" y="347"/>
			<point x="70" y="292" type="curve" smooth="yes"/>
			<point x="70" y="210" type="line" smooth="yes"/>
		</contour>
		<contour>
			<point x="326" y="0" type="line"/>
			<point x="603" y="0" type="line"/>
			<point x="603" y="30" type="line"/>
			<point x="506" y="40" type="line"/>
			<point x="409" y="40" type="line"/>
			<point x="326" y="30" type="line"/>
		</contour>
		<contour>
			<point x="370" y="146"/>
			<point x="369" y="45"/>
			<point x="367" y="0" type="curve"/>
			<point x="563" y="0" type="line"/>
			<point x="561" y="45"/>
			<point x="560" y="146"/>
			<point x="560" y="210" type="curve" smooth="yes"/>
			<point x="560" y="336" type="line" smooth="yes"/>
			<point x="560" y="445"/>
			<point x="496" y="503"/>
			<point x="409" y="503" type="curve" smooth="yes"/>
			<point x="344" y="503"/>
			<point x="299" y="482"/>
			<point x="233" y="393" type="curve"/>
			<point x="211" y="393" type="line"/>
			<point x="211" y="341" type="line"/>
			<point x="246" y="389"/>
			<point x="295" y="422"/>
			<point x="325" y="422" type="curve" smooth="yes"/>
			<point x="357" y="422"/>
			<point x="370" y="402"/>
			<point x="370" y="349" type="curve" smooth="yes"/>
			<point x="370" y="210" type="line" smooth="yes"/>
		</contour>
	</outline>
	<anchor name="aboveLC" x="327" y="520"/>
	<anchor name="belowLC" x="320" y="-22"/>
</glyph>
<glyph name="p" format="2">
	<unicode hex="0070"/>
	<advance width="623"/>
	<outline>
		<contour>
			<point x="27" y="-222" type="line"/>
			<point x="316" y="-222" type="line"/>
			<point x="316" y="-192" type="line"/>
			<point x="243" y="-182" type="line"/>
			<point x="116" y="-182" type="line"/>
			<point x="27" y="-192" type="line"/>
		</contour>
		<contour>
			<point x="74" y="-53"/>
			<point x="73" y="-126"/>
			<point x="71" y="-222" type="curve"/>
			<point x="264" y="-222" type="line"/>
			<point x="262" y="-126"/>
			<point x="261" y="-53"/>
			<point x="261" y="8" type="curve" smooth="yes"/>
			<point x="261" y="48" type="line"/>
			<point x="264" y="63" type="line"/>
			<point x="264" y="422" type="line"/>
			<point x="262" y="430" type="line"/>
			<point x="252" y="494" type="line"/>
			<point x="240" y="503" type="line"/>
			<point x="17" y="434" type="line"/>
			<point x="17" y="413" type="line"/>
			<point x="71" y="404" type="line"/>
			<point x="73" y="364"/>
			<point x="74" y="347"/>
			<point x="74" y="292" type="curve" smooth="yes"/>
			<point x="74" y="8" type="line" smooth="yes"/>
		</contour>
		<contour>
			<point x="269" y="16"/>
			<point x="316" y="-16"/>
			<point x="380" y="-16" type="curve" smooth="yes"/>
			<point x="495" y="-16"/>
			<point x="601" y="82"/>
			<point x="601" y="246" type="curve" smooth="yes"/>
			<point x="601" y="417"/>
			<point x="513" y="503"/>
			<point x="406" y="503" type="curve" smooth="yes"/>
			<point x="327" y="503"/>
			<point x="264" y="469"/>
			<point x="224" y="393" type="curve"/>
			<point x="216" y="393" type="line"/>
			<point x="234" y="384" type="line"/>
			<point x="260" y="418"/>
			<point x="281" y="427"/>
			<point x="308" y="427" type="curve" smooth="yes"/>
			<point x="368" y="427"/>
			<point x="399" y="389"/>
			<point x="399" y="246" type="curve" smooth="yes"/>
			<point x="399" y="103"/>
			<point x="364" y="63"/>
			<point x="303" y="63" type="curve" smooth="yes"/>
			<point x="275" y="63"/>
			<point x="260" y="67"/>
			<point x="243" y="84" type="curve"/>
			<point x="221" y="78" type="line"/>
			<point x="233" y="78" type="line"/>
		</contour>
	</outline>
	<anchor name="aboveLC" x="315" y="520"/>
	<anchor name="belowLC" x="173" y="-240"/>
</glyph>
<glyph name="q" format="2">
	<unicode hex="0071"/>
	<advance width="594"/>
	<outline>
		<contour>
			<point x="303" y="-222" type="line"/>
			<point x="584" y="-222" type="line"/>
			<point x="584" y="-192" type="line"/>
			<point x="501" y="-182" type="line"/>
			<point x="376" y="-182" type="line"/>
			<point x="303" y="-192" type="line"/>
		</contour>
		<contour>
			<point x="22" y="70"/>
			<point x="110" y="-16"/>
			<point x="220" y="-16" type="curve" smooth="yes"/>
			<point x="289" y="-16"/>
			<point x="347" y="15"/>
			<point x="388" y="74" type="curve"/>
			<point x="398" y="74" type="line"/>
			<point x="382" y="82" type="line"/>
			<point x="363" y="70"/>
			<point x="345" y="63"/>
			<point x="323" y="63" type="curve" smooth="yes"/>
			<point x="263" y="63"/>
			<point x="224" y="103"/>
			<point x="224" y="242" type="curve" smooth="yes"/>
			<point x="224" y="381"/>
			<point x="261" y="427"/>
			<point x="320" y="427" type="curve" smooth="yes"/>
			<point x="342" y="427"/>
			<point x="363" y="421"/>
			<point x="384" y="402" type="curve"/>
			<point x="403" y="412" type="line"/>
			<point x="397" y="415" type="line"/>
			<point x="366" y="472"/>
			<point x="315" y="503"/>
			<point x="252" y="503" type="curve" smooth="yes"/>
			<point x="124" y="503"/>
			<point x="22" y="403"/>
			<point x="22" y="240" type="curve" smooth="yes"/>
		</contour>
		<contour>
			<point x="358" y="-82"/>
			<point x="357" y="-152"/>
			<point x="355" y="-222" type="curve"/>
			<point x="548" y="-222" type="line"/>
			<point x="546" y="-152"/>
			<point x="545" y="-82"/>
			<point x="545" y="-12" type="curve" smooth="yes"/>
			<point x="545" y="358" type="line"/>
			<point x="548" y="494" type="line"/>
			<point x="534" y="503" type="line"/>
			<point x="355" y="433" type="line"/>
			<point x="355" y="430" type="line"/>
			<point x="355" y="62" type="line"/>
			<point x="358" y="48" type="line"/>
			<point x="358" y="-12" type="line" smooth="yes"/>
		</contour>
	</outline>
	<anchor name="aboveLC" x="331" y="507"/>
	<anchor name="belowLC" x="446" y="-242"/>
</glyph>
<glyph name="r" format="2">
	<unicode hex="0072"/>
	<advance width="483"/>
	<outline>
		<contour>
			<point x="21" y="0" type="line"/>
			<point x="339" y="0" type="line"/>
			<point x="339" y="31" type="line"/>
			<point x="249" y="41" type="line"/>
			<point x="111" y="41" type="line"/>
			<point x="21" y="31" type="line"/>
		</contour>
		<contour>
			<point x="67" y="0" type="curve"/>
			<point x="263" y="0" type="line"/>
			<point x="261" y="45"/>
			<point x="260" y="148"/>
			<point x="260" y="210" type="curve" smooth="yes"/>
			<point x="260" y="368" type="line"/>
			<point x="260" y="370" type="line"/>
			<point x="252" y="494" type="line"/>
			<point x="240" y="503" type="line"/>
			<point x="13" y="434" type="line"/>
			<point x="13" y="413" type="line"/>
			<point x="67" y="404" type="line"/>
			<point x="69" y="364"/>
			<point x="70" y="348"/>
			<point x="70" y="293" type="curve" smooth="yes"/>
			<point x="70" y="210" type="line" smooth="yes"/>
			<point x="70" y="148"/>
			<point x="69" y="45"/>
		</contour>
		<contour>
			<point x="260" y="276" type="line"/>
			<point x="270" y="337"/>
			<point x="286" y="373"/>
			<point x="317" y="412" type="curve"/>
			<point x="297" y="424" type="line"/>
			<point x="317" y="394" type="line" smooth="yes"/>
			<point x="343" y="354"/>
			<point x="367" y="329"/>
			<point x="407" y="329" type="curve" smooth="yes"/>
			<point x="458" y="329"/>
			<point x="480" y="368"/>
			<point x="484" y="413" type="curve"/>
			<point x="475" y="483"/>
			<point x="437" y="503"/>
			<point x="390" y="503" type="curve" smooth="yes"/>
			<point x="338" y="503"/>
			<point x="273" y="451"/>
			<point x="252" y="341" type="curve"/>
			<point x="216" y="341" type="line"/>
		</contour>
	</outline>
	<anchor name="aboveLC" x="277" y="520"/>
	<anchor name="belowLC" x="176" y="-22"/>
</glyph>
<glyph name="t" format="2">
	<unicode hex="0074"/>
	<advance width="372"/>
	<outline>
		<contour>
			<point x="165" y="446" type="line"/>
			<point x="351" y="446" type="line"/>
			<point x="351" y="487" type="line"/>
			<point x="165" y="487" type="line"/>
		</contour>
		<contour>
			<point x="68" y="26"/>
			<point x="125" y="-16"/>
			<point x="224" y="-16" type="curve" smooth="yes"/>
			<point x="306" y="-16"/>
			<point x="355" y="17"/>
			<point x="382" y="75" type="curve"/>
			<point x="366" y="88" type="line"/>
			<point x="344" y="68"/>
			<point x="331" y="58"/>
			<point x="312" y="58" type="curve" smooth="yes"/>
			<point x="281" y="58"/>
			<point x="259" y="76"/>
			<point x="259" y="118" type="curve" smooth="yes"/>
			<point x="259" y="462" type="line"/>
			<point x="259" y="471" type="line"/>
			<point x="259" y="629" type="line"/>
			<point x="140" y="629" type="line"/>
			<point x="75" y="477" type="line"/>
			<point x="95" y="489" type="line"/>
			<point x="12" y="478" type="line"/>
			<point x="12" y="446" type="line"/>
			<point x="69" y="446" type="line"/>
			<point x="69" y="241" type="line" smooth="yes"/>
			<point x="69" y="202"/>
			<point x="68" y="172"/>
			<point x="68" y="133" type="curve" smooth="yes"/>
		</contour>
	</outline>
	<anchor name="aboveLC" x="196" y="609"/>
	<anchor name="baseLC" x="224" y="0"/>
	<anchor name="belowLC" x="222" y="-20"/>
</glyph>
<glyph name="u" format="2">
	<unicode hex="0075"/>
	<advance width="617"/>
	<outline>
		<contour>
			<point x="63" y="32"/>
			<point x="123" y="-16"/>
			<point x="211" y="-16" type="curve" smooth="yes"/>
			<point x="283" y="-16"/>
			<point x="346" y="34"/>
			<point x="386" y="94" type="curve"/>
			<point x="450" y="94" type="line"/>
			<point x="409" y="152" type="line"/>
			<point x="388" y="113"/>
			<point x="351" y="78"/>
			<point x="311" y="78" type="curve" smooth="yes"/>
			<point x="279" y="78"/>
			<point x="257" y="92"/>
			<point x="257" y="144" type="curve" smooth="yes"/>
			<point x="257" y="345" type="line"/>
			<point x="262" y="491" type="line"/>
			<point x="250" y="500" type="line"/>
			<point x="17" y="463" type="line"/>
			<point x="17" y="438" type="line"/>
			<point x="105" y="418" type="line"/>
			<point x="69" y="445" type="line"/>
			<point x="65" y="164" type="line" smooth="yes"/>
		</contour>
		<contour>
			<point x="371" y="-14" type="line"/>
			<point x="603" y="-1" type="line"/>
			<point x="603" y="29" type="line"/>
			<point x="557" y="33" type="line"/>
			<point x="557" y="345" type="line"/>
			<point x="560" y="491" type="line"/>
			<point x="548" y="500" type="line"/>
			<point x="321" y="458" type="line"/>
			<point x="321" y="438" type="line"/>
			<point x="369" y="426" type="line"/>
			<point x="365" y="92" type="line"/>
			<point x="365" y="89" type="line"/>
		</contour>
	</outline>
	<anchor name="aboveLC" x="313" y="507"/>
	<anchor name="belowLC" x="316" y="-20"/>
	<anchor name="hornLC" x="508" y="448"/>
	<anchor name="ogonek" x="508" y="0"/>
</glyph>
<glyph name="v" format="2">
	<unicode hex="0076"/>
	<advance width="536"/>
	<outline>
		<contour>
			<point x="216" y="0" type="line"/>
			<point x="296" y="0" type="line"/>
			<point x="483" y="487" type="line"/>
			<point x="433" y="487" type="line"/>
			<point x="327" y="157" type="line"/>
			<point x="322" y="142" type="line"/>
			<point x="344" y="142" type="line"/>
			<point x="227" y="487" type="line"/>
			<point x="24" y="487" type="line"/>
		</contour>
		<contour>
			<point x="-10" y="457" type="line"/>
			<point x="73" y="447" type="line"/>
			<point x="207" y="447" type="line"/>
			<point x="291" y="457" type="line"/>
			<point x="291" y="487" type="line"/>
			<point x="-10" y="487" type="line"/>
		</contour>
		<contour>
			<point x="363" y="457" type="line"/>
			<point x="436" y="447" type="line"/>
			<point x="460" y="447" type="line"/>
			<point x="531" y="457" type="line"/>
			<point x="531" y="487" type="line"/>
			<point x="363" y="487" type="line"/>
		</contour>
	</outline>
	<anchor name="aboveLC" x="318" y="507"/>
	<anchor name="belowLC" x="262" y="-20"/>
</glyph>
<glyph name="w" format="2">
	<unicode hex="0077"/>
	<advance width="800"/>
	<outline>
		<contour>
			<point x="186" y="0" type="line"/>
			<point x="266" y="0" type="line"/>
			<point x="390" y="344" type="line"/>
			<point x="398" y="365" type="line"/>
			<point x="368" y="365" type="line"/>
			<point x="492" y="0" type="line"/>
			<point x="572" y="0" type="line"/>
			<point x="745" y="487" type="line"/>
			<point x="695" y="487" type="line"/>
			<point x="598" y="157" type="line"/>
			<point x="595" y="148" type="line"/>
			<point x="609" y="148" type="line"/>
			<point x="497" y="487" type="line"/>
			<point x="396" y="487" type="line"/>
			<point x="294" y="157" type="line"/>
			<point x="291" y="147" type="line"/>
			<point x="301" y="148" type="line"/>
			<point x="202" y="487" type="line"/>
			<point x="10" y="487" type="line"/>
		</contour>
		<contour>
			<point x="-10" y="457" type="line"/>
			<point x="87" y="447" type="line"/>
			<point x="152" y="447" type="line"/>
			<point x="275" y="457" type="line"/>
			<point x="275" y="487" type="line"/>
			<point x="-10" y="487" type="line"/>
		</contour>
		<contour>
			<point x="328" y="457" type="line"/>
			<point x="427" y="447" type="line"/>
			<point x="478" y="447" type="line"/>
			<point x="575" y="457" type="line"/>
			<point x="575" y="487" type="line"/>
			<point x="328" y="487" type="line"/>
		</contour>
		<contour>
			<point x="616" y="457" type="line"/>
			<point x="701" y="447" type="line"/>
			<point x="717" y="447" type="line"/>
			<point x="798" y="457" type="line"/>
			<point x="798" y="487" type="line"/>
			<point x="616" y="487" type="line"/>
		</contour>
	</outline>
	<anchor name="aboveLC" x="444" y="507"/>
	<anchor name="belowLC" x="384" y="-20"/>
</glyph>
<glyph name="x" format="2">
	<unicode hex="0078"/>
	<advance width="563"/>
	<outline>
		<contour>
			<point x="10" y="0" type="line"/>
			<point x="190" y="0" type="line"/>
			<point x="190" y="30" type="line"/>
			<point x="125" y="39" type="line"/>
			<point x="87" y="39" type="line"/>
			<point x="10" y="30" type="line"/>
		</contour>
		<contour>
			<point x="48" y="0" type="line"/>
			<point x="109" y="0" type="line"/>
			<point x="193" y="144" type="line"/>
			<point x="278" y="288" type="line"/>
			<point x="285" y="288" type="line"/>
			<point x="263" y="307" type="line"/>
		</contour>
		<contour>
			<point x="244" y="0" type="line"/>
			<point x="553" y="0" type="line"/>
			<point x="553" y="30" type="line"/>
			<point x="441" y="40" type="line"/>
			<point x="388" y="40" type="line"/>
			<point x="244" y="30" type="line"/>
		</contour>
		<contour>
			<point x="305" y="203" type="line"/>
			<point x="507" y="487" type="line"/>
			<point x="447" y="487" type="line"/>
			<point x="369" y="356" type="line"/>
			<point x="291" y="224" type="line"/>
			<point x="283" y="224" type="line"/>
		</contour>
		<contour>
			<point x="319" y="0" type="line"/>
			<point x="540" y="0" type="line"/>
			<point x="355" y="307" type="line"/>
			<point x="246" y="487" type="line"/>
			<point x="30" y="487" type="line"/>
			<point x="205" y="192" type="line"/>
		</contour>
		<contour>
			<point x="12" y="457" type="line"/>
			<point x="117" y="447" type="line"/>
			<point x="219" y="447" type="line"/>
			<point x="320" y="457" type="line"/>
			<point x="320" y="487" type="line"/>
			<point x="12" y="487" type="line"/>
		</contour>
		<contour>
			<point x="367" y="457" type="line"/>
			<point x="434" y="448" type="line"/>
			<point x="471" y="448" type="line"/>
			<point x="532" y="457" type="line"/>
			<point x="532" y="487" type="line"/>
			<point x="367" y="487" type="line"/>
		</contour>
	</outline>
	<anchor name="aboveLC" x="288" y="520"/>
	<anchor name="belowLC" x="258" y="-22"/>
</glyph>
<glyph name="y" format="2">
	<unicode hex="0079"/>
	<advance width="543"/>
	<outline>
		<contour>
			<point x="109" y="-232" type="curve" smooth="yes"/>
			<point x="187" y="-232"/>
			<point x="243" y="-190"/>
			<point x="301" y="-35" type="curve" smooth="yes"/>
			<point x="495" y="487" type="line"/>
			<point x="453" y="487" type="line"/>
			<point x="388" y="275" type="line"/>
			<point x="316" y="73" type="line"/>
			<point x="303" y="38" type="line"/>
			<point x="275" y="-26" type="line" smooth="yes"/>
			<point x="235" y="-116"/>
			<point x="212" y="-158"/>
			<point x="162" y="-194" type="curve"/>
			<point x="180" y="-208" type="line"/>
			<point x="215" y="-181" type="line"/>
			<point x="187" y="-138" type="line" smooth="yes"/>
			<point x="164" y="-103"/>
			<point x="134" y="-80"/>
			<point x="92" y="-80" type="curve" smooth="yes"/>
			<point x="52" y="-80"/>
			<point x="10" y="-101"/>
			<point x="2" y="-151" type="curve"/>
			<point x="4" y="-200"/>
			<point x="54" y="-232"/>
		</contour>
		<contour>
			<point x="269" y="-81" type="line"/>
			<point x="351" y="137" type="line"/>
			<point x="348" y="145" type="line"/>
			<point x="226" y="487" type="line"/>
			<point x="23" y="487" type="line"/>
		</contour>
		<contour>
			<point x="-5" y="457" type="line"/>
			<point x="83" y="447" type="line"/>
			<point x="220" y="447" type="line"/>
			<point x="293" y="458" type="line"/>
			<point x="293" y="487" type="line"/>
			<point x="-5" y="487" type="line"/>
		</contour>
		<contour>
			<point x="358" y="457" type="line"/>
			<point x="445" y="448" type="line"/>
			<point x="464" y="448" type="line"/>
			<point x="538" y="457" type="line"/>
			<point x="538" y="487" type="line"/>
			<point x="358" y="487" type="line"/>
		</contour>
	</outline>
	<anchor name="aboveLC" x="300" y="520"/>
	<anchor name="belowLC" x="153" y="-240"/>
</glyph>
<glyph name="z" format="2">
	<unicode hex="007A"/>
	<advance width="468"/>
	<outline>
		<contour>
			<point x="14" y="0" type="line"/>
			<point x="448" y="0" type="line"/>
			<point x="458" y="169" type="line"/>
			<point x="395" y="169" type="line"/>
			<point x="341" y="21" type="line"/>
			<point x="369" y="34" type="line"/>
			<point x="279" y="34" type="line"/>
			<point x="213" y="34" type="line"/>
			<point x="207" y="47" type="line"/>
			<point x="207" y="15" type="line"/>
			<point x="450" y="457" type="line"/>
			<point x="450" y="487" type="line"/>
			<point x="28" y="487" type="line"/>
			<point x="20" y="333" type="line"/>
			<point x="82" y="330" type="line"/>
			<point x="135" y="471" type="line"/>
			<point x="96" y="453" type="line"/>
			<point x="192" y="453" type="line"/>
			<point x="261" y="453" type="line"/>
			<point x="267" y="443" type="line"/>
			<point x="267" y="470" type="line"/>
			<point x="14" y="30" type="line"/>
		</contour>
	</outline>
	<anchor name="aboveLC" x="240" y="507"/>
	<anchor name="belowLC" x="245" y="-20"/>
</glyph>
<glyph name="asciitilde" format="2">
	<unicode hex="007E"/>
	<advance width="550"/>
	<outline>
		<contour>
			<point x="291" y="372" type="curve" smooth="yes"/>
			<point x="242" y="410"/>
			<point x="214" y="430"/>
			<point x="166" y="430" type="curve" smooth="yes"/>
			<point x="98" y="430"/>
			<point x="36" y="389"/>
			<point x="36" y="257" type="curve"/>
			<point x="93" y="253" type="line"/>
			<point x="98" y="338"/>
			<point x="121" y="370"/>
			<point x="163" y="370" type="curve" smooth="yes"/>
			<point x="190" y="370"/>
			<point x="209" y="356"/>
			<point x="259" y="318" type="curve" smooth="yes"/>
			<point x="310" y="279"/>
			<point x="337" y="260"/>
			<point x="384" y="260" type="curve" smooth="yes"/>
			<point x="453" y="260"/>
			<point x="514" y="301"/>
			<point x="514" y="433" type="curve"/>
			<point x="457" y="437" type="line"/>
			<point x="452" y="347"/>
			<point x="430" y="320"/>
			<point x="393" y="320" type="curve" smooth="yes"/>
			<point x="361" y="320"/>
			<point x="332" y="341"/>
		</contour>
	</outline>
</glyph>
<glyph name="sterling" format="2">
	<unicode hex="00A3"/>
	<advance width="560"/>
	<outline>
		<contour>
			<point x="66" y="270" type="line"/>
			<point x="408" y="270" type="line"/>
			<point x="408" y="320" type="line"/>
			<point x="66" y="320" type="line"/>
		</contour>
		<contour>
			<point x="50" y="0" type="line"/>
			<point x="508" y="0" type="line"/>
			<point x="508" y="140" type="line"/>
			<point x="126" y="140" type="line"/>
			<point x="126" y="155" type="line"/>
			<point x="97" y="117" type="line"/>
			<point x="210" y="149"/>
			<point x="266" y="202"/>
			<point x="266" y="281" type="curve" smooth="yes"/>
			<point x="266" y="343"/>
			<point x="239" y="402"/>
			<point x="239" y="476" type="curve" smooth="yes"/>
			<point x="239" y="553"/>
			<point x="278" y="605"/>
			<point x="348" y="605" type="curve" smooth="yes"/>
			<point x="369" y="605"/>
			<point x="390" y="600"/>
			<point x="433" y="587" type="curve"/>
			<point x="344" y="630" type="line"/>
			<point x="361" y="524" type="line" smooth="yes"/>
			<point x="373" y="452"/>
			<point x="405" y="435"/>
			<point x="446" y="435" type="curve" smooth="yes"/>
			<point x="477" y="435"/>
			<point x="503" y="450"/>
			<point x="513" y="490" type="curve"/>
			<point x="505" y="584"/>
			<point x="434" y="640"/>
			<point x="313" y="640" type="curve" smooth="yes"/>
			<point x="192" y="640"/>
			<point x="79" y="587"/>
			<point x="79" y="466" type="curve" smooth="yes"/>
			<point x="79" y="356"/>
			<point x="143" y="333"/>
			<point x="143" y="241" type="curve" smooth="yes"/>
			<point x="143" y="181"/>
			<point x="118" y="147"/>
			<point x="50" y="114" type="curve"/>
		</contour>
	</outline>
</glyph>
<glyph name="yen" format="2">
	<unicode hex="00A5"/>
	<advance width="560"/>
	<outline>
		<contour>
			<point x="345" y="245" type="line"/>
			<point x="530" y="625" type="line"/>
			<point x="478" y="625" type="line"/>
			<point x="336" y="325" type="line"/>
			<point x="329" y="309" type="line"/>
			<point x="351" y="309" type="line"/>
			<point x="208" y="625" type="line"/>
			<point x="16" y="625" type="line"/>
			<point x="216" y="245" type="line"/>
		</contour>
		<contour>
			<point x="132" y="585" type="line"/>
			<point x="165" y="585" type="line"/>
			<point x="297" y="595" type="line"/>
			<point x="297" y="625" type="line"/>
			<point x="-4" y="625" type="line"/>
			<point x="-4" y="595" type="line"/>
		</contour>
		<contour>
			<point x="244" y="40" type="line"/>
			<point x="101" y="30" type="line"/>
			<point x="101" y="0" type="line"/>
			<point x="458" y="0" type="line"/>
			<point x="458" y="30" type="line"/>
			<point x="315" y="40" type="line"/>
		</contour>
		<contour>
			<point x="188" y="189" type="line" smooth="yes"/>
			<point x="188" y="131"/>
			<point x="188" y="101"/>
			<point x="185" y="0" type="curve"/>
			<point x="375" y="0" type="line"/>
			<point x="372" y="100"/>
			<point x="372" y="132"/>
			<point x="372" y="189" type="curve" smooth="yes"/>
			<point x="372" y="301" type="line"/>
			<point x="188" y="301" type="line"/>
		</contour>
		<contour>
			<point x="474" y="585" type="line"/>
			<point x="508" y="585" type="line"/>
			<point x="563" y="595" type="line"/>
			<point x="563" y="625" type="line"/>
			<point x="385" y="625" type="line"/>
			<point x="385" y="595" type="line"/>
		</contour>
		<contour>
			<point x="62" y="146" type="line"/>
			<point x="498" y="146" type="line"/>
			<point x="498" y="196" type="line"/>
			<point x="62" y="196" type="line"/>
		</contour>
		<contour>
			<point x="62" y="271" type="line"/>
			<point x="498" y="271" type="line"/>
			<point x="498" y="321" type="line"/>
			<point x="62" y="321" type="line"/>
		</contour>
	</outline>
</glyph>
<glyph name="section" format="2">
	<unicode hex="00A7"/>
	<advance width="549"/>
	<outline>
		<contour>
			<point x="260" y="-110" type="curve" smooth="yes"/>
			<point x="385" y="-110"/>
			<point x="453" y="-49"/>
			<point x="453" y="29" type="curve" smooth="yes"/>
			<point x="453" y="95"/>
			<point x="429" y="126"/>
			<point x="382" y="157" type="curve"/>
			<point x="382" y="164" type="line"/>
			<point x="345" y="185"/>
			<point x="328" y="194"/>
			<point x="279" y="216" type="curve" smooth="yes"/>
			<point x="179" y="261"/>
			<point x="157" y="280"/>
			<point x="157" y="324" type="curve" smooth="yes"/>
			<point x="157" y="351"/>
			<point x="168" y="380"/>
			<point x="196" y="401" type="curve"/>
			<point x="195" y="420" type="line"/>
			<point x="189" y="412" type="line"/>
			<point x="98" y="390"/>
			<point x="51" y="335"/>
			<point x="51" y="266" type="curve" smooth="yes"/>
			<point x="51" y="198"/>
			<point x="95" y="153"/>
			<point x="218" y="98" type="curve" smooth="yes"/>
			<point x="304" y="60"/>
			<point x="338" y="40"/>
			<point x="338" y="-6" type="curve" smooth="yes"/>
			<point x="338" y="-44"/>
			<point x="316" y="-75"/>
			<point x="253" y="-75" type="curve" smooth="yes"/>
			<point x="218" y="-75"/>
			<point x="201" y="-76"/>
			<point x="185" y="-71" type="curve"/>
			<point x="235" y="-98" type="line"/>
			<point x="218" y="-17" type="line" smooth="yes"/>
			<point x="204" y="50"/>
			<point x="171" y="63"/>
			<point x="136" y="63" type="curve" smooth="yes"/>
			<point x="113" y="63"/>
			<point x="86" y="50"/>
			<point x="78" y="14" type="curve"/>
			<point x="84" y="-62"/>
			<point x="144" y="-110"/>
		</contour>
		<contour>
			<point x="290" y="672" type="curve" smooth="yes"/>
			<point x="172" y="672"/>
			<point x="97" y="616"/>
			<point x="97" y="527" type="curve" smooth="yes"/>
			<point x="97" y="467"/>
			<point x="123" y="433"/>
			<point x="173" y="400" type="curve"/>
			<point x="173" y="393" type="line"/>
			<point x="207" y="373"/>
			<point x="224" y="366"/>
			<point x="271" y="345" type="curve" smooth="yes"/>
			<point x="377" y="298"/>
			<point x="390" y="278"/>
			<point x="390" y="232" type="curve" smooth="yes"/>
			<point x="390" y="201"/>
			<point x="375" y="175"/>
			<point x="348" y="153" type="curve"/>
			<point x="351" y="138" type="line"/>
			<point x="357" y="142" type="line"/>
			<point x="440" y="161"/>
			<point x="500" y="216"/>
			<point x="500" y="284" type="curve" smooth="yes"/>
			<point x="500" y="362"/>
			<point x="456" y="408"/>
			<point x="332" y="463" type="curve" smooth="yes"/>
			<point x="246" y="502"/>
			<point x="212" y="523"/>
			<point x="212" y="573" type="curve" smooth="yes"/>
			<point x="212" y="604"/>
			<point x="234" y="635"/>
			<point x="297" y="635" type="curve" smooth="yes"/>
			<point x="332" y="635"/>
			<point x="349" y="636"/>
			<point x="365" y="631" type="curve"/>
			<point x="315" y="658" type="line"/>
			<point x="332" y="579" type="line" smooth="yes"/>
			<point x="346" y="512"/>
			<point x="379" y="499"/>
			<point x="414" y="499" type="curve" smooth="yes"/>
			<point x="437" y="499"/>
			<point x="464" y="512"/>
			<point x="472" y="548" type="curve"/>
			<point x="466" y="624"/>
			<point x="406" y="672"/>
		</contour>
	</outline>
</glyph>
<glyph name="plusminus" format="2">
	<unicode hex="00B1"/>
	<advance width="550"/>
	<outline>
		<contour>
			<point x="243" y="120" type="line"/>
			<point x="307" y="120" type="line"/>
			<point x="307" y="565" type="line"/>
			<point x="243" y="565" type="line"/>
		</contour>
		<contour>
			<point x="520" y="320" type="line"/>
			<point x="520" y="380" type="line"/>
			<point x="30" y="380" type="line"/>
			<point x="30" y="320" type="line"/>
		</contour>
		<contour>
			<point x="520" y="0" type="line"/>
			<point x="520" y="60" type="line"/>
			<point x="30" y="60" type="line"/>
			<point x="30" y="0" type="line"/>
		</contour>
	</outline>
</glyph>
<glyph name="three.sups" format="2">
	<unicode hex="00B3"/>
	<advance width="374"/>
	<outline>
		<contour>
			<point x="176" y="403" type="curve" smooth="yes"/>
			<point x="282" y="403"/>
			<point x="342" y="450"/>
			<point x="342" y="516" type="curve" smooth="yes"/>
			<point x="342" y="578"/>
			<point x="303" y="614"/>
			<point x="183" y="623" type="curve"/>
			<point x="183" y="613" type="line"/>
			<point x="293" y="627"/>
			<point x="330" y="670"/>
			<point x="330" y="712" type="curve" smooth="yes"/>
			<point x="330" y="768"/>
			<point x="285" y="812"/>
			<point x="182" y="812" type="curve" smooth="yes"/>
			<point x="111" y="812"/>
			<point x="47" y="781"/>
			<point x="51" y="708" type="curve"/>
			<point x="59" y="698"/>
			<point x="73" y="690"/>
			<point x="89" y="690" type="curve" smooth="yes"/>
			<point x="112" y="690"/>
			<point x="136" y="701"/>
			<point x="141" y="734" type="curve" smooth="yes"/>
			<point x="149" y="794" type="line"/>
			<point x="106" y="780" type="line"/>
			<point x="125" y="785"/>
			<point x="141" y="788"/>
			<point x="151" y="788" type="curve" smooth="yes"/>
			<point x="189" y="788"/>
			<point x="212" y="763"/>
			<point x="212" y="708" type="curve" smooth="yes"/>
			<point x="212" y="649"/>
			<point x="184" y="628"/>
			<point x="139" y="628" type="curve" smooth="yes"/>
			<point x="123" y="628" type="line"/>
			<point x="123" y="602" type="line"/>
			<point x="142" y="602" type="line" smooth="yes"/>
			<point x="190" y="602"/>
			<point x="217" y="575"/>
			<point x="217" y="522" type="curve" smooth="yes"/>
			<point x="217" y="455"/>
			<point x="189" y="427"/>
			<point x="135" y="427" type="curve" smooth="yes"/>
			<point x="119" y="427"/>
			<point x="111" y="430"/>
			<point x="97" y="436" type="curve"/>
			<point x="130" y="419" type="line"/>
			<point x="124" y="482" type="line" smooth="yes"/>
			<point x="119" y="529"/>
			<point x="101" y="541"/>
			<point x="73" y="541" type="curve" smooth="yes"/>
			<point x="56" y="541"/>
			<point x="38" y="533"/>
			<point x="30" y="511" type="curve"/>
			<point x="30" y="444"/>
			<point x="77" y="403"/>
		</contour>
	</outline>
</glyph>
<glyph name="one.sups" format="2">
	<unicode hex="00B9"/>
	<advance width="374"/>
	<outline>
		<contour>
			<point x="64" y="415" type="line"/>
			<point x="328" y="415" type="line"/>
			<point x="328" y="437" type="line"/>
			<point x="258" y="450" type="line"/>
			<point x="142" y="450" type="line"/>
			<point x="64" y="437" type="line"/>
		</contour>
		<contour>
			<point x="137" y="415" type="line"/>
			<point x="260" y="415" type="line"/>
			<point x="260" y="808" type="line"/>
			<point x="254" y="813" type="line"/>
			<point x="70" y="771" type="line"/>
			<point x="70" y="743" type="line"/>
			<point x="137" y="753" type="line"/>
		</contour>
	</outline>
</glyph>
<glyph name="AE" format="2">
	<unicode hex="00C6"/>
	<advance width="880"/>
	<outline>
		<contour>
			<point x="384" y="0" type="curve"/>
			<point x="588" y="0" type="line"/>
			<point x="585" y="103"/>
			<point x="585" y="207"/>
			<point x="585" y="311" type="curve" smooth="yes"/>
			<point x="585" y="342" type="line" smooth="yes"/>
			<point x="585" y="447"/>
			<point x="585" y="551"/>
			<point x="588" y="652" type="curve"/>
			<point x="387" y="652" type="line"/>
			<point x="387" y="300" type="line" smooth="yes"/>
			<point x="387" y="205"/>
			<point x="387" y="101"/>
		</contour>
		<contour>
			<point x="10" y="0" type="line"/>
			<point x="220" y="0" type="line"/>
			<point x="220" y="35" type="line"/>
			<point x="121" y="50" type="line"/>
			<point x="104" y="50" type="line"/>
			<point x="10" y="35" type="line"/>
		</contour>
		<contour>
			<point x="486" y="0" type="line"/>
			<point x="853" y="0" type="line"/>
			<point x="848" y="190" type="line"/>
			<point x="786" y="190" type="line"/>
			<point x="739" y="38" type="line"/>
			<point x="486" y="38" type="line"/>
		</contour>
		<contour>
			<point x="766" y="472" type="line"/>
			<point x="828" y="472" type="line"/>
			<point x="833" y="652" type="line"/>
			<point x="486" y="652" type="line"/>
			<point x="486" y="614" type="line"/>
			<point x="719" y="614" type="line"/>
		</contour>
		<contour>
			<point x="690" y="227" type="line"/>
			<point x="743" y="227" type="line"/>
			<point x="743" y="447" type="line"/>
			<point x="690" y="447" type="line"/>
			<point x="675" y="347" type="line"/>
			<point x="675" y="329" type="line"/>
		</contour>
		<contour>
			<point x="67" y="0" type="line"/>
			<point x="113" y="0" type="line"/>
			<point x="233" y="271" type="line"/>
			<point x="403" y="652" type="line"/>
			<point x="367" y="652" type="line"/>
		</contour>
		<contour>
			<point x="363" y="602" type="line"/>
			<point x="486" y="602" type="line"/>
			<point x="486" y="652" type="line"/>
			<point x="257" y="652" type="line"/>
			<point x="257" y="617" type="line"/>
		</contour>
		<contour>
			<point x="317" y="0" type="line"/>
			<point x="486" y="0" type="line"/>
			<point x="486" y="50" type="line"/>
			<point x="468" y="50" type="line"/>
			<point x="317" y="35" type="line"/>
		</contour>
		<contour>
			<point x="200" y="252" type="line"/>
			<point x="487" y="252" type="line"/>
			<point x="487" y="288" type="line"/>
			<point x="216" y="288" type="line"/>
		</contour>
		<contour>
			<point x="486" y="316" type="line"/>
			<point x="704" y="316" type="line"/>
			<point x="704" y="352" type="line"/>
			<point x="486" y="352" type="line"/>
		</contour>
	</outline>
	<anchor name="aboveUC" x="556" y="682"/>
</glyph>
<glyph name="multiply" format="2">
	<unicode hex="00D7"/>
	<advance width="550"/>
	<outline>
		<contour>
			<point x="470" y="83" type="line"/>
			<point x="513" y="126" type="line"/>
			<point x="81" y="558" type="line"/>
			<point x="38" y="515" type="line"/>
		</contour>
		<contour>
			<point x="513" y="515" type="line"/>
			<point x="470" y="558" type="line"/>
			<point x="38" y="126" type="line"/>
			<point x="81" y="83" type="line"/>
		</contour>
	</outline>
</glyph>
<glyph name="Oslash" format="2">
	<unicode hex="00D8"/>
	<advance width="700"/>
	<outline>
		<contour>
			<point x="650" y="659" type="line"/>
			<point x="612" y="692" type="line"/>
			<point x="50" y="-7" type="line"/>
			<point x="88" y="-40" type="line"/>
		</contour>
		<contour>
			<point x="258" y="18"/>
			<point x="223" y="140"/>
			<point x="223" y="326" type="curve" smooth="yes"/>
			<point x="223" y="510"/>
			<point x="258" y="634"/>
			<point x="350" y="634" type="curve" smooth="yes"/>
			<point x="442" y="634"/>
			<point x="477" y="510"/>
			<point x="477" y="326" type="curve" smooth="yes"/>
			<point x="477" y="140"/>
			<point x="442" y="18"/>
			<point x="350" y="18" type="curve" smooth="yes"/>
		</contour>
		<contour>
			<point x="672" y="561"/>
			<point x="518" y="672"/>
			<point x="350" y="672" type="curve" smooth="yes"/>
			<point x="182" y="672"/>
			<point x="28" y="561"/>
			<point x="28" y="326" type="curve" smooth="yes"/>
			<point x="28" y="91"/>
			<point x="181" y="-20"/>
			<point x="350" y="-20" type="curve" smooth="yes"/>
			<point x="519" y="-20"/>
			<point x="672" y="91"/>
			<point x="672" y="326" type="curve" smooth="yes"/>
		</contour>
	</outline>
	<anchor name="aboveUC" x="350" y="672"/>
</glyph>
<glyph name="Thorn" format="2">
	<unicode hex="00DE"/>
	<advance width="626"/>
	<outline>
		<contour>
			<point x="200" y="134" type="line"/>
			<point x="300" y="134" type="line" smooth="yes"/>
			<point x="537" y="134"/>
			<point x="612" y="217"/>
			<point x="612" y="342" type="curve" smooth="yes"/>
			<point x="612" y="465"/>
			<point x="531" y="535"/>
			<point x="306" y="535" type="curve" smooth="yes"/>
			<point x="200" y="535" type="line"/>
			<point x="200" y="497" type="line"/>
			<point x="302" y="497" type="line" smooth="yes"/>
			<point x="389" y="497"/>
			<point x="430" y="438"/>
			<point x="430" y="335" type="curve" smooth="yes"/>
			<point x="430" y="237"/>
			<point x="377" y="172"/>
			<point x="300" y="172" type="curve" smooth="yes"/>
			<point x="200" y="172" type="line"/>
		</contour>
		<contour>
			<point x="95" y="0" type="curve"/>
			<point x="294" y="0" type="line"/>
			<point x="291" y="103"/>
			<point x="291" y="207"/>
			<point x="291" y="311" type="curve" smooth="yes"/>
			<point x="291" y="342" type="line" smooth="yes"/>
			<point x="291" y="447"/>
			<point x="291" y="551"/>
			<point x="294" y="652" type="curve"/>
			<point x="95" y="652" type="line"/>
			<point x="98" y="549"/>
			<point x="98" y="445"/>
			<point x="98" y="342" type="curve" smooth="yes"/>
			<point x="98" y="310" type="line" smooth="yes"/>
			<point x="98" y="205"/>
			<point x="98" y="101"/>
		</contour>
		<contour>
			<point x="172" y="602" type="line"/>
			<point x="215" y="602" type="line"/>
			<point x="371" y="617" type="line"/>
			<point x="371" y="652" type="line"/>
			<point x="28" y="652" type="line"/>
			<point x="28" y="617" type="line"/>
		</contour>
		<contour>
			<point x="28" y="0" type="line"/>
			<point x="371" y="0" type="line"/>
			<point x="371" y="35" type="line"/>
			<point x="230" y="50" type="line"/>
			<point x="179" y="50" type="line"/>
			<point x="28" y="35" type="line"/>
		</contour>
	</outline>
</glyph>
<glyph name="ae" format="2">
	<unicode hex="00E6"/>
	<advance width="792"/>
	<outline>
		<contour>
			<point x="25" y="32"/>
			<point x="76" y="-16"/>
			<point x="158" y="-16" type="curve" smooth="yes"/>
			<point x="251" y="-16"/>
			<point x="324" y="16"/>
			<point x="383" y="109" type="curve"/>
			<point x="387" y="109" type="line"/>
			<point x="370" y="122" type="line"/>
			<point x="322" y="70"/>
			<point x="295" y="56"/>
			<point x="261" y="56" type="curve" smooth="yes"/>
			<point x="227" y="56"/>
			<point x="197" y="80"/>
			<point x="197" y="133" type="curve" smooth="yes"/>
			<point x="197" y="197"/>
			<point x="234" y="238"/>
			<point x="275" y="255" type="curve" smooth="yes"/>
			<point x="298" y="264"/>
			<point x="343" y="281"/>
			<point x="391" y="298" type="curve"/>
			<point x="391" y="320" type="line"/>
			<point x="345" y="308"/>
			<point x="271" y="289"/>
			<point x="230" y="278" type="curve" smooth="yes"/>
			<point x="71" y="235"/>
			<point x="25" y="191"/>
			<point x="25" y="109" type="curve" smooth="yes"/>
		</contour>
		<contour>
			<point x="291" y="79"/>
			<point x="406" y="-16"/>
			<point x="542" y="-16" type="curve" smooth="yes"/>
			<point x="654" y="-16"/>
			<point x="728" y="30"/>
			<point x="764" y="115" type="curve"/>
			<point x="743" y="129" type="line"/>
			<point x="719" y="90"/>
			<point x="686" y="63"/>
			<point x="626" y="63" type="curve" smooth="yes"/>
			<point x="549" y="63"/>
			<point x="488" y="121"/>
			<point x="488" y="264" type="curve" smooth="yes"/>
			<point x="488" y="425"/>
			<point x="512" y="469"/>
			<point x="544" y="469" type="curve" smooth="yes"/>
			<point x="571" y="469"/>
			<point x="596" y="442"/>
			<point x="596" y="365" type="curve" smooth="yes"/>
			<point x="596" y="299"/>
			<point x="583" y="278"/>
			<point x="535" y="278" type="curve" smooth="yes"/>
			<point x="367" y="278" type="line"/>
			<point x="367" y="241" type="line"/>
			<point x="767" y="241" type="line"/>
			<point x="771" y="259"/>
			<point x="772" y="273"/>
			<point x="772" y="294" type="curve" smooth="yes"/>
			<point x="772" y="409"/>
			<point x="700" y="503"/>
			<point x="557" y="503" type="curve" smooth="yes"/>
			<point x="482" y="503"/>
			<point x="417" y="473"/>
			<point x="378" y="415" type="curve"/>
			<point x="452" y="414" type="line"/>
			<point x="430" y="476"/>
			<point x="381" y="503"/>
			<point x="286" y="503" type="curve" smooth="yes"/>
			<point x="125" y="503"/>
			<point x="42" y="444"/>
			<point x="42" y="358" type="curve"/>
			<point x="52" y="322"/>
			<point x="79" y="304"/>
			<point x="118" y="304" type="curve" smooth="yes"/>
			<point x="161" y="304"/>
			<point x="200" y="334"/>
			<point x="200" y="415" type="curve" smooth="yes"/>
			<point x="200" y="478" type="line"/>
			<point x="120" y="456" type="line"/>
			<point x="166" y="466"/>
			<point x="190" y="469"/>
			<point x="215" y="469" type="curve" smooth="yes"/>
			<point x="278" y="469"/>
			<point x="291" y="443"/>
			<point x="291" y="358" type="curve" smooth="yes"/>
			<point x="291" y="247" type="line" smooth="yes"/>
		</contour>
	</outline>
	<anchor name="aboveLC" x="399" y="520"/>
	<anchor name="belowLC" x="380" y="-22"/>
</glyph>
<glyph name="eth" format="2">
	<unicode hex="00F0"/>
	<advance width="558"/>
	<outline>
		<contour>
			<point x="271" y="-16" type="curve" smooth="yes"/>
			<point x="401" y="-16"/>
			<point x="536" y="66"/>
			<point x="536" y="278" type="curve" smooth="yes"/>
			<point x="536" y="497"/>
			<point x="370" y="673"/>
			<point x="136" y="731" type="curve"/>
			<point x="120" y="692" type="line"/>
			<point x="252" y="631"/>
			<point x="323" y="541"/>
			<point x="346" y="384" type="curve"/>
			<point x="394" y="401" type="line"/>
			<point x="369" y="460"/>
			<point x="327" y="487"/>
			<point x="270" y="487" type="curve" smooth="yes"/>
			<point x="142" y="487"/>
			<point x="22" y="397"/>
			<point x="22" y="241" type="curve" smooth="yes"/>
			<point x="22" y="68"/>
			<point x="151" y="-16"/>
		</contour>
		<contour>
			<point x="282" y="19" type="curve" smooth="yes"/>
			<point x="243" y="19"/>
			<point x="222" y="94"/>
			<point x="222" y="235" type="curve" smooth="yes"/>
			<point x="222" y="384"/>
			<point x="248" y="453"/>
			<point x="282" y="453" type="curve" smooth="yes"/>
			<point x="321" y="453"/>
			<point x="342" y="383"/>
			<point x="342" y="239" type="curve" smooth="yes"/>
			<point x="342" y="89"/>
			<point x="313" y="19"/>
		</contour>
		<contour>
			<point x="115" y="508" type="line"/>
			<point x="489" y="682" type="line"/>
			<point x="470" y="725" type="line"/>
			<point x="96" y="551" type="line"/>
		</contour>
	</outline>
</glyph>
<glyph name="oslash" format="2">
	<unicode hex="00F8"/>
	<advance width="572"/>
	<outline>
		<contour>
			<point x="517" y="498" type="line"/>
			<point x="481" y="527" type="line"/>
			<point x="56" y="-9" type="line"/>
			<point x="92" y="-38" type="line"/>
		</contour>
		<contour>
			<point x="286" y="-16" type="curve" smooth="yes"/>
			<point x="457" y="-16"/>
			<point x="550" y="97"/>
			<point x="550" y="249" type="curve" smooth="yes"/>
			<point x="550" y="401"/>
			<point x="440" y="503"/>
			<point x="286" y="503" type="curve" smooth="yes"/>
			<point x="132" y="503"/>
			<point x="22" y="398"/>
			<point x="22" y="249" type="curve" smooth="yes"/>
			<point x="22" y="100"/>
			<point x="114" y="-16"/>
		</contour>
		<contour>
			<point x="286" y="19" type="curve" smooth="yes"/>
			<point x="235" y="19"/>
			<point x="212" y="86"/>
			<point x="212" y="246" type="curve" smooth="yes"/>
			<point x="212" y="405"/>
			<point x="235" y="468"/>
			<point x="286" y="468" type="curve" smooth="yes"/>
			<point x="337" y="468"/>
			<point x="360" y="405"/>
			<point x="360" y="246" type="curve" smooth="yes"/>
			<point x="360" y="86"/>
			<point x="337" y="19"/>
		</contour>
	</outline>
	<anchor name="aboveLC" x="286" y="520"/>
</glyph>
<glyph name="thorn" format="2">
	<unicode hex="00FE"/>
	<advance width="623"/>
	<outline>
		<contour>
			<point x="399" y="253" type="curve" smooth="yes"/>
			<point x="399" y="111"/>
			<point x="364" y="63"/>
			<point x="303" y="63" type="curve" smooth="yes"/>
			<point x="275" y="63"/>
			<point x="260" y="67"/>
			<point x="243" y="84" type="curve"/>
			<point x="233" y="78" type="line"/>
			<point x="269" y="16"/>
			<point x="316" y="-16"/>
			<point x="380" y="-16" type="curve" smooth="yes"/>
			<point x="495" y="-16"/>
			<point x="601" y="84"/>
			<point x="601" y="248" type="curve" smooth="yes"/>
			<point x="601" y="419"/>
			<point x="513" y="503"/>
			<point x="406" y="503" type="curve" smooth="yes"/>
			<point x="327" y="503"/>
			<point x="264" y="469"/>
			<point x="224" y="393" type="curve"/>
			<point x="234" y="384" type="line"/>
			<point x="260" y="418"/>
			<point x="281" y="427"/>
			<point x="308" y="427" type="curve" smooth="yes"/>
			<point x="368" y="427"/>
			<point x="399" y="385"/>
		</contour>
		<contour>
			<point x="243" y="-182" type="line"/>
			<point x="116" y="-182" type="line"/>
			<point x="27" y="-192" type="line"/>
			<point x="27" y="-222" type="line"/>
			<point x="316" y="-222" type="line"/>
			<point x="316" y="-192" type="line"/>
		</contour>
		<contour>
			<point x="264" y="428" type="line"/>
			<point x="261" y="437" type="line"/>
			<point x="261" y="571" type="line"/>
			<point x="264" y="712" type="line"/>
			<point x="252" y="721" type="line"/>
			<point x="20" y="676" type="line"/>
			<point x="20" y="651" type="line"/>
			<point x="74" y="644" type="line"/>
			<point x="74" y="8" type="line" smooth="yes"/>
			<point x="74" y="-53"/>
			<point x="73" y="-126"/>
			<point x="71" y="-222" type="curve"/>
			<point x="264" y="-222" type="line"/>
			<point x="262" y="-126"/>
			<point x="261" y="-53"/>
			<point x="261" y="8" type="curve" smooth="yes"/>
			<point x="261" y="48" type="line"/>
			<point x="264" y="63" type="line"/>
		</contour>
	</outline>
	<anchor name="aboveLC" x="158" y="710"/>
	<anchor name="belowLC" x="173" y="-240"/>
</glyph>
<glyph name="aogonek" format="2">
	<unicode hex="0105"/>
	<advance width="540"/>
	<outline>
		<contour>
			<point x="25" y="32"/>
			<point x="76" y="-16"/>
			<point x="155" y="-16" type="curve" smooth="yes"/>
			<point x="232" y="-16"/>
			<point x="263" y="15"/>
			<point x="306" y="64" type="curve"/>
			<point x="351" y="64" type="line"/>
			<point x="344" y="125" type="line"/>
			<point x="289" y="64"/>
			<point x="262" y="56"/>
			<point x="249" y="56" type="curve" smooth="yes"/>
			<point x="217" y="56"/>
			<point x="197" y="78"/>
			<point x="197" y="128" type="curve" smooth="yes"/>
			<point x="197" y="200"/>
			<point x="233" y="243"/>
			<point x="279" y="263" type="curve" smooth="yes"/>
			<point x="295" y="270"/>
			<point x="343" y="282"/>
			<point x="391" y="295" type="curve"/>
			<point x="391" y="320" type="line"/>
			<point x="345" y="308"/>
			<point x="271" y="289"/>
			<point x="230" y="278" type="curve" smooth="yes"/>
			<point x="71" y="235"/>
			<point x="25" y="191"/>
			<point x="25" y="114" type="curve" smooth="yes"/>
		</contour>
		<contour>
			<point x="308" y="-182"/>
			<point x="342" y="-227"/>
			<point x="417" y="-227" type="curve" smooth="yes"/>
			<point x="467" y="-227"/>
			<point x="511" y="-202"/>
			<point x="537" y="-169" type="curve"/>
			<point x="530" y="-146" type="line"/>
			<point x="516" y="-152"/>
			<point x="503" y="-154"/>
			<point x="482" y="-154" type="curve" smooth="yes"/>
			<point x="449" y="-154"/>
			<point x="423" y="-134"/>
			<point x="423" y="-95" type="curve" smooth="yes"/>
			<point x="423" y="-56"/>
			<point x="444" y="-32"/>
			<point x="487" y="-3" type="curve" smooth="yes"/>
			<point x="509" y="12"/>
			<point x="530" y="33"/>
			<point x="548" y="69" type="curve"/>
			<point x="530" y="79" type="line"/>
			<point x="513" y="48"/>
			<point x="504" y="41"/>
			<point x="493" y="41" type="curve" smooth="yes"/>
			<point x="482" y="41"/>
			<point x="475" y="48"/>
			<point x="475" y="65" type="curve" smooth="yes"/>
			<point x="475" y="310" type="line" smooth="yes"/>
			<point x="475" y="447"/>
			<point x="424" y="503"/>
			<point x="286" y="503" type="curve" smooth="yes"/>
			<point x="125" y="503"/>
			<point x="42" y="444"/>
			<point x="42" y="358" type="curve"/>
			<point x="52" y="322"/>
			<point x="79" y="304"/>
			<point x="118" y="304" type="curve" smooth="yes"/>
			<point x="161" y="304"/>
			<point x="200" y="334"/>
			<point x="200" y="415" type="curve" smooth="yes"/>
			<point x="200" y="478" type="line"/>
			<point x="120" y="456" type="line"/>
			<point x="166" y="466"/>
			<point x="190" y="469"/>
			<point x="215" y="469" type="curve" smooth="yes"/>
			<point x="278" y="469"/>
			<point x="291" y="441"/>
			<point x="291" y="356" type="curve" smooth="yes"/>
			<point x="291" y="74" type="line"/>
			<point x="291" y="72" type="line"/>
			<point x="305" y="7"/>
			<point x="355" y="-15"/>
			<point x="440" y="-16" type="curve" smooth="yes"/>
			<point x="443" y="-16"/>
			<point x="445" y="-16"/>
			<point x="448" y="-16" type="curve"/>
			<point x="449" y="-11" type="line"/>
			<point x="369" y="-39"/>
			<point x="308" y="-69"/>
			<point x="308" y="-135" type="curve" smooth="yes"/>
		</contour>
	</outline>
	<anchor name="aboveLC" x="264" y="520"/>
</glyph>
<glyph name="dcroat" format="2">
	<unicode hex="0111"/>
	<advance width="605"/>
	<outline>
		<contour>
			<point x="205" y="538" type="line"/>
			<point x="581" y="538" type="line"/>
			<point x="581" y="575" type="line"/>
			<point x="205" y="575" type="line"/>
		</contour>
		<contour>
			<point x="224" y="243" type="curve" smooth="yes"/>
			<point x="224" y="359"/>
			<point x="269" y="411"/>
			<point x="324" y="411" type="curve" smooth="yes"/>
			<point x="344" y="411"/>
			<point x="363" y="404"/>
			<point x="380" y="386" type="curve"/>
			<point x="390" y="396" type="line"/>
			<point x="355" y="455"/>
			<point x="314" y="487"/>
			<point x="244" y="487" type="curve" smooth="yes"/>
			<point x="124" y="487"/>
			<point x="22" y="397"/>
			<point x="22" y="234" type="curve" smooth="yes"/>
			<point x="22" y="70"/>
			<point x="116" y="-16"/>
			<point x="230" y="-16" type="curve" smooth="yes"/>
			<point x="297" y="-16"/>
			<point x="351" y="19"/>
			<point x="388" y="71" type="curve"/>
			<point x="379" y="84" type="line"/>
			<point x="363" y="70"/>
			<point x="343" y="63"/>
			<point x="322" y="63" type="curve" smooth="yes"/>
			<point x="265" y="63"/>
			<point x="224" y="115"/>
		</contour>
		<contour>
			<point x="457" y="40" type="line"/>
			<point x="545" y="0" type="line"/>
			<point x="545" y="561" type="line"/>
			<point x="548" y="712" type="line"/>
			<point x="536" y="721" type="line"/>
			<point x="298" y="676" type="line"/>
			<point x="298" y="651" type="line"/>
			<point x="362" y="643" type="line"/>
			<point x="362" y="423" type="line"/>
			<point x="355" y="413" type="line"/>
			<point x="355" y="59" type="line"/>
			<point x="369" y="-12" type="line"/>
			<point x="581" y="0" type="line"/>
			<point x="581" y="30" type="line"/>
		</contour>
	</outline>
</glyph>
<glyph name="Hbar" format="2">
	<unicode hex="0126"/>
	<advance width="756"/>
	<outline>
		<contour>
			<point x="93" y="0" type="curve"/>
			<point x="297" y="0" type="line"/>
			<point x="294" y="103"/>
			<point x="294" y="207"/>
			<point x="294" y="311" type="curve" smooth="yes"/>
			<point x="294" y="353" type="line" smooth="yes"/>
			<point x="294" y="447"/>
			<point x="294" y="551"/>
			<point x="297" y="652" type="curve"/>
			<point x="93" y="652" type="line"/>
			<point x="96" y="549"/>
			<point x="96" y="445"/>
			<point x="96" y="342" type="curve" smooth="yes"/>
			<point x="96" y="310" type="line" smooth="yes"/>
			<point x="96" y="205"/>
			<point x="96" y="101"/>
		</contour>
		<contour>
			<point x="459" y="0" type="curve"/>
			<point x="663" y="0" type="line"/>
			<point x="660" y="103"/>
			<point x="660" y="207"/>
			<point x="660" y="310" type="curve" smooth="yes"/>
			<point x="660" y="342" type="line" smooth="yes"/>
			<point x="660" y="447"/>
			<point x="660" y="551"/>
			<point x="663" y="652" type="curve"/>
			<point x="459" y="652" type="line"/>
			<point x="462" y="549"/>
			<point x="462" y="445"/>
			<point x="462" y="353" type="curve" smooth="yes"/>
			<point x="462" y="311" type="line" smooth="yes"/>
			<point x="462" y="205"/>
			<point x="462" y="101"/>
		</contour>
		<contour>
			<point x="28" y="0" type="line"/>
			<point x="357" y="0" type="line"/>
			<point x="357" y="35" type="line"/>
			<point x="205" y="50" type="line"/>
			<point x="172" y="50" type="line"/>
			<point x="28" y="35" type="line"/>
		</contour>
		<contour>
			<point x="28" y="617" type="line"/>
			<point x="172" y="602" type="line"/>
			<point x="205" y="602" type="line"/>
			<point x="357" y="617" type="line"/>
			<point x="357" y="652" type="line"/>
			<point x="28" y="652" type="line"/>
		</contour>
		<contour>
			<point x="399" y="0" type="line"/>
			<point x="728" y="0" type="line"/>
			<point x="728" y="35" type="line"/>
			<point x="579" y="50" type="line"/>
			<point x="548" y="50" type="line"/>
			<point x="399" y="35" type="line"/>
		</contour>
		<contour>
			<point x="399" y="617" type="line"/>
			<point x="548" y="602" type="line"/>
			<point x="579" y="602" type="line"/>
			<point x="728" y="617" type="line"/>
			<point x="728" y="652" type="line"/>
			<point x="399" y="652" type="line"/>
		</contour>
		<contour>
			<point x="20" y="446" type="line"/>
			<point x="736" y="446" type="line"/>
			<point x="736" y="483" type="line"/>
			<point x="20" y="483" type="line"/>
		</contour>
		<contour>
			<point x="187" y="287" type="line"/>
			<point x="569" y="287" type="line"/>
			<point x="569" y="325" type="line"/>
			<point x="187" y="325" type="line"/>
		</contour>
	</outline>
</glyph>
<glyph name="kgreenlandic" format="2">
	<unicode hex="0138"/>
	<advance width="619"/>
	<outline>
		<contour>
			<point x="23" y="0" type="line"/>
			<point x="299" y="0" type="line"/>
			<point x="299" y="30" type="line"/>
			<point x="207" y="40" type="line"/>
			<point x="109" y="40" type="line"/>
			<point x="23" y="30" type="line"/>
		</contour>
		<contour>
			<point x="67" y="0" type="curve"/>
			<point x="263" y="0" type="line"/>
			<point x="261" y="45"/>
			<point x="260" y="148"/>
			<point x="260" y="253" type="curve" smooth="yes"/>
			<point x="260" y="341" type="line"/>
			<point x="262" y="494" type="line"/>
			<point x="250" y="503" type="line"/>
			<point x="13" y="438" type="line"/>
			<point x="13" y="417" type="line"/>
			<point x="67" y="408" type="line"/>
			<point x="69" y="368"/>
			<point x="70" y="351"/>
			<point x="70" y="296" type="curve" smooth="yes"/>
			<point x="70" y="210" type="line" smooth="yes"/>
			<point x="70" y="148"/>
			<point x="69" y="45"/>
		</contour>
		<contour>
			<point x="161" y="149" type="line"/>
			<point x="546" y="487" type="line"/>
			<point x="481" y="487" type="line"/>
			<point x="326" y="341" type="line"/>
			<point x="165" y="189" type="line"/>
			<point x="161" y="189" type="line"/>
		</contour>
		<contour>
			<point x="381" y="0" type="line"/>
			<point x="613" y="0" type="line"/>
			<point x="613" y="30" type="line"/>
			<point x="469" y="50" type="line"/>
			<point x="574" y="16" type="line"/>
			<point x="409" y="376" type="line"/>
			<point x="276" y="259" type="line"/>
		</contour>
		<contour>
			<point x="465" y="444" type="line"/>
			<point x="485" y="447" type="line"/>
			<point x="586" y="457" type="line"/>
			<point x="586" y="487" type="line"/>
			<point x="352" y="487" type="line"/>
			<point x="352" y="457" type="line"/>
		</contour>
	</outline>
</glyph>
<glyph name="lslash" format="2">
	<unicode hex="0142"/>
	<advance width="334"/>
	<outline>
		<contour>
			<point x="211" y="423" type="line"/>
			<point x="16" y="312" type="line"/>
			<point x="16" y="248" type="line"/>
			<point x="211" y="359" type="line"/>
		</contour>
		<contour>
			<point x="324" y="477" type="line"/>
			<point x="124" y="363" type="line"/>
			<point x="124" y="299" type="line"/>
			<point x="324" y="413" type="line"/>
		</contour>
		<component base="l"/>
	</outline>
</glyph>
<glyph name="Eng" format="2">
	<unicode hex="014A"/>
	<advance width="725"/>
	<outline>
		<contour>
			<point x="24" y="0" type="line"/>
			<point x="287" y="0" type="line"/>
			<point x="287" y="34" type="line"/>
			<point x="153" y="49" type="line"/>
			<point x="121" y="49" type="line"/>
			<point x="24" y="34" type="line"/>
		</contour>
		<contour>
			<point x="109" y="0" type="line"/>
			<point x="154" y="0" type="line"/>
			<point x="154" y="326" type="line"/>
			<point x="154" y="624" type="line"/>
			<point x="109" y="624" type="line"/>
		</contour>
		<contour>
			<point x="384" y="-152" type="curve" smooth="yes"/>
			<point x="440" y="-152"/>
			<point x="494" y="-132"/>
			<point x="550" y="-63" type="curve" smooth="yes"/>
			<point x="594" y="-9"/>
			<point x="616" y="53"/>
			<point x="616" y="185" type="curve" smooth="yes"/>
			<point x="616" y="652" type="line"/>
			<point x="571" y="652" type="line"/>
			<point x="571" y="326" type="line"/>
			<point x="572" y="187" type="line"/>
			<point x="572" y="26"/>
			<point x="529" y="-53"/>
			<point x="456" y="-100" type="curve"/>
			<point x="456" y="-109" type="line"/>
			<point x="463" y="-109" type="line"/>
			<point x="463" y="-101" type="line"/>
			<point x="412" y="-51" type="line" smooth="yes"/>
			<point x="380" y="-20"/>
			<point x="362" y="-13"/>
			<point x="326" y="-13" type="curve" smooth="yes"/>
			<point x="290" y="-13"/>
			<point x="262" y="-29"/>
			<point x="252" y="-78" type="curve"/>
			<point x="259" y="-129"/>
			<point x="302" y="-152"/>
		</contour>
		<contour>
			<point x="511" y="0" type="line"/>
			<point x="586" y="0" type="line"/>
			<point x="586" y="235" type="line"/>
			<point x="583" y="235" type="line"/>
			<point x="289" y="652" type="line"/>
			<point x="34" y="652" type="line"/>
			<point x="34" y="617" type="line"/>
			<point x="80" y="612" type="line"/>
			<point x="161" y="498" type="line"/>
			<point x="164" y="498" type="line"/>
		</contour>
		<contour>
			<point x="578" y="603" type="line"/>
			<point x="609" y="603" type="line"/>
			<point x="701" y="618" type="line"/>
			<point x="701" y="652" type="line"/>
			<point x="438" y="652" type="line"/>
			<point x="438" y="618" type="line"/>
		</contour>
	</outline>
</glyph>
<glyph name="eng" format="2">
	<unicode hex="014B"/>
	<advance width="620"/>
	<outline>
		<contour>
			<point x="23" y="0" type="line"/>
			<point x="299" y="0" type="line"/>
			<point x="299" y="30" type="line"/>
			<point x="207" y="40" type="line"/>
			<point x="109" y="40" type="line"/>
			<point x="23" y="30" type="line"/>
		</contour>
		<contour>
			<point x="70" y="148"/>
			<point x="69" y="45"/>
			<point x="67" y="0" type="curve"/>
			<point x="263" y="0" type="line"/>
			<point x="261" y="45"/>
			<point x="260" y="148"/>
			<point x="260" y="210" type="curve" smooth="yes"/>
			<point x="260" y="402" type="line"/>
			<point x="260" y="404" type="line"/>
			<point x="252" y="494" type="line"/>
			<point x="240" y="503" type="line"/>
			<point x="13" y="434" type="line"/>
			<point x="13" y="413" type="line"/>
			<point x="67" y="404" type="line"/>
			<point x="69" y="364"/>
			<point x="70" y="347"/>
			<point x="70" y="292" type="curve" smooth="yes"/>
			<point x="70" y="210" type="line" smooth="yes"/>
		</contour>
		<contour>
			<point x="322" y="-232" type="curve" smooth="yes"/>
			<point x="378" y="-232"/>
			<point x="435" y="-218"/>
			<point x="493" y="-160" type="curve" smooth="yes"/>
			<point x="540" y="-113"/>
			<point x="560" y="-67"/>
			<point x="560" y="35" type="curve" smooth="yes"/>
			<point x="560" y="336" type="line" smooth="yes"/>
			<point x="560" y="445"/>
			<point x="496" y="503"/>
			<point x="409" y="503" type="curve" smooth="yes"/>
			<point x="344" y="503"/>
			<point x="298" y="482"/>
			<point x="232" y="392" type="curve"/>
			<point x="229" y="393" type="line"/>
			<point x="230" y="364" type="line"/>
			<point x="262" y="399"/>
			<point x="300" y="422"/>
			<point x="325" y="422" type="curve" smooth="yes"/>
			<point x="357" y="422"/>
			<point x="370" y="402"/>
			<point x="370" y="349" type="curve" smooth="yes"/>
			<point x="370" y="86" type="line" smooth="yes"/>
			<point x="370" y="-15"/>
			<point x="384" y="-125"/>
			<point x="373" y="-176" type="curve" smooth="yes"/>
			<point x="371" y="-188"/>
			<point x="366" y="-197"/>
			<point x="361" y="-205" type="curve"/>
			<point x="361" y="-213" type="line"/>
			<point x="372" y="-213" type="line"/>
			<point x="372" y="-205" type="line"/>
			<point x="354" y="-144" type="line" smooth="yes"/>
			<point x="338" y="-90"/>
			<point x="313" y="-72"/>
			<point x="274" y="-72" type="curve" smooth="yes"/>
			<point x="228" y="-72"/>
			<point x="198" y="-99"/>
			<point x="189" y="-152" type="curve"/>
			<point x="204" y="-209"/>
			<point x="247" y="-232"/>
		</contour>
	</outline>
</glyph>
<glyph name="OE" format="2">
	<unicode hex="0152"/>
	<advance width="927"/>
	<outline>
		<contour>
			<point x="233" y="326" type="curve" smooth="yes"/>
			<point x="233" y="518"/>
			<point x="303" y="634"/>
			<point x="420" y="634" type="curve" smooth="yes"/>
			<point x="461" y="634"/>
			<point x="502" y="626"/>
			<point x="536" y="614" type="curve"/>
			<point x="536" y="652" type="line"/>
			<point x="499" y="664"/>
			<point x="448" y="672"/>
			<point x="395" y="672" type="curve" smooth="yes"/>
			<point x="194" y="672"/>
			<point x="28" y="568"/>
			<point x="28" y="326" type="curve" smooth="yes"/>
			<point x="28" y="84"/>
			<point x="194" y="-20"/>
			<point x="395" y="-20" type="curve" smooth="yes"/>
			<point x="452" y="-20"/>
			<point x="503" y="-10"/>
			<point x="536" y="0" type="curve"/>
			<point x="536" y="38" type="line"/>
			<point x="502" y="26"/>
			<point x="461" y="18"/>
			<point x="420" y="18" type="curve" smooth="yes"/>
			<point x="303" y="18"/>
			<point x="233" y="134"/>
		</contour>
		<contour>
			<point x="434" y="310" type="line" smooth="yes"/>
			<point x="434" y="205"/>
			<point x="434" y="101"/>
			<point x="431" y="0" type="curve"/>
			<point x="635" y="0" type="line"/>
			<point x="632" y="103"/>
			<point x="632" y="207"/>
			<point x="632" y="311" type="curve" smooth="yes"/>
			<point x="632" y="342" type="line" smooth="yes"/>
			<point x="632" y="447"/>
			<point x="632" y="551"/>
			<point x="635" y="652" type="curve"/>
			<point x="431" y="652" type="line"/>
			<point x="434" y="549"/>
			<point x="434" y="445"/>
			<point x="434" y="342" type="curve" smooth="yes"/>
		</contour>
		<contour>
			<point x="722" y="329" type="line"/>
			<point x="737" y="227" type="line"/>
			<point x="790" y="227" type="line"/>
			<point x="790" y="447" type="line"/>
			<point x="737" y="447" type="line"/>
			<point x="722" y="347" type="line"/>
		</contour>
		<contour>
			<point x="833" y="190" type="line"/>
			<point x="774" y="0" type="line"/>
			<point x="867" y="38" type="line"/>
			<point x="533" y="38" type="line"/>
			<point x="533" y="0" type="line"/>
			<point x="900" y="0" type="line"/>
			<point x="895" y="190" type="line"/>
		</contour>
		<contour>
			<point x="813" y="472" type="line"/>
			<point x="875" y="472" type="line"/>
			<point x="880" y="652" type="line"/>
			<point x="533" y="652" type="line"/>
			<point x="533" y="614" type="line"/>
			<point x="847" y="614" type="line"/>
			<point x="754" y="652" type="line"/>
		</contour>
		<contour>
			<point x="751" y="352" type="line"/>
			<point x="533" y="352" type="line"/>
			<point x="533" y="316" type="line"/>
			<point x="751" y="316" type="line"/>
		</contour>
	</outline>
	<anchor name="aboveUC" x="511" y="682"/>
</glyph>
<glyph name="oe" format="2">
	<unicode hex="0153"/>
	<advance width="854"/>
	<outline>
		<contour>
			<point x="286" y="-16" type="curve" smooth="yes"/>
			<point x="393" y="-16"/>
			<point x="460" y="36"/>
			<point x="501" y="117" type="curve"/>
			<point x="397" y="117" type="line"/>
			<point x="442" y="33"/>
			<point x="511" y="-16"/>
			<point x="603" y="-16" type="curve" smooth="yes"/>
			<point x="715" y="-16"/>
			<point x="789" y="29"/>
			<point x="825" y="114" type="curve"/>
			<point x="804" y="128" type="line"/>
			<point x="780" y="89"/>
			<point x="747" y="63"/>
			<point x="687" y="63" type="curve" smooth="yes"/>
			<point x="610" y="63"/>
			<point x="549" y="119"/>
			<point x="549" y="262" type="curve" smooth="yes"/>
			<point x="549" y="423"/>
			<point x="573" y="469"/>
			<point x="605" y="469" type="curve" smooth="yes"/>
			<point x="632" y="469"/>
			<point x="657" y="442"/>
			<point x="657" y="365" type="curve" smooth="yes"/>
			<point x="657" y="299"/>
			<point x="644" y="278"/>
			<point x="596" y="278" type="curve" smooth="yes"/>
			<point x="428" y="278" type="line"/>
			<point x="428" y="241" type="line"/>
			<point x="828" y="241" type="line"/>
			<point x="832" y="259"/>
			<point x="833" y="273"/>
			<point x="833" y="294" type="curve" smooth="yes"/>
			<point x="833" y="409"/>
			<point x="761" y="503"/>
			<point x="618" y="503" type="curve" smooth="yes"/>
			<point x="537" y="503"/>
			<point x="453" y="461"/>
			<point x="408" y="384" type="curve"/>
			<point x="493" y="384" type="line"/>
			<point x="454" y="456"/>
			<point x="378" y="503"/>
			<point x="286" y="503" type="curve" smooth="yes"/>
			<point x="132" y="503"/>
			<point x="22" y="398"/>
			<point x="22" y="249" type="curve" smooth="yes"/>
			<point x="22" y="100"/>
			<point x="114" y="-16"/>
		</contour>
		<contour>
			<point x="286" y="19" type="curve" smooth="yes"/>
			<point x="242" y="19"/>
			<point x="222" y="86"/>
			<point x="222" y="246" type="curve" smooth="yes"/>
			<point x="222" y="405"/>
			<point x="242" y="468"/>
			<point x="286" y="468" type="curve" smooth="yes"/>
			<point x="330" y="468"/>
			<point x="350" y="405"/>
			<point x="350" y="246" type="curve" smooth="yes"/>
			<point x="350" y="86"/>
			<point x="330" y="19"/>
		</contour>
	</outline>
	<anchor name="aboveLC" x="441" y="520"/>
</glyph>
<glyph name="tbar" format="2">
	<unicode hex="0167"/>
	<advance width="372"/>
	<outline>
		<contour>
			<point x="12" y="263" type="line"/>
			<point x="351" y="263" type="line"/>
			<point x="351" y="300" type="line"/>
			<point x="12" y="300" type="line"/>
		</contour>
		<component base="t"/>
	</outline>
</glyph>
<glyph name="uogonek" format="2">
	<unicode hex="0173"/>
	<advance width="617"/>
	<outline>
		<contour>
			<point x="470" y="-227" type="curve" smooth="yes"/>
			<point x="520" y="-227"/>
			<point x="564" y="-202"/>
			<point x="590" y="-169" type="curve"/>
			<point x="583" y="-146" type="line"/>
			<point x="569" y="-152"/>
			<point x="556" y="-154"/>
			<point x="535" y="-154" type="curve" smooth="yes"/>
			<point x="502" y="-154"/>
			<point x="476" y="-131"/>
			<point x="476" y="-87" type="curve" smooth="yes"/>
			<point x="476" y="-46"/>
			<point x="492" y="-16"/>
			<point x="532" y="8" type="curve"/>
			<point x="510" y="8" type="line"/>
			<point x="510" y="7" type="line"/>
			<point x="417" y="-25"/>
			<point x="361" y="-63"/>
			<point x="361" y="-135" type="curve" smooth="yes"/>
			<point x="361" y="-182"/>
			<point x="395" y="-227"/>
		</contour>
		<component base="u"/>
	</outline>
	<anchor name="aboveLC" x="315" y="520"/>
</glyph>
<glyph name="Schwa" format="2">
	<unicode hex="018F"/>
	<advance width="666"/>
	<outline>
		<contour>
			<point x="28" y="275" type="curve" smooth="yes"/>
			<point x="28" y="111"/>
			<point x="121" y="-20"/>
			<point x="334" y="-20" type="curve" smooth="yes"/>
			<point x="482" y="-20"/>
			<point x="638" y="89"/>
			<point x="638" y="323" type="curve" smooth="yes"/>
			<point x="638" y="543"/>
			<point x="505" y="672"/>
			<point x="314" y="672" type="curve" smooth="yes"/>
			<point x="224" y="672"/>
			<point x="136" y="641"/>
			<point x="79" y="573" type="curve"/>
			<point x="100" y="547" type="line"/>
			<point x="141" y="581"/>
			<point x="197" y="602"/>
			<point x="252" y="602" type="curve" smooth="yes"/>
			<point x="374" y="602"/>
			<point x="433" y="533"/>
			<point x="433" y="321" type="curve" smooth="yes"/>
			<point x="433" y="87"/>
			<point x="397" y="18"/>
			<point x="337" y="18" type="curve" smooth="yes"/>
			<point x="274" y="18"/>
			<point x="228" y="90"/>
			<point x="228" y="220" type="curve" smooth="yes"/>
			<point x="228" y="255"/>
			<point x="228" y="280"/>
			<point x="231" y="312" type="curve"/>
			<point x="532" y="312" type="line"/>
			<point x="532" y="353" type="line"/>
			<point x="34" y="353" type="line"/>
			<point x="29" y="324"/>
			<point x="28" y="306"/>
		</contour>
	</outline>
	<anchor name="aboveUC" x="322" y="672"/>
	<anchor name="belowLC" x="332" y="-20"/>
</glyph>
<glyph name="florin" format="2">
	<unicode hex="0192"/>
	<advance width="560"/>
	<outline>
		<contour>
			<point x="23" y="-71"/>
			<point x="69" y="-106"/>
			<point x="148" y="-106" type="curve" smooth="yes"/>
			<point x="197" y="-106"/>
			<point x="247" y="-91"/>
			<point x="286" y="-45" type="curve" smooth="yes"/>
			<point x="330" y="3"/>
			<point x="351" y="81"/>
			<point x="360" y="227" type="curve" smooth="yes"/>
			<point x="369" y="366" type="line" smooth="yes"/>
			<point x="376" y="468"/>
			<point x="380" y="541"/>
			<point x="399" y="586" type="curve" smooth="yes"/>
			<point x="408" y="606"/>
			<point x="416" y="620"/>
			<point x="427" y="630" type="curve"/>
			<point x="436" y="637" type="line"/>
			<point x="409" y="638" type="line"/>
			<point x="431" y="542" type="line" smooth="yes"/>
			<point x="442" y="496"/>
			<point x="465" y="484"/>
			<point x="497" y="484" type="curve" smooth="yes"/>
			<point x="530" y="484"/>
			<point x="554" y="514"/>
			<point x="554" y="555" type="curve"/>
			<point x="538" y="605"/>
			<point x="492" y="640"/>
			<point x="413" y="640" type="curve" smooth="yes"/>
			<point x="364" y="640"/>
			<point x="314" y="625"/>
			<point x="275" y="579" type="curve" smooth="yes"/>
			<point x="237" y="537"/>
			<point x="213" y="473"/>
			<point x="205" y="360" type="curve" smooth="yes"/>
			<point x="195" y="211" type="line" smooth="yes"/>
			<point x="186" y="80"/>
			<point x="182" y="-1"/>
			<point x="164" y="-47" type="curve" smooth="yes"/>
			<point x="153" y="-74"/>
			<point x="143" y="-87"/>
			<point x="129" y="-97" type="curve"/>
			<point x="124" y="-101" type="line"/>
			<point x="149" y="-101" type="line"/>
			<point x="130" y="-8" type="line" smooth="yes"/>
			<point x="121" y="38"/>
			<point x="96" y="50"/>
			<point x="64" y="50" type="curve" smooth="yes"/>
			<point x="31" y="50"/>
			<point x="7" y="20"/>
			<point x="7" y="-21" type="curve"/>
		</contour>
		<contour>
			<point x="115" y="341" type="line"/>
			<point x="475" y="341" type="line"/>
			<point x="475" y="391" type="line"/>
			<point x="115" y="391" type="line"/>
		</contour>
	</outline>
</glyph>
<glyph name="Uhorn" format="2">
	<unicode hex="01AF"/>
	<advance width="732"/>
	<outline>
		<contour>
			<point x="366" y="-20" type="curve" smooth="yes"/>
			<point x="528" y="-20"/>
			<point x="617" y="74"/>
			<point x="620" y="287" type="curve" smooth="yes"/>
			<point x="625" y="652" type="line"/>
			<point x="571" y="652" type="line"/>
			<point x="576" y="277" type="line" smooth="yes"/>
			<point x="578" y="130"/>
			<point x="520" y="69"/>
			<point x="434" y="69" type="curve" smooth="yes"/>
			<point x="337" y="69"/>
			<point x="293" y="127"/>
			<point x="293" y="280" type="curve" smooth="yes"/>
			<point x="293" y="356" type="line" smooth="yes"/>
			<point x="293" y="455"/>
			<point x="293" y="555"/>
			<point x="296" y="652" type="curve"/>
			<point x="92" y="652" type="line"/>
			<point x="95" y="553"/>
			<point x="95" y="453"/>
			<point x="95" y="356" type="curve" smooth="yes"/>
			<point x="95" y="265" type="line" smooth="yes"/>
			<point x="95" y="50"/>
			<point x="209" y="-20"/>
		</contour>
		<contour>
			<point x="578" y="621" type="line"/>
			<point x="692" y="621"/>
			<point x="767" y="651"/>
			<point x="767" y="756" type="curve" smooth="yes"/>
			<point x="767" y="774"/>
			<point x="761" y="796"/>
			<point x="752" y="814" type="curve"/>
			<point x="737" y="823"/>
			<point x="720" y="828"/>
			<point x="696" y="828" type="curve" smooth="yes"/>
			<point x="660" y="828"/>
			<point x="637" y="800"/>
			<point x="637" y="769" type="curve" smooth="yes"/>
			<point x="637" y="725"/>
			<point x="679" y="715"/>
			<point x="679" y="687" type="curve" smooth="yes"/>
			<point x="679" y="660"/>
			<point x="657" y="652"/>
			<point x="578" y="652" type="curve"/>
		</contour>
		<contour>
			<point x="25" y="617" type="line"/>
			<point x="181" y="602" type="line"/>
			<point x="213" y="602" type="line"/>
			<point x="369" y="617" type="line"/>
			<point x="369" y="652" type="line"/>
			<point x="25" y="652" type="line"/>
		</contour>
		<contour>
			<point x="478" y="617" type="line"/>
			<point x="583" y="602" type="line"/>
			<point x="616" y="602" type="line"/>
			<point x="616" y="652" type="line"/>
			<point x="478" y="652" type="line"/>
		</contour>
	</outline>
	<anchor name="aboveUC" x="422" y="672"/>
	<anchor name="belowLC" x="386" y="-20"/>
</glyph>
<glyph name="uhorn" format="2">
	<unicode hex="01B0"/>
	<advance width="617"/>
	<outline>
		<contour>
			<point x="211" y="-16" type="curve" smooth="yes"/>
			<point x="283" y="-16"/>
			<point x="346" y="34"/>
			<point x="386" y="94" type="curve"/>
			<point x="450" y="94" type="line"/>
			<point x="409" y="152" type="line"/>
			<point x="388" y="113"/>
			<point x="351" y="78"/>
			<point x="311" y="78" type="curve" smooth="yes"/>
			<point x="279" y="78"/>
			<point x="257" y="92"/>
			<point x="257" y="144" type="curve" smooth="yes"/>
			<point x="257" y="345" type="line"/>
			<point x="262" y="491" type="line"/>
			<point x="250" y="500" type="line"/>
			<point x="17" y="463" type="line"/>
			<point x="17" y="438" type="line"/>
			<point x="105" y="418" type="line"/>
			<point x="69" y="445" type="line"/>
			<point x="65" y="164" type="line" smooth="yes"/>
			<point x="63" y="32"/>
			<point x="123" y="-16"/>
		</contour>
		<contour>
			<point x="371" y="-14" type="line"/>
			<point x="603" y="-1" type="line"/>
			<point x="603" y="29" type="line"/>
			<point x="557" y="33" type="line"/>
			<point x="557" y="345" type="line"/>
			<point x="560" y="500" type="line"/>
			<point x="508" y="471" type="line"/>
			<point x="587" y="476"/>
			<point x="657" y="530"/>
			<point x="657" y="620" type="curve" smooth="yes"/>
			<point x="657" y="645"/>
			<point x="652" y="665"/>
			<point x="640" y="687" type="curve"/>
			<point x="622" y="697"/>
			<point x="607" y="702"/>
			<point x="586" y="702" type="curve" smooth="yes"/>
			<point x="551" y="702"/>
			<point x="527" y="675"/>
			<point x="527" y="640" type="curve" smooth="yes"/>
			<point x="527" y="590"/>
			<point x="564" y="585"/>
			<point x="564" y="539" type="curve" smooth="yes"/>
			<point x="564" y="508"/>
			<point x="540" y="498"/>
			<point x="508" y="492" type="curve" smooth="yes"/>
			<point x="321" y="458" type="line"/>
			<point x="321" y="438" type="line"/>
			<point x="369" y="426" type="line"/>
			<point x="365" y="92" type="line"/>
			<point x="365" y="89" type="line"/>
		</contour>
	</outline>
</glyph>
<glyph name="schwa" format="2">
	<unicode hex="0259"/>
	<advance width="531"/>
	<outline>
		<contour>
			<point x="258" y="-16" type="curve" smooth="yes"/>
			<point x="408" y="-16"/>
			<point x="511" y="85"/>
			<point x="511" y="243" type="curve" smooth="yes"/>
			<point x="511" y="408"/>
			<point x="405" y="503"/>
			<point x="267" y="503" type="curve" smooth="yes"/>
			<point x="155" y="503"/>
			<point x="92" y="462"/>
			<point x="44" y="384" type="curve"/>
			<point x="63" y="367" type="line"/>
			<point x="92" y="402"/>
			<point x="130" y="424"/>
			<point x="183" y="424" type="curve" smooth="yes"/>
			<point x="260" y="424"/>
			<point x="321" y="369"/>
			<point x="321" y="233" type="curve" smooth="yes"/>
			<point x="321" y="65"/>
			<point x="294" y="18"/>
			<point x="258" y="18" type="curve" smooth="yes"/>
			<point x="229" y="18"/>
			<point x="203" y="46"/>
			<point x="203" y="122" type="curve" smooth="yes"/>
			<point x="203" y="200"/>
			<point x="216" y="225"/>
			<point x="264" y="225" type="curve" smooth="yes"/>
			<point x="432" y="225" type="line"/>
			<point x="432" y="262" type="line"/>
			<point x="32" y="262" type="line"/>
			<point x="29" y="244"/>
			<point x="27" y="230"/>
			<point x="27" y="192" type="curve" smooth="yes"/>
			<point x="27" y="85"/>
			<point x="99" y="-16"/>
		</contour>
	</outline>
	<anchor name="aboveLC" x="261" y="507"/>
	<anchor name="belowLC" x="268" y="-20"/>
</glyph>
<glyph name="gscript" format="2">
	<unicode hex="0261"/>
	<advance width="592"/>
	<outline>
		<contour>
			<point x="52" y="-179"/>
			<point x="112" y="-232"/>
			<point x="239" y="-232" type="curve" smooth="yes"/>
			<point x="347" y="-232"/>
			<point x="422" y="-206"/>
			<point x="472" y="-154" type="curve" smooth="yes"/>
			<point x="528" y="-98"/>
			<point x="545" y="-42"/>
			<point x="545" y="65" type="curve" smooth="yes"/>
			<point x="545" y="358" type="line"/>
			<point x="548" y="494" type="line"/>
			<point x="536" y="503" type="line"/>
			<point x="363" y="433" type="line"/>
			<point x="355" y="433" type="line"/>
			<point x="355" y="66" type="line"/>
			<point x="360" y="62" type="line"/>
			<point x="361" y="51"/>
			<point x="363" y="33"/>
			<point x="363" y="19" type="curve" smooth="yes"/>
			<point x="363" y="-21"/>
			<point x="356" y="-90"/>
			<point x="343" y="-118" type="curve" smooth="yes"/>
			<point x="315" y="-180"/>
			<point x="283" y="-197"/>
			<point x="220" y="-197" type="curve" smooth="yes"/>
			<point x="194" y="-197"/>
			<point x="164" y="-190"/>
			<point x="117" y="-165" type="curve"/>
			<point x="207" y="-217" type="line"/>
			<point x="191" y="-140" type="line" smooth="yes"/>
			<point x="172" y="-49"/>
			<point x="154" y="-16"/>
			<point x="102" y="-16" type="curve" smooth="yes"/>
			<point x="67" y="-16"/>
			<point x="43" y="-36"/>
			<point x="31" y="-75" type="curve"/>
		</contour>
		<contour>
			<point x="220" y="-16" type="curve" smooth="yes"/>
			<point x="292" y="-16"/>
			<point x="351" y="25"/>
			<point x="382" y="94" type="curve"/>
			<point x="388" y="96" type="line"/>
			<point x="375" y="99" type="line"/>
			<point x="358" y="79"/>
			<point x="341" y="68"/>
			<point x="316" y="68" type="curve" smooth="yes"/>
			<point x="261" y="68"/>
			<point x="224" y="89"/>
			<point x="224" y="242" type="curve" smooth="yes"/>
			<point x="224" y="395"/>
			<point x="270" y="427"/>
			<point x="329" y="427" type="curve" smooth="yes"/>
			<point x="350" y="427"/>
			<point x="361" y="421"/>
			<point x="381" y="402" type="curve"/>
			<point x="400" y="412" type="line"/>
			<point x="393" y="412" type="line"/>
			<point x="363" y="472"/>
			<point x="314" y="503"/>
			<point x="252" y="503" type="curve" smooth="yes"/>
			<point x="130" y="503"/>
			<point x="32" y="406"/>
			<point x="32" y="218" type="curve" smooth="yes"/>
			<point x="32" y="66"/>
			<point x="120" y="-16"/>
		</contour>
	</outline>
	<anchor name="aboveLC" x="331" y="507"/>
	<anchor name="belowLC" x="286" y="-242"/>
</glyph>
<glyph name="h.sups" format="2">
	<unicode hex="02B0"/>
	<advance width="412"/>
	<outline>
		<contour>
			<point x="268" y="740" type="curve" smooth="yes"/>
			<point x="214" y="740"/>
			<point x="181" y="714"/>
			<point x="136" y="650" type="curve"/>
			<point x="162" y="670" type="line"/>
			<point x="117" y="670" type="line"/>
			<point x="117" y="636" type="line"/>
			<point x="139" y="636" type="line"/>
			<point x="166" y="668"/>
			<point x="194" y="688"/>
			<point x="219" y="688" type="curve" smooth="yes"/>
			<point x="244" y="688"/>
			<point x="257" y="675"/>
			<point x="257" y="638" type="curve" smooth="yes"/>
			<point x="257" y="415" type="line"/>
			<point x="367" y="415" type="line"/>
			<point x="367" y="629" type="line" smooth="yes"/>
			<point x="367" y="705"/>
			<point x="328" y="740"/>
		</contour>
		<contour>
			<point x="282" y="442" type="line"/>
			<point x="222" y="435" type="line"/>
			<point x="222" y="415" type="line"/>
			<point x="401" y="415" type="line"/>
			<point x="401" y="435" type="line"/>
			<point x="335" y="442" type="line"/>
		</contour>
		<contour>
			<point x="133" y="442" type="line"/>
			<point x="80" y="442" type="line"/>
			<point x="19" y="435" type="line"/>
			<point x="19" y="415" type="line"/>
			<point x="196" y="415" type="line"/>
			<point x="196" y="435" type="line"/>
		</contour>
		<contour>
			<point x="55" y="415" type="line"/>
			<point x="165" y="415" type="line"/>
			<point x="165" y="875" type="line"/>
			<point x="157" y="881" type="line"/>
			<point x="14" y="852" type="line"/>
			<point x="14" y="836" type="line"/>
			<point x="55" y="831" type="line"/>
		</contour>
	</outline>
</glyph>
<glyph name="j.sups" format="2">
	<unicode hex="02B2"/>
	<advance width="200"/>
	<outline>
		<contour>
			<point x="14" y="265" type="curve" smooth="yes"/>
			<point x="50" y="265"/>
			<point x="85" y="274"/>
			<point x="120" y="310" type="curve" smooth="yes"/>
			<point x="152" y="341"/>
			<point x="165" y="372"/>
			<point x="165" y="441" type="curve" smooth="yes"/>
			<point x="165" y="734" type="line"/>
			<point x="156" y="740" type="line"/>
			<point x="11" y="698" type="line"/>
			<point x="11" y="684" type="line"/>
			<point x="54" y="678" type="line"/>
			<point x="54" y="470" type="line" smooth="yes"/>
			<point x="54" y="404"/>
			<point x="59" y="340"/>
			<point x="49" y="309" type="curve"/>
			<point x="44" y="285"/>
			<point x="29" y="277"/>
			<point x="8" y="277" type="curve" smooth="yes"/>
			<point x="-7" y="277"/>
			<point x="-18" y="278"/>
			<point x="-44" y="284" type="curve"/>
			<point x="-3" y="270" type="line"/>
			<point x="55" y="279" type="line"/>
			<point x="36" y="320" type="line" smooth="yes"/>
			<point x="21" y="355"/>
			<point x="-2" y="368"/>
			<point x="-28" y="368" type="curve" smooth="yes"/>
			<point x="-55" y="368"/>
			<point x="-78" y="345"/>
			<point x="-81" y="311" type="curve"/>
			<point x="-70" y="286"/>
			<point x="-43" y="265"/>
		</contour>
		<contour>
			<point x="108" y="790" type="curve" smooth="yes"/>
			<point x="140" y="790"/>
			<point x="165" y="813"/>
			<point x="165" y="844" type="curve" smooth="yes"/>
			<point x="165" y="876"/>
			<point x="140" y="899"/>
			<point x="108" y="899" type="curve" smooth="yes"/>
			<point x="75" y="899"/>
			<point x="50" y="876"/>
			<point x="50" y="844" type="curve" smooth="yes"/>
			<point x="50" y="813"/>
			<point x="75" y="790"/>
		</contour>
	</outline>
</glyph>
<glyph name="r.sups" format="2">
	<unicode hex="02B3"/>
	<advance width="315"/>
	<outline>
		<contour>
			<point x="220" y="691" type="curve"/>
			<point x="185" y="679" type="line"/>
			<point x="200" y="658" type="line" smooth="yes"/>
			<point x="215" y="634"/>
			<point x="231" y="623"/>
			<point x="255" y="623" type="curve" smooth="yes"/>
			<point x="292" y="623"/>
			<point x="311" y="653"/>
			<point x="311" y="692" type="curve"/>
			<point x="303" y="727"/>
			<point x="283" y="740"/>
			<point x="253" y="740" type="curve" smooth="yes"/>
			<point x="215" y="740"/>
			<point x="168" y="699"/>
			<point x="157" y="615" type="curve"/>
			<point x="165" y="636" type="line"/>
			<point x="114" y="636" type="line"/>
			<point x="114" y="598" type="line"/>
			<point x="164" y="598" type="line"/>
			<point x="174" y="644"/>
			<point x="189" y="668"/>
		</contour>
		<contour>
			<point x="155" y="442" type="line"/>
			<point x="81" y="442" type="line"/>
			<point x="17" y="435" type="line"/>
			<point x="17" y="415" type="line"/>
			<point x="218" y="415" type="line"/>
			<point x="218" y="435" type="line"/>
		</contour>
		<contour>
			<point x="165" y="415" type="line"/>
			<point x="165" y="654" type="line"/>
			<point x="159" y="734" type="line"/>
			<point x="150" y="740" type="line"/>
			<point x="12" y="696" type="line"/>
			<point x="12" y="681" type="line"/>
			<point x="55" y="676" type="line"/>
			<point x="55" y="415" type="line"/>
		</contour>
	</outline>
</glyph>
<glyph name="w.sups" format="2">
	<unicode hex="02B7"/>
	<advance width="533"/>
	<outline>
		<contour>
			<point x="475" y="703" type="line"/>
			<point x="528" y="710" type="line"/>
			<point x="528" y="728" type="line"/>
			<point x="405" y="728" type="line"/>
			<point x="405" y="710" type="line"/>
			<point x="464" y="703" type="line"/>
		</contour>
		<contour>
			<point x="97" y="703" type="line"/>
			<point x="177" y="710" type="line"/>
			<point x="177" y="728" type="line"/>
			<point x="-5" y="728" type="line"/>
			<point x="-5" y="710" type="line"/>
			<point x="60" y="703" type="line"/>
		</contour>
		<contour>
			<point x="281" y="703" type="line"/>
			<point x="311" y="703" type="line"/>
			<point x="375" y="710" type="line"/>
			<point x="375" y="728" type="line"/>
			<point x="214" y="728" type="line"/>
			<point x="214" y="710" type="line"/>
		</contour>
		<contour>
			<point x="273" y="666" type="line"/>
			<point x="253" y="624" type="line"/>
			<point x="336" y="414" type="line"/>
			<point x="383" y="414" type="line"/>
			<point x="497" y="728" type="line"/>
			<point x="463" y="728" type="line"/>
			<point x="371" y="419" type="line"/>
			<point x="403" y="507" type="line"/>
			<point x="323" y="728" type="line"/>
			<point x="266" y="728" type="line"/>
			<point x="166" y="419" type="line"/>
			<point x="198" y="507" type="line"/>
			<point x="127" y="728" type="line"/>
			<point x="14" y="728" type="line"/>
			<point x="132" y="414" type="line"/>
			<point x="179" y="414" type="line"/>
		</contour>
	</outline>
</glyph>
<glyph name="y.sups" format="2">
	<unicode hex="02B8"/>
	<advance width="353"/>
	<outline>
		<contour>
			<point x="308" y="704" type="line"/>
			<point x="357" y="710" type="line"/>
			<point x="357" y="728" type="line"/>
			<point x="233" y="728" type="line"/>
			<point x="233" y="710" type="line"/>
			<point x="295" y="704" type="line"/>
		</contour>
		<contour>
			<point x="132" y="703" type="line"/>
			<point x="188" y="710" type="line"/>
			<point x="188" y="728" type="line"/>
			<point x="-3" y="728" type="line"/>
			<point x="-3" y="710" type="line"/>
			<point x="58" y="703" type="line"/>
		</contour>
		<contour>
			<point x="225" y="498" type="line"/>
			<point x="137" y="728" type="line"/>
			<point x="18" y="728" type="line"/>
			<point x="177" y="364" type="line"/>
		</contour>
		<contour>
			<point x="99" y="289" type="curve"/>
			<point x="109" y="278" type="line"/>
			<point x="131" y="294" type="line"/>
			<point x="107" y="323" type="line" smooth="yes"/>
			<point x="91" y="342"/>
			<point x="74" y="349"/>
			<point x="57" y="349" type="curve" smooth="yes"/>
			<point x="32" y="349"/>
			<point x="13" y="338"/>
			<point x="4" y="316" type="curve"/>
			<point x="4" y="285"/>
			<point x="34" y="264"/>
			<point x="68" y="264" type="curve" smooth="yes"/>
			<point x="109" y="264"/>
			<point x="159" y="283"/>
			<point x="195" y="376" type="curve" smooth="yes"/>
			<point x="329" y="728" type="line"/>
			<point x="294" y="728" type="line"/>
			<point x="179" y="398" type="line"/>
			<point x="155" y="338"/>
			<point x="137" y="313"/>
		</contour>
	</outline>
</glyph>
<glyph name="ringhalfleftmod" format="2">
	<unicode hex="02BF"/>
	<advance width="209"/>
	<outline>
		<contour>
			<point x="27" y="605" type="curve" smooth="yes"/>
			<point x="27" y="532"/>
			<point x="83" y="485"/>
			<point x="167" y="485" type="curve"/>
			<point x="167" y="528" type="line"/>
			<point x="112" y="528"/>
			<point x="83" y="568"/>
			<point x="83" y="605" type="curve" smooth="yes"/>
			<point x="83" y="645"/>
			<point x="112" y="682"/>
			<point x="167" y="682" type="curve"/>
			<point x="167" y="725" type="line"/>
			<point x="83" y="725"/>
			<point x="27" y="678"/>
		</contour>
	</outline>
</glyph>
<glyph name="l.sups" format="2">
	<unicode hex="02E1"/>
	<advance width="207"/>
	<outline>
		<contour>
			<point x="18" y="415" type="line"/>
			<point x="202" y="415" type="line"/>
			<point x="202" y="435" type="line"/>
			<point x="134" y="442" type="line"/>
			<point x="81" y="442" type="line"/>
			<point x="18" y="435" type="line"/>
		</contour>
		<contour>
			<point x="54" y="415" type="line"/>
			<point x="165" y="415" type="line"/>
			<point x="165" y="868" type="line"/>
			<point x="157" y="874" type="line"/>
			<point x="14" y="845" type="line"/>
			<point x="14" y="829" type="line"/>
			<point x="54" y="824" type="line"/>
		</contour>
	</outline>
</glyph>
<glyph name="s.sups" format="2">
	<unicode hex="02E2"/>
	<advance width="301"/>
	<outline>
		<contour>
			<point x="141" y="405" type="curve" smooth="yes"/>
			<point x="233" y="405"/>
			<point x="291" y="443"/>
			<point x="291" y="517" type="curve" smooth="yes"/>
			<point x="291" y="567"/>
			<point x="264" y="602"/>
			<point x="200" y="619" type="curve" smooth="yes"/>
			<point x="167" y="628" type="line" smooth="yes"/>
			<point x="120" y="641"/>
			<point x="111" y="658"/>
			<point x="111" y="674" type="curve" smooth="yes"/>
			<point x="111" y="700"/>
			<point x="133" y="714"/>
			<point x="165" y="714" type="curve" smooth="yes"/>
			<point x="193" y="714"/>
			<point x="206" y="708"/>
			<point x="229" y="694" type="curve"/>
			<point x="196" y="725" type="line"/>
			<point x="226" y="639" type="line"/>
			<point x="265" y="639" type="line"/>
			<point x="270" y="714" type="line"/>
			<point x="235" y="731"/>
			<point x="203" y="740"/>
			<point x="163" y="740" type="curve" smooth="yes"/>
			<point x="72" y="740"/>
			<point x="21" y="693"/>
			<point x="21" y="628" type="curve" smooth="yes"/>
			<point x="21" y="578"/>
			<point x="53" y="545"/>
			<point x="106" y="530" type="curve" smooth="yes"/>
			<point x="141" y="521" type="line" smooth="yes"/>
			<point x="186" y="508"/>
			<point x="197" y="492"/>
			<point x="197" y="472" type="curve" smooth="yes"/>
			<point x="197" y="442"/>
			<point x="174" y="431"/>
			<point x="133" y="431" type="curve" smooth="yes"/>
			<point x="104" y="431"/>
			<point x="83" y="439"/>
			<point x="54" y="457" type="curve"/>
			<point x="92" y="429" type="line"/>
			<point x="71" y="518" type="line"/>
			<point x="26" y="518" type="line"/>
			<point x="20" y="436" type="line"/>
			<point x="56" y="415"/>
			<point x="94" y="405"/>
		</contour>
	</outline>
</glyph>
<glyph name="x.sups" format="2">
	<unicode hex="02E3"/>
	<advance width="375"/>
	<outline>
		<contour>
			<point x="22" y="728" type="line"/>
			<point x="139" y="540" type="line"/>
			<point x="221" y="415" type="line"/>
			<point x="350" y="415" type="line"/>
			<point x="225" y="611" type="line"/>
			<point x="148" y="728" type="line"/>
		</contour>
		<contour>
			<point x="57" y="441" type="line"/>
			<point x="4" y="435" type="line"/>
			<point x="4" y="415" type="line"/>
			<point x="127" y="415" type="line"/>
			<point x="127" y="435" type="line"/>
			<point x="79" y="441" type="line"/>
		</contour>
		<contour>
			<point x="134" y="703" type="line"/>
			<point x="200" y="710" type="line"/>
			<point x="200" y="728" type="line"/>
			<point x="9" y="728" type="line"/>
			<point x="9" y="710" type="line"/>
			<point x="78" y="703" type="line"/>
		</contour>
		<contour>
			<point x="257" y="442" type="line"/>
			<point x="166" y="435" type="line"/>
			<point x="166" y="415" type="line"/>
			<point x="361" y="415" type="line"/>
			<point x="361" y="435" type="line"/>
			<point x="287" y="442" type="line"/>
		</contour>
		<contour>
			<point x="307" y="704" type="line"/>
			<point x="351" y="710" type="line"/>
			<point x="351" y="728" type="line"/>
			<point x="238" y="728" type="line"/>
			<point x="238" y="710" type="line"/>
			<point x="285" y="704" type="line"/>
		</contour>
		<contour>
			<point x="71" y="415" type="line"/>
			<point x="186" y="600" type="line"/>
			<point x="172" y="610" type="line"/>
			<point x="30" y="415" type="line"/>
		</contour>
		<contour>
			<point x="293" y="728" type="line"/>
			<point x="185" y="558" type="line"/>
			<point x="198" y="547" type="line"/>
			<point x="333" y="728" type="line"/>
		</contour>
	</outline>
</glyph>
<glyph name="gravecmb" format="2">
	<unicode hex="0300"/>
	<outline>
		<contour>
			<point x="59" y="580" type="line"/>
			<point x="47" y="605"/>
			<point x="35" y="630"/>
			<point x="-4" y="712" type="curve" smooth="yes"/>
			<point x="-29" y="763"/>
			<point x="-57" y="784"/>
			<point x="-95" y="784" type="curve" smooth="yes"/>
			<point x="-125" y="784"/>
			<point x="-156" y="760"/>
			<point x="-156" y="721" type="curve" smooth="yes"/>
			<point x="-156" y="686"/>
			<point x="-125" y="654"/>
			<point x="-77" y="626" type="curve" smooth="yes"/>
			<point x="-7" y="584"/>
			<point x="15" y="573"/>
			<point x="36" y="561" type="curve"/>
		</contour>
	</outline>
	<anchor name="_aboveLC" x="0" y="507"/>
	<anchor name="aboveLC" x="0" y="784"/>
</glyph>
<glyph name="acutecmb" format="2">
	<unicode hex="0301"/>
	<outline>
		<contour>
			<point x="-70" y="580" type="curve"/>
			<point x="-47" y="561" type="line"/>
			<point x="-26" y="573"/>
			<point x="-4" y="584"/>
			<point x="69" y="625" type="curve" smooth="yes"/>
			<point x="119" y="652"/>
			<point x="145" y="686"/>
			<point x="145" y="721" type="curve" smooth="yes"/>
			<point x="145" y="760"/>
			<point x="114" y="784"/>
			<point x="84" y="784" type="curve" smooth="yes"/>
			<point x="46" y="784"/>
			<point x="21" y="761"/>
			<point x="-5" y="711" type="curve" smooth="yes"/>
			<point x="-47" y="631"/>
			<point x="-59" y="606"/>
		</contour>
	</outline>
	<anchor name="_aboveLC" x="0" y="507"/>
	<anchor name="aboveLC" x="0" y="784"/>
</glyph>
<glyph name="circumflexcmb" format="2">
	<unicode hex="0302"/>
	<outline>
		<contour>
			<point x="137" y="553" type="line"/>
			<point x="159" y="575" type="line"/>
			<point x="38" y="757" type="line"/>
			<point x="-38" y="757" type="line"/>
			<point x="-159" y="575" type="line"/>
			<point x="-137" y="553" type="line"/>
			<point x="50" y="679" type="line"/>
			<point x="-50" y="679" type="line"/>
		</contour>
	</outline>
	<anchor name="_aboveLC" x="0" y="507"/>
	<anchor name="aboveLC" x="0" y="757"/>
</glyph>
<glyph name="tildecmb" format="2">
	<unicode hex="0303"/>
	<outline>
		<contour>
			<point x="-176" y="584" type="curve"/>
			<point x="-150" y="576" type="line"/>
			<point x="-138" y="608"/>
			<point x="-115" y="626"/>
			<point x="-86" y="626" type="curve" smooth="yes"/>
			<point x="-57" y="626"/>
			<point x="-32" y="608"/>
			<point x="-10" y="594" type="curve" smooth="yes"/>
			<point x="10" y="582"/>
			<point x="32" y="570"/>
			<point x="62" y="570" type="curve" smooth="yes"/>
			<point x="121" y="570"/>
			<point x="164" y="619"/>
			<point x="176" y="718" type="curve"/>
			<point x="150" y="726" type="line"/>
			<point x="138" y="694"/>
			<point x="115" y="676"/>
			<point x="86" y="676" type="curve" smooth="yes"/>
			<point x="57" y="676"/>
			<point x="32" y="694"/>
			<point x="10" y="708" type="curve" smooth="yes"/>
			<point x="-10" y="720"/>
			<point x="-32" y="732"/>
			<point x="-61" y="732" type="curve" smooth="yes"/>
			<point x="-119" y="732"/>
			<point x="-164" y="680"/>
		</contour>
	</outline>
	<anchor name="_aboveLC" x="0" y="507"/>
	<anchor name="aboveLC" x="0" y="734"/>
</glyph>
<glyph name="brevecmb" format="2">
	<unicode hex="0306"/>
	<outline>
		<contour>
			<point x="-166" y="725" type="line"/>
			<point x="-162" y="659"/>
			<point x="-124" y="563"/>
			<point x="0" y="563" type="curve" smooth="yes"/>
			<point x="124" y="563"/>
			<point x="162" y="659"/>
			<point x="166" y="725" type="curve"/>
			<point x="140" y="732" type="line"/>
			<point x="122" y="687"/>
			<point x="69" y="653"/>
			<point x="0" y="653" type="curve" smooth="yes"/>
			<point x="-69" y="653"/>
			<point x="-120" y="684"/>
			<point x="-140" y="732" type="curve"/>
		</contour>
	</outline>
	<anchor name="_aboveLC" x="0" y="520"/>
</glyph>
<glyph name="hoicmb" format="2">
	<unicode hex="0309"/>
	<outline>
		<contour>
			<point x="-27" y="557" type="line"/>
			<point x="57" y="567"/>
			<point x="95" y="608"/>
			<point x="95" y="667" type="curve" smooth="yes"/>
			<point x="95" y="747"/>
			<point x="43" y="790"/>
			<point x="-64" y="799" type="curve"/>
			<point x="-75" y="685" type="line"/>
			<point x="-1" y="677"/>
			<point x="27" y="669"/>
			<point x="27" y="639" type="curve" smooth="yes"/>
			<point x="27" y="617"/>
			<point x="19" y="602"/>
			<point x="-34" y="586" type="curve"/>
		</contour>
	</outline>
	<anchor name="_aboveLC" x="0" y="507"/>
	<anchor name="aboveLC" x="0" y="799"/>
</glyph>
<glyph name="hungarumlautcmb" format="2">
	<unicode hex="030B"/>
	<outline>
		<contour>
			<point x="-99" y="570" type="line"/>
			<point x="-73" y="557" type="line"/>
			<point x="20" y="669" type="line" smooth="yes"/>
			<point x="48" y="702"/>
			<point x="60" y="725"/>
			<point x="60" y="749" type="curve" smooth="yes"/>
			<point x="60" y="781"/>
			<point x="41" y="800"/>
			<point x="11" y="800" type="curve" smooth="yes"/>
			<point x="-25" y="800"/>
			<point x="-55" y="779"/>
			<point x="-69" y="714" type="curve" smooth="yes"/>
		</contour>
		<contour>
			<point x="44" y="572" type="line"/>
			<point x="69" y="557" type="line"/>
			<point x="170" y="662" type="line" smooth="yes"/>
			<point x="200" y="693"/>
			<point x="212" y="716"/>
			<point x="212" y="743" type="curve" smooth="yes"/>
			<point x="212" y="772"/>
			<point x="197" y="794"/>
			<point x="167" y="794" type="curve" smooth="yes"/>
			<point x="134" y="794"/>
			<point x="103" y="777"/>
			<point x="84" y="713" type="curve" smooth="yes"/>
		</contour>
	</outline>
	<anchor name="_aboveLC" x="0" y="507"/>
	<anchor name="aboveLC" x="0" y="800"/>
</glyph>
<glyph name="caroncmb" format="2">
	<unicode hex="030C"/>
	<outline>
		<contour>
			<point x="-148" y="773" type="line"/>
			<point x="-172" y="752" type="line"/>
			<point x="-45" y="563" type="line"/>
			<point x="45" y="563" type="line"/>
			<point x="171" y="752" type="line"/>
			<point x="147" y="773" type="line"/>
			<point x="-44" y="640" type="line"/>
			<point x="44" y="640" type="line"/>
		</contour>
	</outline>
	<anchor name="_aboveLC" x="0" y="507"/>
	<anchor name="aboveLC" x="0" y="779"/>
</glyph>
<glyph name="commabelowcmb" format="2">
	<unicode hex="0326"/>
	<outline>
		<contour>
			<point x="73" y="-121" type="curve" smooth="yes"/>
			<point x="73" y="-102"/>
			<point x="70" y="-85"/>
			<point x="63" y="-66" type="curve"/>
			<point x="34" y="-48"/>
			<point x="17" y="-44"/>
			<point x="-6" y="-44" type="curve" smooth="yes"/>
			<point x="-50" y="-44"/>
			<point x="-84" y="-71"/>
			<point x="-84" y="-108" type="curve" smooth="yes"/>
			<point x="-84" y="-147"/>
			<point x="-54" y="-176"/>
			<point x="5" y="-201" type="curve"/>
			<point x="18" y="-142" type="line"/>
			<point x="-10" y="-199"/>
			<point x="-38" y="-217"/>
			<point x="-94" y="-240" type="curve"/>
			<point x="-83" y="-268" type="line"/>
			<point x="4" y="-239"/>
			<point x="73" y="-188"/>
		</contour>
	</outline>
	<anchor name="_belowLC" x="0" y="-22"/>
</glyph>
<glyph name="cedillacmb" format="2">
	<unicode hex="0327"/>
	<outline>
		<contour>
			<point x="-36" y="-90" type="line"/>
			<point x="5" y="-95"/>
			<point x="25" y="-110"/>
			<point x="25" y="-139" type="curve" smooth="yes"/>
			<point x="25" y="-169"/>
			<point x="8" y="-187"/>
			<point x="-25" y="-187" type="curve" smooth="yes"/>
			<point x="-44" y="-187"/>
			<point x="-69" y="-185"/>
			<point x="-91" y="-179" type="curve"/>
			<point x="-99" y="-212" type="line"/>
			<point x="-79" y="-221"/>
			<point x="-50" y="-227"/>
			<point x="-3" y="-227" type="curve" smooth="yes"/>
			<point x="84" y="-227"/>
			<point x="129" y="-185"/>
			<point x="129" y="-140" type="curve" smooth="yes"/>
			<point x="129" y="-102"/>
			<point x="94" y="-62"/>
			<point x="-16" y="-62" type="curve"/>
			<point x="3" y="-71" type="line"/>
			<point x="12" y="5" type="line"/>
			<point x="-21" y="5" type="line"/>
		</contour>
	</outline>
	<anchor name="_baseLC" x="0" y="0"/>
</glyph>
<glyph name="ogonekcmb" format="2">
	<unicode hex="0328"/>
	<outline>
		<contour>
			<point x="-31" y="-227" type="curve" smooth="yes"/>
			<point x="19" y="-227"/>
			<point x="63" y="-202"/>
			<point x="89" y="-169" type="curve"/>
			<point x="82" y="-146" type="line"/>
			<point x="68" y="-152"/>
			<point x="55" y="-154"/>
			<point x="34" y="-154" type="curve" smooth="yes"/>
			<point x="1" y="-154"/>
			<point x="-25" y="-131"/>
			<point x="-25" y="-87" type="curve" smooth="yes"/>
			<point x="-25" y="-46"/>
			<point x="-9" y="-16"/>
			<point x="31" y="8" type="curve"/>
			<point x="9" y="8" type="line"/>
			<point x="9" y="7" type="line"/>
			<point x="-84" y="-25"/>
			<point x="-140" y="-63"/>
			<point x="-140" y="-135" type="curve" smooth="yes"/>
			<point x="-140" y="-182"/>
			<point x="-106" y="-227"/>
		</contour>
	</outline>
	<anchor name="_ogonek" x="0" y="0"/>
</glyph>
<glyph name="Delta" format="2">
	<unicode hex="0394"/>
	<unicode hex="2206"/>
	<advance width="626"/>
	<outline>
		<contour>
			<point x="45" y="0" type="line"/>
			<point x="61" y="0" type="line"/>
			<point x="255" y="520" type="line"/>
			<point x="260" y="534" type="line"/>
			<point x="243" y="534" type="line"/>
			<point x="430" y="0" type="line"/>
			<point x="604" y="0" type="line"/>
			<point x="604" y="85" type="line"/>
			<point x="388" y="652" type="line"/>
			<point x="267" y="652" type="line"/>
			<point x="45" y="85" type="line"/>
		</contour>
		<contour>
			<point x="53" y="0" type="line"/>
			<point x="523" y="0" type="line"/>
			<point x="523" y="110" type="line"/>
			<point x="71" y="110" type="line"/>
		</contour>
	</outline>
</glyph>
<glyph name="Theta" format="2">
	<unicode hex="0398"/>
	<advance width="700"/>
	<outline>
		<contour>
			<point x="350" y="-20" type="curve" smooth="yes"/>
			<point x="519" y="-20"/>
			<point x="672" y="91"/>
			<point x="672" y="326" type="curve" smooth="yes"/>
			<point x="672" y="561"/>
			<point x="518" y="672"/>
			<point x="350" y="672" type="curve" smooth="yes"/>
			<point x="182" y="672"/>
			<point x="28" y="561"/>
			<point x="28" y="326" type="curve" smooth="yes"/>
			<point x="28" y="91"/>
			<point x="181" y="-20"/>
		</contour>
		<contour>
			<point x="350" y="18" type="curve" smooth="yes"/>
			<point x="254" y="18"/>
			<point x="218" y="140"/>
			<point x="218" y="326" type="curve" smooth="yes"/>
			<point x="218" y="510"/>
			<point x="254" y="634"/>
			<point x="350" y="634" type="curve" smooth="yes"/>
			<point x="446" y="634"/>
			<point x="482" y="510"/>
			<point x="482" y="326" type="curve" smooth="yes"/>
			<point x="482" y="140"/>
			<point x="446" y="18"/>
		</contour>
		<contour>
			<point x="401" y="322" type="line"/>
			<point x="416" y="225" type="line"/>
			<point x="449" y="225" type="line"/>
			<point x="449" y="432" type="line"/>
			<point x="416" y="432" type="line"/>
			<point x="401" y="340" type="line"/>
		</contour>
		<contour>
			<point x="299" y="322" type="line"/>
			<point x="299" y="340" type="line"/>
			<point x="284" y="432" type="line"/>
			<point x="251" y="432" type="line"/>
			<point x="251" y="225" type="line"/>
			<point x="284" y="225" type="line"/>
		</contour>
		<contour>
			<point x="279" y="395" type="line"/>
			<point x="279" y="261" type="line"/>
			<point x="421" y="261" type="line"/>
			<point x="421" y="395" type="line"/>
		</contour>
	</outline>
</glyph>
<glyph name="Lambda" format="2">
	<unicode hex="039B"/>
	<advance width="680"/>
	<outline>
		<contour>
			<point x="10" y="0" type="line"/>
			<point x="221" y="0" type="line"/>
			<point x="221" y="35" type="line"/>
			<point x="107" y="50" type="line"/>
			<point x="94" y="50" type="line"/>
			<point x="10" y="35" type="line"/>
		</contour>
		<contour>
			<point x="69" y="0" type="line"/>
			<point x="126" y="0" type="line"/>
			<point x="280" y="514" type="line"/>
			<point x="286" y="536" type="line"/>
			<point x="263" y="536" type="line"/>
			<point x="425" y="0" type="line"/>
			<point x="628" y="0" type="line"/>
			<point x="408" y="652" type="line"/>
			<point x="288" y="652" type="line"/>
		</contour>
		<contour>
			<point x="343" y="0" type="line"/>
			<point x="666" y="0" type="line"/>
			<point x="666" y="35" type="line"/>
			<point x="515" y="50" type="line"/>
			<point x="474" y="50" type="line"/>
			<point x="343" y="35" type="line"/>
		</contour>
	</outline>
</glyph>
<glyph name="Xi" format="2">
	<unicode hex="039E"/>
	<advance width="564"/>
	<outline>
		<contour>
			<point x="32" y="0" type="line"/>
			<point x="532" y="0" type="line"/>
			<point x="535" y="200" type="line"/>
			<point x="491" y="200" type="line"/>
			<point x="446" y="0" type="line"/>
			<point x="499" y="120" type="line"/>
			<point x="65" y="120" type="line"/>
			<point x="118" y="0" type="line"/>
			<point x="83" y="200" type="line"/>
			<point x="29" y="200" type="line"/>
		</contour>
		<contour>
			<point x="133" y="228" type="line"/>
			<point x="196" y="228" type="line"/>
			<point x="211" y="320" type="line"/>
			<point x="211" y="338" type="line"/>
			<point x="196" y="425" type="line"/>
			<point x="133" y="425" type="line"/>
		</contour>
		<contour>
			<point x="181" y="291" type="line"/>
			<point x="383" y="291" type="line"/>
			<point x="383" y="365" type="line"/>
			<point x="181" y="365" type="line"/>
		</contour>
		<contour>
			<point x="368" y="228" type="line"/>
			<point x="431" y="228" type="line"/>
			<point x="431" y="425" type="line"/>
			<point x="368" y="425" type="line"/>
			<point x="353" y="338" type="line"/>
			<point x="353" y="320" type="line"/>
		</contour>
		<contour>
			<point x="39" y="452" type="line"/>
			<point x="83" y="452" type="line"/>
			<point x="128" y="652" type="line"/>
			<point x="75" y="532" type="line"/>
			<point x="489" y="532" type="line"/>
			<point x="436" y="652" type="line"/>
			<point x="481" y="452" type="line"/>
			<point x="525" y="452" type="line"/>
			<point x="522" y="652" type="line"/>
			<point x="42" y="652" type="line"/>
		</contour>
	</outline>
</glyph>
<glyph name="Pi" format="2">
	<unicode hex="03A0"/>
	<advance width="752"/>
	<outline>
		<contour>
			<point x="544" y="50" type="line"/>
			<point x="395" y="35" type="line"/>
			<point x="395" y="0" type="line"/>
			<point x="724" y="0" type="line"/>
			<point x="724" y="35" type="line"/>
			<point x="575" y="50" type="line"/>
		</contour>
		<contour>
			<point x="458" y="311" type="line" smooth="yes"/>
			<point x="458" y="205"/>
			<point x="458" y="101"/>
			<point x="455" y="0" type="curve"/>
			<point x="659" y="0" type="line"/>
			<point x="656" y="103"/>
			<point x="656" y="207"/>
			<point x="656" y="310" type="curve" smooth="yes"/>
			<point x="656" y="342" type="line" smooth="yes"/>
			<point x="656" y="447"/>
			<point x="656" y="551"/>
			<point x="659" y="652" type="curve"/>
			<point x="455" y="652" type="line"/>
			<point x="458" y="549"/>
			<point x="458" y="445"/>
			<point x="458" y="342" type="curve" smooth="yes"/>
		</contour>
		<contour>
			<point x="96" y="310" type="line" smooth="yes"/>
			<point x="96" y="205"/>
			<point x="96" y="101"/>
			<point x="93" y="0" type="curve"/>
			<point x="297" y="0" type="line"/>
			<point x="294" y="103"/>
			<point x="294" y="207"/>
			<point x="294" y="311" type="curve" smooth="yes"/>
			<point x="294" y="342" type="line" smooth="yes"/>
			<point x="294" y="447"/>
			<point x="294" y="551"/>
			<point x="297" y="652" type="curve"/>
			<point x="93" y="652" type="line"/>
			<point x="96" y="549"/>
			<point x="96" y="445"/>
			<point x="96" y="342" type="curve" smooth="yes"/>
		</contour>
		<contour>
			<point x="172" y="50" type="line"/>
			<point x="28" y="35" type="line"/>
			<point x="28" y="0" type="line"/>
			<point x="357" y="0" type="line"/>
			<point x="357" y="35" type="line"/>
			<point x="205" y="50" type="line"/>
		</contour>
		<contour>
			<point x="555" y="607" type="line"/>
			<point x="555" y="652" type="line"/>
			<point x="197" y="652" type="line"/>
			<point x="197" y="607" type="line"/>
		</contour>
		<contour>
			<point x="555" y="602" type="line"/>
			<point x="573" y="602" type="line"/>
			<point x="724" y="617" type="line"/>
			<point x="724" y="652" type="line"/>
			<point x="555" y="652" type="line"/>
		</contour>
		<contour>
			<point x="179" y="602" type="line"/>
			<point x="197" y="602" type="line"/>
			<point x="197" y="652" type="line"/>
			<point x="28" y="652" type="line"/>
			<point x="28" y="617" type="line"/>
		</contour>
	</outline>
</glyph>
<glyph name="Sigma" format="2">
	<unicode hex="03A3"/>
	<advance width="568"/>
	<outline>
		<contour>
			<point x="33" y="0" type="line"/>
			<point x="535" y="0" type="line"/>
			<point x="533" y="269" type="line"/>
			<point x="471" y="269" type="line"/>
			<point x="424" y="80" type="line"/>
			<point x="502" y="140" type="line"/>
			<point x="107" y="140" type="line"/>
			<point x="107" y="160" type="line"/>
			<point x="55" y="72" type="line"/>
			<point x="222" y="242" type="line"/>
			<point x="348" y="369" type="line"/>
			<point x="189" y="642" type="line"/>
			<point x="197" y="592" type="line"/>
			<point x="197" y="614" type="line"/>
			<point x="321" y="614" type="line"/>
			<point x="425" y="614" type="line"/>
			<point x="400" y="629" type="line"/>
			<point x="452" y="452" type="line"/>
			<point x="514" y="452" type="line"/>
			<point x="519" y="652" type="line"/>
			<point x="44" y="652" type="line"/>
			<point x="44" y="595" type="line"/>
			<point x="240" y="285" type="line"/>
			<point x="247" y="320" type="line"/>
			<point x="33" y="95" type="line"/>
		</contour>
	</outline>
</glyph>
<glyph name="Psi" format="2">
	<unicode hex="03A8"/>
	<advance width="852"/>
	<outline>
		<contour>
			<point x="426" y="219" type="curve" smooth="yes"/>
			<point x="717" y="219"/>
			<point x="754" y="320"/>
			<point x="776" y="487" type="curve" smooth="yes"/>
			<point x="786" y="563" type="line" smooth="yes"/>
			<point x="790" y="596"/>
			<point x="807" y="610"/>
			<point x="850" y="616" type="curve" smooth="yes"/>
			<point x="857" y="617" type="line"/>
			<point x="857" y="652" type="line"/>
			<point x="794" y="652" type="line" smooth="yes"/>
			<point x="680" y="652"/>
			<point x="631" y="616"/>
			<point x="618" y="512" type="curve" smooth="yes"/>
			<point x="611" y="457" type="line" smooth="yes"/>
			<point x="594" y="324"/>
			<point x="592" y="252"/>
			<point x="426" y="252" type="curve" smooth="yes"/>
			<point x="260" y="252"/>
			<point x="258" y="324"/>
			<point x="241" y="457" type="curve" smooth="yes"/>
			<point x="234" y="512" type="line" smooth="yes"/>
			<point x="221" y="616"/>
			<point x="172" y="652"/>
			<point x="58" y="652" type="curve" smooth="yes"/>
			<point x="-5" y="652" type="line"/>
			<point x="-5" y="617" type="line"/>
			<point x="2" y="616" type="line" smooth="yes"/>
			<point x="45" y="610"/>
			<point x="62" y="596"/>
			<point x="66" y="563" type="curve" smooth="yes"/>
			<point x="76" y="487" type="line" smooth="yes"/>
			<point x="98" y="320"/>
			<point x="135" y="219"/>
		</contour>
		<contour>
			<point x="334" y="0" type="curve"/>
			<point x="518" y="0" type="line"/>
			<point x="515" y="103"/>
			<point x="515" y="207"/>
			<point x="515" y="311" type="curve" smooth="yes"/>
			<point x="515" y="342" type="line" smooth="yes"/>
			<point x="515" y="447"/>
			<point x="515" y="551"/>
			<point x="518" y="652" type="curve"/>
			<point x="334" y="652" type="line"/>
			<point x="337" y="549"/>
			<point x="337" y="445"/>
			<point x="337" y="342" type="curve" smooth="yes"/>
			<point x="337" y="310" type="line" smooth="yes"/>
			<point x="337" y="205"/>
			<point x="337" y="101"/>
		</contour>
		<contour>
			<point x="266" y="0" type="line"/>
			<point x="586" y="0" type="line"/>
			<point x="586" y="35" type="line"/>
			<point x="441" y="50" type="line"/>
			<point x="408" y="50" type="line"/>
			<point x="266" y="35" type="line"/>
		</contour>
		<contour>
			<point x="286" y="617" type="line"/>
			<point x="408" y="602" type="line"/>
			<point x="441" y="602" type="line"/>
			<point x="566" y="617" type="line"/>
			<point x="566" y="652" type="line"/>
			<point x="286" y="652" type="line"/>
		</contour>
	</outline>
</glyph>
<glyph name="Omega" format="2">
	<unicode hex="03A9"/>
	<unicode hex="2126"/>
	<advance width="744"/>
	<outline>
		<contour>
			<point x="21" y="0" type="line"/>
			<point x="322" y="0" type="line"/>
			<point x="333" y="130" type="line"/>
			<point x="255" y="192"/>
			<point x="238" y="274"/>
			<point x="238" y="407" type="curve" smooth="yes"/>
			<point x="238" y="521"/>
			<point x="279" y="632"/>
			<point x="372" y="632" type="curve" smooth="yes"/>
			<point x="473" y="632"/>
			<point x="506" y="515"/>
			<point x="506" y="407" type="curve" smooth="yes"/>
			<point x="506" y="274"/>
			<point x="488" y="192"/>
			<point x="410" y="130" type="curve"/>
			<point x="422" y="0" type="line"/>
			<point x="723" y="0" type="line"/>
			<point x="734" y="200" type="line"/>
			<point x="684" y="200" type="line"/>
			<point x="633" y="91" type="line"/>
			<point x="671" y="120" type="line"/>
			<point x="470" y="120" type="line"/>
			<point x="482" y="90" type="line"/>
			<point x="479" y="129" type="line"/>
			<point x="610" y="171"/>
			<point x="701" y="251"/>
			<point x="701" y="394" type="curve" smooth="yes"/>
			<point x="701" y="529"/>
			<point x="604" y="672"/>
			<point x="372" y="672" type="curve" smooth="yes"/>
			<point x="140" y="672"/>
			<point x="43" y="529"/>
			<point x="43" y="394" type="curve" smooth="yes"/>
			<point x="43" y="251"/>
			<point x="134" y="171"/>
			<point x="265" y="129" type="curve"/>
			<point x="262" y="90" type="line"/>
			<point x="274" y="120" type="line"/>
			<point x="73" y="120" type="line"/>
			<point x="111" y="91" type="line"/>
			<point x="60" y="200" type="line"/>
			<point x="10" y="200" type="line"/>
		</contour>
	</outline>
</glyph>
<glyph name="alpha" format="2">
	<unicode hex="03B1"/>
	<advance width="599"/>
	<outline>
		<contour>
			<point x="219" y="-15" type="curve" smooth="yes"/>
			<point x="276" y="-15"/>
			<point x="330" y="14"/>
			<point x="364" y="108" type="curve"/>
			<point x="349" y="105" type="line"/>
			<point x="364" y="25"/>
			<point x="405" y="-16"/>
			<point x="477" y="-16" type="curve" smooth="yes"/>
			<point x="536" y="-16"/>
			<point x="581" y="19"/>
			<point x="596" y="61" type="curve"/>
			<point x="583" y="75" type="line"/>
			<point x="575" y="71"/>
			<point x="567" y="67"/>
			<point x="553" y="67" type="curve" smooth="yes"/>
			<point x="522" y="67"/>
			<point x="508" y="91"/>
			<point x="508" y="132" type="curve" smooth="yes"/>
			<point x="508" y="234"/>
			<point x="522" y="345"/>
			<point x="543" y="486" type="curve"/>
			<point x="533" y="495" type="line"/>
			<point x="355" y="474" type="line"/>
			<point x="349" y="402" type="line"/>
			<point x="345" y="217" type="line" smooth="yes"/>
			<point x="342" y="92"/>
			<point x="309" y="50"/>
			<point x="276" y="50" type="curve" smooth="yes"/>
			<point x="236" y="50"/>
			<point x="202" y="97"/>
			<point x="202" y="247" type="curve" smooth="yes"/>
			<point x="202" y="396"/>
			<point x="234" y="440"/>
			<point x="278" y="440" type="curve" smooth="yes"/>
			<point x="313" y="440"/>
			<point x="341" y="415"/>
			<point x="362" y="360" type="curve"/>
			<point x="377" y="360" type="line"/>
			<point x="375" y="360" type="line"/>
			<point x="368" y="438"/>
			<point x="311" y="503"/>
			<point x="225" y="503" type="curve" smooth="yes"/>
			<point x="105" y="503"/>
			<point x="26" y="402"/>
			<point x="26" y="234" type="curve" smooth="yes"/>
			<point x="26" y="79"/>
			<point x="103" y="-15"/>
		</contour>
	</outline>
	<anchor name="aboveLC" x="302" y="507"/>
	<anchor name="belowLC" x="320" y="-20"/>
</glyph>
<glyph name="beta" format="2">
	<unicode hex="03B2"/>
	<advance width="601"/>
	<outline>
		<contour>
			<point x="49" y="-189" type="line"/>
			<point x="57" y="-195" type="line"/>
			<point x="264" y="-160" type="line"/>
			<point x="225" y="90" type="line"/>
			<point x="227" y="102" type="line"/>
			<point x="233" y="592" type="line" smooth="yes"/>
			<point x="234" y="659"/>
			<point x="268" y="686"/>
			<point x="310" y="686" type="curve" smooth="yes"/>
			<point x="357" y="686"/>
			<point x="389" y="653"/>
			<point x="389" y="567" type="curve" smooth="yes"/>
			<point x="389" y="484"/>
			<point x="360" y="444"/>
			<point x="259" y="394" type="curve"/>
			<point x="276" y="331" type="line"/>
			<point x="369" y="328"/>
			<point x="408" y="287"/>
			<point x="408" y="184" type="curve" smooth="yes"/>
			<point x="408" y="116"/>
			<point x="368" y="77"/>
			<point x="308" y="77" type="curve" smooth="yes"/>
			<point x="275" y="77"/>
			<point x="248" y="95"/>
			<point x="221" y="117" type="curve"/>
			<point x="210" y="105" type="line"/>
			<point x="214" y="105" type="line"/>
			<point x="253" y="15"/>
			<point x="296" y="-16"/>
			<point x="375" y="-16" type="curve" smooth="yes"/>
			<point x="487" y="-16"/>
			<point x="568" y="69"/>
			<point x="568" y="167" type="curve" smooth="yes"/>
			<point x="568" y="287"/>
			<point x="470" y="370"/>
			<point x="283" y="374" type="curve"/>
			<point x="283" y="360" type="line"/>
			<point x="463" y="385"/>
			<point x="529" y="469"/>
			<point x="529" y="556" type="curve" smooth="yes"/>
			<point x="529" y="657"/>
			<point x="464" y="721"/>
			<point x="327" y="721" type="curve" smooth="yes"/>
			<point x="165" y="721"/>
			<point x="60" y="624"/>
			<point x="60" y="414" type="curve" smooth="yes"/>
			<point x="60" y="66" type="line"/>
		</contour>
	</outline>
</glyph>
<glyph name="gamma" format="2">
	<unicode hex="03B3"/>
	<advance width="557"/>
	<outline>
		<contour>
			<point x="184" y="-189" type="line"/>
			<point x="193" y="-196" type="line"/>
			<point x="373" y="-161" type="line"/>
			<point x="358" y="46" type="line"/>
			<point x="349" y="51" type="line"/>
			<point x="328" y="152"/>
			<point x="297" y="266"/>
			<point x="275" y="339" type="curve" smooth="yes"/>
			<point x="234" y="479"/>
			<point x="194" y="498"/>
			<point x="126" y="498" type="curve" smooth="yes"/>
			<point x="68" y="498"/>
			<point x="22" y="465"/>
			<point x="2" y="408" type="curve"/>
			<point x="6" y="394" type="line"/>
			<point x="11" y="395"/>
			<point x="15" y="396"/>
			<point x="20" y="396" type="curve" smooth="yes"/>
			<point x="55" y="396"/>
			<point x="68" y="391"/>
			<point x="94" y="323" type="curve" smooth="yes"/>
			<point x="122" y="250"/>
			<point x="182" y="110"/>
			<point x="226" y="-73" type="curve"/>
			<point x="229" y="15" type="line"/>
		</contour>
		<contour>
			<point x="342" y="-6" type="line"/>
			<point x="417" y="118"/>
			<point x="522" y="285"/>
			<point x="522" y="406" type="curve" smooth="yes"/>
			<point x="522" y="434"/>
			<point x="520" y="450"/>
			<point x="513" y="474" type="curve"/>
			<point x="493" y="495"/>
			<point x="476" y="503"/>
			<point x="447" y="503" type="curve" smooth="yes"/>
			<point x="389" y="503"/>
			<point x="357" y="457"/>
			<point x="357" y="394" type="curve" smooth="yes"/>
			<point x="357" y="349"/>
			<point x="373" y="312"/>
			<point x="424" y="162" type="curve"/>
			<point x="429" y="348" type="line"/>
			<point x="413" y="236"/>
			<point x="376" y="126"/>
			<point x="320" y="20" type="curve"/>
		</contour>
	</outline>
</glyph>
<glyph name="delta" format="2">
	<unicode hex="03B4"/>
	<advance width="552"/>
	<outline>
		<contour>
			<point x="273" y="-15" type="curve" smooth="yes"/>
			<point x="391" y="-15"/>
			<point x="520" y="72"/>
			<point x="520" y="230" type="curve" smooth="yes"/>
			<point x="520" y="335"/>
			<point x="471" y="415"/>
			<point x="353" y="501" type="curve" smooth="yes"/>
			<point x="221" y="598"/>
			<point x="196" y="620"/>
			<point x="196" y="650" type="curve" smooth="yes"/>
			<point x="196" y="682"/>
			<point x="231" y="696"/>
			<point x="271" y="696" type="curve" smooth="yes"/>
			<point x="299" y="696"/>
			<point x="318" y="686"/>
			<point x="329" y="678" type="curve"/>
			<point x="329" y="703" type="line"/>
			<point x="275" y="704" type="line"/>
			<point x="318" y="627" type="line" smooth="yes"/>
			<point x="347" y="576"/>
			<point x="381" y="560"/>
			<point x="415" y="560" type="curve" smooth="yes"/>
			<point x="459" y="560"/>
			<point x="491" y="590"/>
			<point x="492" y="624" type="curve"/>
			<point x="479" y="674"/>
			<point x="402" y="721"/>
			<point x="285" y="721" type="curve" smooth="yes"/>
			<point x="163" y="721"/>
			<point x="81" y="662"/>
			<point x="81" y="580" type="curve" smooth="yes"/>
			<point x="81" y="520"/>
			<point x="109" y="478"/>
			<point x="239" y="384" type="curve" smooth="yes"/>
			<point x="331" y="318"/>
			<point x="359" y="233"/>
			<point x="359" y="160" type="curve" smooth="yes"/>
			<point x="359" y="48"/>
			<point x="340" y="20"/>
			<point x="300" y="20" type="curve" smooth="yes"/>
			<point x="249" y="20"/>
			<point x="203" y="101"/>
			<point x="203" y="247" type="curve" smooth="yes"/>
			<point x="203" y="323"/>
			<point x="222" y="369"/>
			<point x="269" y="399" type="curve"/>
			<point x="256" y="420" type="line"/>
			<point x="256" y="404" type="line"/>
			<point x="122" y="395"/>
			<point x="27" y="330"/>
			<point x="27" y="195" type="curve" smooth="yes"/>
			<point x="27" y="87"/>
			<point x="113" y="-15"/>
		</contour>
	</outline>
</glyph>
<glyph name="epsilon" format="2">
	<unicode hex="03B5"/>
	<advance width="509"/>
	<outline>
		<contour>
			<point x="245" y="-16" type="curve" smooth="yes"/>
			<point x="355" y="-16"/>
			<point x="449" y="44"/>
			<point x="485" y="127" type="curve"/>
			<point x="462" y="151" type="line"/>
			<point x="419" y="109"/>
			<point x="378" y="93"/>
			<point x="296" y="93" type="curve" smooth="yes"/>
			<point x="230" y="93"/>
			<point x="207" y="124"/>
			<point x="207" y="152" type="curve" smooth="yes"/>
			<point x="207" y="197"/>
			<point x="230" y="220"/>
			<point x="299" y="220" type="curve" smooth="yes"/>
			<point x="313" y="220"/>
			<point x="327" y="220"/>
			<point x="361" y="218" type="curve"/>
			<point x="361" y="294" type="line"/>
			<point x="337" y="292"/>
			<point x="322" y="292"/>
			<point x="302" y="292" type="curve" smooth="yes"/>
			<point x="234" y="292"/>
			<point x="207" y="331"/>
			<point x="207" y="382" type="curve" smooth="yes"/>
			<point x="207" y="432"/>
			<point x="238" y="460"/>
			<point x="274" y="460" type="curve" smooth="yes"/>
			<point x="291" y="460"/>
			<point x="316" y="460"/>
			<point x="349" y="458" type="curve"/>
			<point x="312" y="489" type="line"/>
			<point x="254" y="484" type="line"/>
			<point x="314" y="413" type="line" smooth="yes"/>
			<point x="359" y="359"/>
			<point x="384" y="358"/>
			<point x="417" y="358" type="curve" smooth="yes"/>
			<point x="457" y="358"/>
			<point x="476" y="380"/>
			<point x="476" y="420" type="curve"/>
			<point x="462" y="472"/>
			<point x="372" y="503"/>
			<point x="275" y="503" type="curve" smooth="yes"/>
			<point x="124" y="503"/>
			<point x="52" y="438"/>
			<point x="52" y="367" type="curve" smooth="yes"/>
			<point x="52" y="302"/>
			<point x="112" y="254"/>
			<point x="263" y="249" type="curve"/>
			<point x="263" y="259" type="line"/>
			<point x="83" y="246"/>
			<point x="32" y="180"/>
			<point x="32" y="118" type="curve" smooth="yes"/>
			<point x="32" y="31"/>
			<point x="130" y="-16"/>
		</contour>
	</outline>
	<anchor name="aboveLC" x="280" y="507"/>
	<anchor name="belowLC" x="258" y="-20"/>
</glyph>
<glyph name="eta" format="2">
	<unicode hex="03B7"/>
	<advance width="597"/>
	<outline>
		<contour>
			<point x="67" y="-9" type="line"/>
			<point x="75" y="-15" type="line"/>
			<point x="257" y="0" type="line"/>
			<point x="252" y="378" type="line"/>
			<point x="252" y="382" type="line"/>
			<point x="249" y="462"/>
			<point x="200" y="498"/>
			<point x="135" y="498" type="curve" smooth="yes"/>
			<point x="81" y="498"/>
			<point x="40" y="462"/>
			<point x="17" y="418" type="curve"/>
			<point x="22" y="405" type="line"/>
			<point x="29" y="406"/>
			<point x="36" y="406"/>
			<point x="43" y="406" type="curve"/>
			<point x="69" y="406"/>
			<point x="81" y="396"/>
			<point x="81" y="346" type="curve" smooth="yes"/>
			<point x="81" y="245" type="line"/>
		</contour>
		<contour>
			<point x="349" y="-190" type="line"/>
			<point x="357" y="-196" type="line"/>
			<point x="546" y="-161" type="line"/>
			<point x="542" y="315" type="line" smooth="yes"/>
			<point x="541" y="469"/>
			<point x="458" y="503"/>
			<point x="399" y="503" type="curve" smooth="yes"/>
			<point x="334" y="503"/>
			<point x="276" y="468"/>
			<point x="235" y="372" type="curve"/>
			<point x="232" y="372" type="line"/>
			<point x="242" y="367" type="line"/>
			<point x="267" y="389"/>
			<point x="295" y="395"/>
			<point x="316" y="395" type="curve" smooth="yes"/>
			<point x="353" y="395"/>
			<point x="381" y="381"/>
			<point x="378" y="289" type="curve" smooth="yes"/>
			<point x="371" y="65" type="line"/>
		</contour>
	</outline>
	<anchor name="aboveLC" x="297" y="507"/>
	<anchor name="belowLC" x="161" y="-20"/>
</glyph>
<glyph name="kappa" format="2">
	<unicode hex="03BA"/>
	<advance width="577"/>
	<outline>
		<contour>
			<point x="71" y="-15" type="line"/>
			<point x="239" y="0" type="line"/>
			<point x="242" y="80"/>
			<point x="245" y="159"/>
			<point x="248" y="239" type="curve"/>
			<point x="245" y="244" type="line"/>
			<point x="245" y="285"/>
			<point x="245" y="327"/>
			<point x="245" y="368" type="curve" smooth="yes"/>
			<point x="245" y="461"/>
			<point x="193" y="498"/>
			<point x="131" y="498" type="curve" smooth="yes"/>
			<point x="75" y="498"/>
			<point x="36" y="462"/>
			<point x="13" y="419" type="curve"/>
			<point x="18" y="405" type="line"/>
			<point x="24" y="406"/>
			<point x="31" y="406"/>
			<point x="38" y="406" type="curve" smooth="yes"/>
			<point x="73" y="406"/>
			<point x="85" y="396"/>
			<point x="85" y="343" type="curve" smooth="yes"/>
			<point x="85" y="215" type="line"/>
			<point x="62" y="-7" type="line"/>
		</contour>
		<contour>
			<point x="229" y="174" type="line"/>
			<point x="246" y="215"/>
			<point x="263" y="245"/>
			<point x="284" y="275" type="curve"/>
			<point x="288" y="282" type="line"/>
			<point x="327" y="332"/>
			<point x="365" y="370"/>
			<point x="398" y="397" type="curve"/>
			<point x="308" y="323" type="line"/>
			<point x="433" y="336" type="line" smooth="yes"/>
			<point x="506" y="344"/>
			<point x="549" y="369"/>
			<point x="549" y="430" type="curve" smooth="yes"/>
			<point x="549" y="476"/>
			<point x="526" y="496"/>
			<point x="499" y="503" type="curve"/>
			<point x="450" y="496"/>
			<point x="419" y="482"/>
			<point x="374" y="444" type="curve" smooth="yes"/>
			<point x="320" y="397"/>
			<point x="260" y="300"/>
			<point x="224" y="216" type="curve"/>
			<point x="212" y="187" type="line"/>
			<point x="208" y="187" type="line"/>
		</contour>
		<contour>
			<point x="448" y="-16" type="curve" smooth="yes"/>
			<point x="494" y="-16"/>
			<point x="540" y="29"/>
			<point x="561" y="119" type="curve"/>
			<point x="551" y="131" type="line"/>
			<point x="543" y="130"/>
			<point x="533" y="128"/>
			<point x="513" y="128" type="curve" smooth="yes"/>
			<point x="419" y="128"/>
			<point x="365" y="195"/>
			<point x="287" y="298" type="curve"/>
			<point x="272" y="281" type="line"/>
			<point x="309" y="114"/>
			<point x="361" y="-16"/>
		</contour>
	</outline>
</glyph>
<glyph name="lambda" format="2">
	<unicode hex="03BB"/>
	<advance width="609"/>
	<outline>
		<contour>
			<point x="16" y="0" type="line"/>
			<point x="219" y="-10" type="line"/>
			<point x="362" y="394" type="line"/>
			<point x="313" y="556" type="line"/>
			<point x="10" y="7" type="line"/>
		</contour>
		<contour>
			<point x="389" y="25"/>
			<point x="441" y="-16"/>
			<point x="501" y="-16" type="curve" smooth="yes"/>
			<point x="566" y="-16"/>
			<point x="605" y="35"/>
			<point x="614" y="118" type="curve"/>
			<point x="605" y="134" type="line"/>
			<point x="595" y="131"/>
			<point x="575" y="128"/>
			<point x="560" y="128" type="curve" smooth="yes"/>
			<point x="504" y="128"/>
			<point x="453" y="155"/>
			<point x="425" y="239" type="curve" smooth="yes"/>
			<point x="313" y="575" type="line" smooth="yes"/>
			<point x="278" y="679"/>
			<point x="236" y="721"/>
			<point x="166" y="721" type="curve" smooth="yes"/>
			<point x="84" y="721"/>
			<point x="29" y="653"/>
			<point x="27" y="568" type="curve"/>
			<point x="37" y="559" type="line"/>
			<point x="66" y="573"/>
			<point x="114" y="589"/>
			<point x="180" y="589" type="curve" smooth="yes"/>
			<point x="248" y="589"/>
			<point x="290" y="577"/>
			<point x="308" y="524" type="curve" smooth="yes"/>
			<point x="352" y="395" type="line"/>
			<point x="354" y="395" type="line"/>
			<point x="378" y="145" type="line" smooth="yes"/>
		</contour>
	</outline>
</glyph>
<glyph name="mu" format="2">
	<unicode hex="03BC"/>
	<unicode hex="00B5"/>
	<advance width="596"/>
	<outline>
		<contour>
			<point x="50" y="-190" type="line"/>
			<point x="58" y="-196" type="line"/>
			<point x="234" y="-161" type="line"/>
			<point x="194" y="75" type="line"/>
			<point x="229" y="103" type="line"/>
			<point x="229" y="200"/>
			<point x="230" y="287"/>
			<point x="237" y="497" type="curve"/>
			<point x="231" y="503" type="line"/>
			<point x="54" y="470" type="line"/>
			<point x="83" y="113" type="line"/>
		</contour>
		<contour>
			<point x="478" y="-16" type="curve" smooth="yes"/>
			<point x="531" y="-16"/>
			<point x="571" y="9"/>
			<point x="598" y="55" type="curve"/>
			<point x="585" y="75" type="line"/>
			<point x="577" y="71"/>
			<point x="568" y="69"/>
			<point x="556" y="69" type="curve" smooth="yes"/>
			<point x="528" y="69"/>
			<point x="511" y="80"/>
			<point x="511" y="128" type="curve" smooth="yes"/>
			<point x="511" y="182"/>
			<point x="508" y="282"/>
			<point x="524" y="497" type="curve"/>
			<point x="517" y="503" type="line"/>
			<point x="344" y="470" type="line"/>
			<point x="356" y="117" type="line"/>
			<point x="356" y="114" type="line"/>
			<point x="364" y="38"/>
			<point x="410" y="-16"/>
		</contour>
		<contour>
			<point x="271" y="-16" type="curve" smooth="yes"/>
			<point x="323" y="-16"/>
			<point x="351" y="46"/>
			<point x="365" y="137" type="curve"/>
			<point x="368" y="137" type="line"/>
			<point x="360" y="147" type="line"/>
			<point x="343" y="115"/>
			<point x="312" y="111"/>
			<point x="283" y="111" type="curve" smooth="yes"/>
			<point x="255" y="111"/>
			<point x="235" y="123"/>
			<point x="217" y="145" type="curve"/>
			<point x="181" y="82" type="line"/>
			<point x="184" y="82" type="line"/>
			<point x="206" y="33"/>
			<point x="228" y="-16"/>
		</contour>
	</outline>
</glyph>
